Castoro-Italic.ufo
<glyph name="exclam" format="2">
  <advance width="310"/>
  <unicode hex="0021"/>
  <outline>
    <contour>
      <point x="137" y="209" type="line"/>
      <point x="149" y="207"/>
      <point x="159" y="206"/>
      <point x="171" y="206" type="curve"/>
      <point x="290" y="593" type="line" smooth="yes"/>
      <point x="295" y="610"/>
      <point x="305" y="637"/>
      <point x="305" y="658" type="curve" smooth="yes"/>
      <point x="305" y="687"/>
      <point x="286" y="711"/>
      <point x="245" y="711" type="curve" smooth="yes"/>
      <point x="202" y="711"/>
      <point x="173" y="685"/>
      <point x="170" y="647" type="curve" smooth="yes"/>
    </contour>
    <contour>
      <point x="122" y="-13" type="curve" smooth="yes"/>
      <point x="166" y="-13"/>
      <point x="198" y="23"/>
      <point x="198" y="67" type="curve" smooth="yes"/>
      <point x="198" y="104"/>
      <point x="174" y="133"/>
      <point x="135" y="133" type="curve" smooth="yes"/>
      <point x="92" y="133"/>
      <point x="57" y="97"/>
      <point x="57" y="54" type="curve" smooth="yes"/>
      <point x="57" y="17"/>
      <point x="83" y="-13"/>
    </contour>
  </outline>
</glyph>
<glyph name="numbersign" format="2">
  <advance width="600"/>
  <unicode hex="0023"/>
  <outline>
    <contour>
      <point x="352" y="0" type="line"/>
      <point x="506" y="620" type="line"/>
      <point x="448" y="620" type="line"/>
      <point x="293" y="0" type="line"/>
    </contour>
    <contour>
      <point x="529" y="185" type="line"/>
      <point x="529" y="242" type="line"/>
      <point x="48" y="242" type="line"/>
      <point x="48" y="185" type="line"/>
    </contour>
    <contour>
      <point x="165" y="0" type="line"/>
      <point x="316" y="620" type="line"/>
      <point x="259" y="620" type="line"/>
      <point x="105" y="0" type="line"/>
    </contour>
    <contour>
      <point x="563" y="380" type="line"/>
      <point x="563" y="437" type="line"/>
      <point x="83" y="437" type="line"/>
      <point x="83" y="380" type="line"/>
    </contour>
  </outline>
</glyph>
<glyph name="dollar" format="2">
  <advance width="510"/>
  <unicode hex="0024"/>
  <outline>
    <contour>
      <point x="242" y="342" type="line"/>
      <point x="314" y="705" type="line"/>
      <point x="330" y="706"/>
      <point x="344" y="706"/>
      <point x="359" y="704" type="curve"/>
      <point x="285" y="327" type="line"/>
    </contour>
    <contour>
      <point x="280" y="294" type="line"/>
      <point x="204" y="-103" type="line"/>
      <point x="188" y="-104"/>
      <point x="175" y="-105"/>
      <point x="158" y="-102" type="curve"/>
      <point x="237" y="311" type="line"/>
    </contour>
    <contour>
      <point x="412" y="539" type="line"/>
      <point x="374" y="566"/>
      <point x="353" y="576"/>
      <point x="311" y="576" type="curve" smooth="yes"/>
      <point x="221" y="576"/>
      <point x="169" y="530"/>
      <point x="169" y="467" type="curve" smooth="yes"/>
      <point x="169" y="411"/>
      <point x="210" y="393"/>
      <point x="283" y="361" type="curve" smooth="yes"/>
      <point x="365" y="325"/>
      <point x="454" y="280"/>
      <point x="454" y="173" type="curve" smooth="yes"/>
      <point x="454" y="57"/>
      <point x="350" y="-7"/>
      <point x="214" y="-7" type="curve" smooth="yes"/>
      <point x="113" y="-7"/>
      <point x="-1" y="28"/>
      <point x="-1" y="101" type="curve" smooth="yes"/>
      <point x="-1" y="132"/>
      <point x="19" y="154"/>
      <point x="48" y="154" type="curve" smooth="yes"/>
      <point x="86" y="154"/>
      <point x="117" y="117"/>
      <point x="122" y="43" type="curve"/>
      <point x="86" y="76" type="line"/>
      <point x="112" y="57"/>
      <point x="147" y="32"/>
      <point x="214" y="32" type="curve" smooth="yes"/>
      <point x="313" y="32"/>
      <point x="358" y="86"/>
      <point x="358" y="146" type="curve" smooth="yes"/>
      <point x="358" y="212"/>
      <point x="304" y="237"/>
      <point x="249" y="261" type="curve" smooth="yes"/>
      <point x="168" y="297"/>
      <point x="79" y="338"/>
      <point x="79" y="437" type="curve" smooth="yes"/>
      <point x="79" y="545"/>
      <point x="186" y="616"/>
      <point x="310" y="616" type="curve" smooth="yes"/>
      <point x="402" y="616"/>
      <point x="493" y="577"/>
      <point x="493" y="512" type="curve" smooth="yes"/>
      <point x="493" y="483"/>
      <point x="474" y="465"/>
      <point x="445" y="465" type="curve" smooth="yes"/>
      <point x="413" y="465"/>
      <point x="373" y="488"/>
      <point x="369" y="574" type="curve"/>
    </contour>
  </outline>
</glyph>
<glyph name="ampersand" format="2">
  <advance width="821"/>
  <unicode hex="0026"/>
  <outline>
    <contour>
      <point x="390" y="675" type="curve" smooth="yes"/>
      <point x="423" y="675"/>
      <point x="450" y="667"/>
      <point x="474" y="656" type="curve"/>
      <point x="440" y="678" type="line"/>
      <point x="441" y="635"/>
      <point x="463" y="580"/>
      <point x="513" y="580" type="curve" smooth="yes"/>
      <point x="548" y="580"/>
      <point x="560" y="606"/>
      <point x="560" y="626" type="curve" smooth="yes"/>
      <point x="560" y="668"/>
      <point x="507" y="713"/>
      <point x="399" y="713" type="curve" smooth="yes"/>
      <point x="260" y="713"/>
      <point x="147" y="639"/>
      <point x="147" y="540" type="curve" smooth="yes"/>
      <point x="147" y="471"/>
      <point x="200" y="429"/>
      <point x="234" y="420" type="curve"/>
      <point x="233" y="402" type="line"/>
      <point x="254" y="421" type="line"/>
      <point x="139" y="394"/>
      <point x="46" y="323"/>
      <point x="46" y="204" type="curve" smooth="yes"/>
      <point x="46" y="59"/>
      <point x="183" y="-12"/>
      <point x="331" y="-12" type="curve" smooth="yes"/>
      <point x="521" y="-12"/>
      <point x="651" y="101"/>
      <point x="651" y="243" type="curve" smooth="yes"/>
      <point x="651" y="268"/>
      <point x="647" y="302"/>
      <point x="631" y="336" type="curve"/>
      <point x="657" y="366" type="line"/>
      <point x="599" y="363" type="line"/>
      <point x="623" y="346"/>
      <point x="653" y="315"/>
      <point x="698" y="315" type="curve" smooth="yes"/>
      <point x="741" y="315"/>
      <point x="792" y="342"/>
      <point x="847" y="443" type="curve"/>
      <point x="841" y="450"/>
      <point x="833" y="456"/>
      <point x="822" y="461" type="curve"/>
      <point x="787" y="405"/>
      <point x="754" y="393"/>
      <point x="731" y="393" type="curve" smooth="yes"/>
      <point x="705" y="393"/>
      <point x="683" y="406"/>
      <point x="654" y="423" type="curve" smooth="yes"/>
      <point x="625" y="440"/>
      <point x="589" y="461"/>
      <point x="537" y="461" type="curve" smooth="yes"/>
      <point x="442" y="461"/>
      <point x="365" y="391"/>
      <point x="365" y="305" type="curve" smooth="yes"/>
      <point x="365" y="243"/>
      <point x="406" y="199"/>
      <point x="459" y="199" type="curve" smooth="yes"/>
      <point x="497" y="199"/>
      <point x="514" y="221"/>
      <point x="514" y="247" type="curve" smooth="yes"/>
      <point x="514" y="281"/>
      <point x="483" y="300"/>
      <point x="444" y="300" type="curve" smooth="yes"/>
      <point x="431" y="300"/>
      <point x="417" y="298"/>
      <point x="403" y="294" type="curve"/>
      <point x="414" y="286" type="line"/>
      <point x="410" y="295"/>
      <point x="407" y="304"/>
      <point x="407" y="317" type="curve" smooth="yes"/>
      <point x="407" y="355"/>
      <point x="431" y="391"/>
      <point x="494" y="391" type="curve" smooth="yes"/>
      <point x="567" y="391"/>
      <point x="612" y="342"/>
      <point x="612" y="258" type="curve" smooth="yes"/>
      <point x="612" y="112"/>
      <point x="477" y="46"/>
      <point x="358" y="46" type="curve" smooth="yes"/>
      <point x="260" y="46"/>
      <point x="160" y="90"/>
      <point x="160" y="218" type="curve" smooth="yes"/>
      <point x="160" y="327"/>
      <point x="233" y="391"/>
      <point x="353" y="413" type="curve"/>
      <point x="357" y="424"/>
      <point x="359" y="436"/>
      <point x="361" y="447" type="curve"/>
      <point x="280" y="451"/>
      <point x="252" y="494"/>
      <point x="252" y="548" type="curve" smooth="yes"/>
      <point x="252" y="619"/>
      <point x="301" y="675"/>
    </contour>
  </outline>
</glyph>
<glyph name="quotesingle" format="2">
  <advance width="223"/>
  <unicode hex="0027"/>
  <outline>
    <contour>
      <point x="233" y="638" type="line" smooth="yes"/>
      <point x="240" y="657"/>
      <point x="245" y="671"/>
      <point x="245" y="676" type="curve" smooth="yes"/>
      <point x="245" y="696"/>
      <point x="219" y="711"/>
      <point x="190" y="711" type="curve" smooth="yes"/>
      <point x="166" y="711"/>
      <point x="135" y="697"/>
      <point x="134" y="678" type="curve" smooth="yes"/>
      <point x="120" y="418" type="line"/>
      <point x="150" y="418" type="line"/>
    </contour>
  </outline>
</glyph>
<glyph name="parenleft" format="2">
  <advance width="397"/>
  <unicode hex="0028"/>
  <outline>
    <contour>
      <point x="332" y="-163" type="line"/>
      <point x="217" y="-72"/>
      <point x="158" y="78"/>
      <point x="158" y="285" type="curve" smooth="yes"/>
      <point x="158" y="492"/>
      <point x="217" y="641"/>
      <point x="332" y="732" type="curve"/>
      <point x="310" y="754" type="line"/>
      <point x="150" y="646"/>
      <point x="71" y="488"/>
      <point x="71" y="287" type="curve" smooth="yes"/>
      <point x="71" y="88"/>
      <point x="149" y="-69"/>
      <point x="310" y="-184" type="curve"/>
    </contour>
  </outline>
</glyph>
<glyph name="parenright" format="2">
  <advance width="397"/>
  <unicode hex="0029"/>
  <outline>
    <contour>
      <point x="107" y="-184" type="line"/>
      <point x="267" y="-76"/>
      <point x="346" y="82"/>
      <point x="346" y="283" type="curve" smooth="yes"/>
      <point x="346" y="482"/>
      <point x="268" y="639"/>
      <point x="107" y="754" type="curve"/>
      <point x="85" y="733" type="line"/>
      <point x="200" y="642"/>
      <point x="259" y="492"/>
      <point x="259" y="285" type="curve" smooth="yes"/>
      <point x="259" y="78"/>
      <point x="200" y="-71"/>
      <point x="85" y="-162" type="curve"/>
    </contour>
  </outline>
</glyph>
<glyph name="asterisk" format="2">
  <advance width="458"/>
  <unicode hex="002A"/>
  <outline>
    <contour>
      <point x="159" y="358" type="curve" smooth="yes"/>
      <point x="177" y="358"/>
      <point x="198" y="365"/>
      <point x="213" y="379" type="curve"/>
      <point x="220" y="386"/>
      <point x="234" y="442"/>
      <point x="283" y="505" type="curve"/>
      <point x="264" y="512" type="line"/>
      <point x="221" y="477"/>
      <point x="173" y="457"/>
      <point x="154" y="447" type="curve" smooth="yes"/>
      <point x="136" y="437"/>
      <point x="128" y="406"/>
      <point x="128" y="388" type="curve" smooth="yes"/>
      <point x="128" y="368"/>
      <point x="140" y="358"/>
    </contour>
    <contour>
      <point x="280" y="517" type="line"/>
      <point x="223" y="556"/>
      <point x="200" y="587"/>
      <point x="182" y="604" type="curve"/>
      <point x="169" y="617"/>
      <point x="156" y="620"/>
      <point x="137" y="620" type="curve" smooth="yes"/>
      <point x="116" y="620"/>
      <point x="93" y="609"/>
      <point x="93" y="588" type="curve" smooth="yes"/>
      <point x="93" y="568"/>
      <point x="109" y="542"/>
      <point x="132" y="530" type="curve" smooth="yes"/>
      <point x="150" y="521"/>
      <point x="196" y="531"/>
      <point x="274" y="503" type="curve"/>
    </contour>
    <contour>
      <point x="358" y="331" type="curve" smooth="yes"/>
      <point x="377" y="331"/>
      <point x="388" y="350"/>
      <point x="388" y="372" type="curve" smooth="yes"/>
      <point x="388" y="384"/>
      <point x="385" y="398"/>
      <point x="379" y="411" type="curve" smooth="yes"/>
      <point x="374" y="422"/>
      <point x="318" y="460"/>
      <point x="284" y="517" type="curve"/>
      <point x="270" y="504" type="line"/>
      <point x="291" y="451"/>
      <point x="293" y="398"/>
      <point x="297" y="379" type="curve"/>
      <point x="304" y="354"/>
      <point x="337" y="331"/>
    </contour>
    <contour>
      <point x="284" y="509" type="line"/>
      <point x="299" y="569"/>
      <point x="342" y="627"/>
      <point x="342" y="648" type="curve" smooth="yes"/>
      <point x="342" y="678"/>
      <point x="325" y="711"/>
      <point x="302" y="711" type="curve" smooth="yes"/>
      <point x="274" y="711"/>
      <point x="251" y="667"/>
      <point x="251" y="649" type="curve" smooth="yes"/>
      <point x="251" y="637"/>
      <point x="271" y="576"/>
      <point x="269" y="512" type="curve"/>
    </contour>
    <contour>
      <point x="414" y="489" type="curve" smooth="yes"/>
      <point x="439" y="489"/>
      <point x="476" y="517"/>
      <point x="476" y="541" type="curve" smooth="yes"/>
      <point x="476" y="562"/>
      <point x="445" y="579"/>
      <point x="415" y="579" type="curve" smooth="yes"/>
      <point x="388" y="579"/>
      <point x="366" y="546"/>
      <point x="281" y="521" type="curve"/>
      <point x="285" y="504" type="line"/>
      <point x="347" y="505"/>
      <point x="397" y="489"/>
    </contour>
  </outline>
</glyph>
<glyph name="plus" format="2">
  <advance width="581"/>
  <unicode hex="002B"/>
  <outline>
    <contour>
      <point x="526" y="211" type="line"/>
      <point x="527" y="226"/>
      <point x="527" y="250"/>
      <point x="526" y="266" type="curve"/>
      <point x="49" y="266" type="line"/>
      <point x="47" y="250"/>
      <point x="47" y="226"/>
      <point x="49" y="211" type="curve"/>
    </contour>
    <contour>
      <point x="260" y="0" type="line"/>
      <point x="274" y="-1"/>
      <point x="301" y="-1"/>
      <point x="315" y="0" type="curve"/>
      <point x="315" y="477" type="line"/>
      <point x="301" y="478"/>
      <point x="274" y="478"/>
      <point x="260" y="477" type="curve"/>
    </contour>
  </outline>
</glyph>
<glyph name="comma" format="2">
  <advance width="297"/>
  <unicode hex="002C"/>
  <outline>
    <contour>
      <point x="106" y="143" type="curve" smooth="yes"/>
      <point x="67" y="143"/>
      <point x="30" y="117"/>
      <point x="30" y="74" type="curve" smooth="yes"/>
      <point x="30" y="38"/>
      <point x="58" y="11"/>
      <point x="93" y="11" type="curve" smooth="yes"/>
      <point x="109" y="11"/>
      <point x="123" y="17"/>
      <point x="135" y="26" type="curve"/>
      <point x="125" y="21" type="line"/>
      <point x="125" y="13" type="line" smooth="yes"/>
      <point x="125" y="-67"/>
      <point x="56" y="-124"/>
      <point x="-25" y="-151" type="curve"/>
      <point x="-14" y="-184" type="line"/>
      <point x="116" y="-146"/>
      <point x="187" y="-53"/>
      <point x="187" y="40" type="curve" smooth="yes"/>
      <point x="187" y="100"/>
      <point x="157" y="143"/>
    </contour>
  </outline>
</glyph>
<glyph name="hyphen" format="2">
  <advance width="340"/>
  <unicode hex="002D"/>
  <outline>
    <contour>
      <point x="283" y="215" type="line"/>
      <point x="291" y="241"/>
      <point x="296" y="264"/>
      <point x="302" y="289" type="curve"/>
      <point x="48" y="289" type="line"/>
      <point x="40" y="263"/>
      <point x="35" y="241"/>
      <point x="29" y="215" type="curve"/>
    </contour>
  </outline>
</glyph>
<glyph name="period" format="2">
  <advance width="297"/>
  <unicode hex="002E"/>
  <outline>
    <contour>
      <point x="101" y="-12" type="curve" smooth="yes"/>
      <point x="147" y="-12"/>
      <point x="180" y="25"/>
      <point x="180" y="69" type="curve" smooth="yes"/>
      <point x="180" y="107"/>
      <point x="155" y="136"/>
      <point x="114" y="136" type="curve" smooth="yes"/>
      <point x="69" y="136"/>
      <point x="33" y="100"/>
      <point x="33" y="56" type="curve" smooth="yes"/>
      <point x="33" y="18"/>
      <point x="60" y="-12"/>
    </contour>
  </outline>
</glyph>
<glyph name="slash" format="2">
  <advance width="370"/>
  <unicode hex="002F"/>
  <outline>
    <contour>
      <point x="-27" y="-177" type="line"/>
      <point x="427" y="748" type="line"/>
      <point x="363" y="748" type="line"/>
      <point x="-94" y="-177" type="line"/>
    </contour>
  </outline>
</glyph>
<glyph name="zero" format="2">
  <advance width="558"/>
  <unicode hex="0030"/>
  <outline>
    <contour>
      <point x="331" y="591" type="curve" smooth="yes"/>
      <point x="400" y="591"/>
      <point x="425" y="519"/>
      <point x="425" y="417" type="curve" smooth="yes"/>
      <point x="425" y="251"/>
      <point x="358" y="26"/>
      <point x="236" y="26" type="curve" smooth="yes"/>
      <point x="168" y="26"/>
      <point x="144" y="96"/>
      <point x="144" y="199" type="curve" smooth="yes"/>
      <point x="144" y="370"/>
      <point x="211" y="591"/>
    </contour>
    <contour>
      <point x="234" y="-12" type="curve" smooth="yes"/>
      <point x="397" y="-12"/>
      <point x="528" y="165"/>
      <point x="528" y="377" type="curve" smooth="yes"/>
      <point x="528" y="520"/>
      <point x="468" y="630"/>
      <point x="334" y="630" type="curve" smooth="yes"/>
      <point x="155" y="630"/>
      <point x="42" y="436"/>
      <point x="42" y="241" type="curve" smooth="yes"/>
      <point x="42" y="85"/>
      <point x="113" y="-12"/>
    </contour>
  </outline>
</glyph>
<glyph name="one" format="2">
  <advance width="372"/>
  <unicode hex="0031"/>
  <outline>
    <contour>
      <point x="341" y="609" type="curve"/>
      <point x="339" y="619"/>
      <point x="336" y="625"/>
      <point x="330" y="632" type="curve"/>
      <point x="240" y="597"/>
      <point x="175" y="575"/>
      <point x="72" y="550" type="curve"/>
      <point x="73" y="538"/>
      <point x="74" y="529"/>
      <point x="76" y="518" type="curve"/>
      <point x="122" y="527"/>
      <point x="157" y="532"/>
      <point x="171" y="532" type="curve" smooth="yes"/>
      <point x="187" y="532"/>
      <point x="192" y="523"/>
      <point x="192" y="512" type="curve" smooth="yes"/>
      <point x="192" y="506"/>
      <point x="191" y="498"/>
      <point x="189" y="488" type="curve" smooth="yes"/>
      <point x="116" y="107" type="line" smooth="yes"/>
      <point x="103" y="40"/>
      <point x="98" y="39"/>
      <point x="8" y="31" type="curve"/>
      <point x="4" y="21"/>
      <point x="3" y="8"/>
      <point x="3" y="-1" type="curve"/>
      <point x="40" y="-1"/>
      <point x="103" y="1"/>
      <point x="152" y="1" type="curve" smooth="yes"/>
      <point x="198" y="1"/>
      <point x="253" y="-1"/>
      <point x="292" y="-1" type="curve"/>
      <point x="295" y="8"/>
      <point x="297" y="21"/>
      <point x="298" y="31" type="curve"/>
      <point x="225" y="36"/>
      <point x="210" y="38"/>
      <point x="210" y="67" type="curve" smooth="yes"/>
      <point x="210" y="80"/>
      <point x="214" y="96"/>
      <point x="219" y="119" type="curve" smooth="yes"/>
      <point x="293" y="493" type="line" smooth="yes"/>
      <point x="304" y="548"/>
      <point x="321" y="584"/>
    </contour>
  </outline>
</glyph>
<glyph name="two" format="2">
  <advance width="502"/>
  <unicode hex="0032"/>
  <outline>
    <contour>
      <point x="100" y="513" type="curve"/>
      <point x="151" y="547"/>
      <point x="198" y="562"/>
      <point x="243" y="562" type="curve" smooth="yes"/>
      <point x="310" y="562"/>
      <point x="348" y="529"/>
      <point x="348" y="465" type="curve" smooth="yes"/>
      <point x="348" y="323"/>
      <point x="161" y="170"/>
      <point x="-27" y="27" type="curve"/>
      <point x="-27" y="18"/>
      <point x="-26" y="9"/>
      <point x="-24" y="0" type="curve"/>
      <point x="4" y="1"/>
      <point x="53" y="1"/>
      <point x="129" y="1" type="curve" smooth="yes"/>
      <point x="208" y="1"/>
      <point x="323" y="1"/>
      <point x="405" y="-1" type="curve"/>
      <point x="418" y="42"/>
      <point x="431" y="91"/>
      <point x="460" y="171" type="curve"/>
      <point x="448" y="173"/>
      <point x="437" y="173"/>
      <point x="426" y="173" type="curve"/>
      <point x="379" y="86"/>
      <point x="359" y="84"/>
      <point x="270" y="84" type="curve" smooth="yes"/>
      <point x="81" y="83" type="line"/>
      <point x="74" y="62" type="line"/>
      <point x="281" y="214"/>
      <point x="457" y="343"/>
      <point x="457" y="481" type="curve" smooth="yes"/>
      <point x="457" y="565"/>
      <point x="393" y="630"/>
      <point x="287" y="630" type="curve" smooth="yes"/>
      <point x="217" y="630"/>
      <point x="145" y="602"/>
      <point x="81" y="537" type="curve"/>
      <point x="87" y="526"/>
      <point x="94" y="519"/>
    </contour>
  </outline>
</glyph>
<glyph name="three" format="2">
  <advance width="518"/>
  <unicode hex="0033"/>
  <outline>
    <contour>
      <point x="140" y="227" type="curve"/>
      <point x="160" y="232"/>
      <point x="181" y="235"/>
      <point x="202" y="235" type="curve" smooth="yes"/>
      <point x="294" y="235"/>
      <point x="345" y="177"/>
      <point x="345" y="97" type="curve" smooth="yes"/>
      <point x="345" y="-16"/>
      <point x="245" y="-103"/>
      <point x="135" y="-103" type="curve" smooth="yes"/>
      <point x="114" y="-103"/>
      <point x="83" y="-100"/>
      <point x="71" y="-93" type="curve"/>
      <point x="91" y="-124" type="line"/>
      <point x="85" y="-50"/>
      <point x="61" y="6"/>
      <point x="13" y="6" type="curve" smooth="yes"/>
      <point x="-20" y="6"/>
      <point x="-37" y="-19"/>
      <point x="-37" y="-45" type="curve" smooth="yes"/>
      <point x="-37" y="-94"/>
      <point x="23" y="-139"/>
      <point x="129" y="-139" type="curve" smooth="yes"/>
      <point x="284" y="-139"/>
      <point x="450" y="-43"/>
      <point x="450" y="119" type="curve" smooth="yes"/>
      <point x="450" y="212"/>
      <point x="395" y="295"/>
      <point x="255" y="293" type="curve"/>
      <point x="261" y="273" type="line"/>
      <point x="358" y="316"/>
      <point x="467" y="385"/>
      <point x="467" y="490" type="curve" smooth="yes"/>
      <point x="467" y="568"/>
      <point x="407" y="630"/>
      <point x="299" y="630" type="curve" smooth="yes"/>
      <point x="217" y="630"/>
      <point x="148" y="594"/>
      <point x="93" y="537" type="curve"/>
      <point x="97" y="528"/>
      <point x="103" y="521"/>
      <point x="110" y="513" type="curve"/>
      <point x="160" y="548"/>
      <point x="204" y="562"/>
      <point x="249" y="562" type="curve" smooth="yes"/>
      <point x="331" y="562"/>
      <point x="359" y="517"/>
      <point x="359" y="470" type="curve" smooth="yes"/>
      <point x="359" y="396"/>
      <point x="289" y="310"/>
      <point x="134" y="257" type="curve"/>
      <point x="134" y="246"/>
      <point x="136" y="237"/>
    </contour>
  </outline>
</glyph>
<glyph name="four" format="2">
  <advance width="571"/>
  <unicode hex="0034"/>
  <outline>
    <contour>
      <point x="512" y="109" type="line"/>
      <point x="519" y="133"/>
      <point x="524" y="159"/>
      <point x="530" y="186" type="curve"/>
      <point x="32" y="186" type="line"/>
      <point x="62" y="165" type="line"/>
      <point x="180" y="299"/>
      <point x="287" y="421"/>
      <point x="416" y="551" type="curve"/>
      <point x="397" y="573" type="line"/>
      <point x="263" y="-116" type="line"/>
      <point x="295" y="-118"/>
      <point x="329" y="-117"/>
      <point x="362" y="-116" type="curve"/>
      <point x="487" y="529" type="line" smooth="yes"/>
      <point x="491" y="548"/>
      <point x="495" y="569"/>
      <point x="507" y="620" type="curve"/>
      <point x="484" y="624"/>
      <point x="459" y="626"/>
      <point x="432" y="626" type="curve"/>
      <point x="281" y="473"/>
      <point x="148" y="327"/>
      <point x="4" y="165" type="curve"/>
      <point x="4" y="146"/>
      <point x="4" y="128"/>
      <point x="6" y="109" type="curve"/>
    </contour>
  </outline>
</glyph>
<glyph name="five" format="2">
  <advance width="519"/>
  <unicode hex="0035"/>
  <outline>
    <contour>
      <point x="136" y="-139" type="curve" smooth="yes"/>
      <point x="317" y="-139"/>
      <point x="455" y="-7"/>
      <point x="455" y="161" type="curve" smooth="yes"/>
      <point x="455" y="275"/>
      <point x="390" y="364"/>
      <point x="235" y="364" type="curve" smooth="yes"/>
      <point x="202" y="364"/>
      <point x="163" y="360"/>
      <point x="122" y="349" type="curve"/>
      <point x="145" y="318" type="line"/>
      <point x="217" y="565" type="line"/>
      <point x="173" y="523" type="line"/>
      <point x="480" y="523" type="line"/>
      <point x="493" y="553"/>
      <point x="505" y="589"/>
      <point x="514" y="620" type="curve"/>
      <point x="186" y="613" type="line"/>
      <point x="82" y="266" type="line"/>
      <point x="88" y="263" type="line"/>
      <point x="119" y="273"/>
      <point x="162" y="279"/>
      <point x="200" y="279" type="curve" smooth="yes"/>
      <point x="293" y="279"/>
      <point x="352" y="242"/>
      <point x="352" y="129" type="curve" smooth="yes"/>
      <point x="352" y="-7"/>
      <point x="269" y="-101"/>
      <point x="148" y="-101" type="curve" smooth="yes"/>
      <point x="126" y="-101"/>
      <point x="106" y="-98"/>
      <point x="60" y="-92" type="curve"/>
      <point x="109" y="-123" type="line"/>
      <point x="101" y="-38"/>
      <point x="73" y="8"/>
      <point x="31" y="8" type="curve" smooth="yes"/>
      <point x="-1" y="8"/>
      <point x="-18" y="-15"/>
      <point x="-18" y="-45" type="curve" smooth="yes"/>
      <point x="-18" y="-82"/>
      <point x="18" y="-139"/>
    </contour>
  </outline>
</glyph>
<glyph name="six" format="2">
  <advance width="562"/>
  <unicode hex="0036"/>
  <outline>
    <contour>
      <point x="151" y="216" type="curve" smooth="yes"/>
      <point x="151" y="451"/>
      <point x="284" y="716"/>
      <point x="544" y="705" type="curve"/>
      <point x="547" y="717"/>
      <point x="549" y="730"/>
      <point x="549" y="743" type="curve"/>
      <point x="540" y="744"/>
      <point x="532" y="744"/>
      <point x="528" y="744" type="curve" smooth="yes"/>
      <point x="272" y="744"/>
      <point x="45" y="511"/>
      <point x="45" y="243" type="curve" smooth="yes"/>
      <point x="45" y="78"/>
      <point x="130" y="-12"/>
      <point x="258" y="-12" type="curve" smooth="yes"/>
      <point x="409" y="-12"/>
      <point x="522" y="113"/>
      <point x="522" y="263" type="curve" smooth="yes"/>
      <point x="522" y="388"/>
      <point x="441" y="460"/>
      <point x="339" y="460" type="curve" smooth="yes"/>
      <point x="271" y="460"/>
      <point x="188" y="429"/>
      <point x="160" y="395" type="curve"/>
      <point x="163" y="362" type="line"/>
      <point x="215" y="399"/>
      <point x="266" y="407"/>
      <point x="294" y="407" type="curve" smooth="yes"/>
      <point x="365" y="407"/>
      <point x="418" y="356"/>
      <point x="418" y="249" type="curve" smooth="yes"/>
      <point x="418" y="125"/>
      <point x="348" y="26"/>
      <point x="260" y="26" type="curve" smooth="yes"/>
      <point x="200" y="26"/>
      <point x="151" y="73"/>
    </contour>
  </outline>
</glyph>
<glyph name="seven" format="2">
  <advance width="488"/>
  <unicode hex="0037"/>
  <outline>
    <contour>
      <point x="185" y="-115" type="curve"/>
      <point x="252" y="101"/>
      <point x="390" y="371"/>
      <point x="519" y="589" type="curve"/>
      <point x="518" y="602"/>
      <point x="515" y="610"/>
      <point x="510" y="618" type="curve"/>
      <point x="486" y="616"/>
      <point x="414" y="615"/>
      <point x="358" y="615" type="curve" smooth="yes"/>
      <point x="276" y="615"/>
      <point x="189" y="616"/>
      <point x="103" y="620" type="curve"/>
      <point x="90" y="560"/>
      <point x="72" y="496"/>
      <point x="51" y="432" type="curve"/>
      <point x="65" y="427"/>
      <point x="75" y="427"/>
      <point x="84" y="427" type="curve"/>
      <point x="117" y="520"/>
      <point x="151" y="527"/>
      <point x="205" y="529" type="curve" smooth="yes"/>
      <point x="237" y="530"/>
      <point x="263" y="530"/>
      <point x="463" y="529" type="curve"/>
      <point x="458" y="554" type="line"/>
      <point x="324" y="358"/>
      <point x="178" y="117"/>
      <point x="78" y="-103" type="curve"/>
      <point x="83" y="-116" type="line"/>
      <point x="117" y="-118"/>
      <point x="154" y="-117"/>
    </contour>
  </outline>
</glyph>
<glyph name="eight" format="2">
  <advance width="542"/>
  <unicode hex="0038"/>
  <outline>
    <contour>
      <point x="217" y="373" type="line"/>
      <point x="126" y="329"/>
      <point x="24" y="267"/>
      <point x="24" y="162" type="curve" smooth="yes"/>
      <point x="24" y="69"/>
      <point x="104" y="-12"/>
      <point x="240" y="-12" type="curve" smooth="yes"/>
      <point x="381" y="-12"/>
      <point x="498" y="74"/>
      <point x="498" y="198" type="curve" smooth="yes"/>
      <point x="498" y="293"/>
      <point x="429" y="346"/>
      <point x="354" y="400" type="curve" smooth="yes"/>
      <point x="244" y="480"/>
      <point x="215" y="517"/>
      <point x="215" y="579" type="curve" smooth="yes"/>
      <point x="215" y="656"/>
      <point x="273" y="708"/>
      <point x="336" y="708" type="curve" smooth="yes"/>
      <point x="402" y="708"/>
      <point x="437" y="648"/>
      <point x="437" y="582" type="curve" smooth="yes"/>
      <point x="437" y="515"/>
      <point x="401" y="452"/>
      <point x="322" y="405" type="curve"/>
      <point x="368" y="371" type="line"/>
      <point x="369" y="393" type="line"/>
      <point x="438" y="427"/>
      <point x="538" y="485"/>
      <point x="538" y="585" type="curve" smooth="yes"/>
      <point x="538" y="678"/>
      <point x="452" y="744"/>
      <point x="343" y="744" type="curve" smooth="yes"/>
      <point x="218" y="744"/>
      <point x="119" y="659"/>
      <point x="119" y="544" type="curve" smooth="yes"/>
      <point x="119" y="471"/>
      <point x="156" y="419"/>
      <point x="268" y="338" type="curve" smooth="yes"/>
      <point x="327" y="295"/>
      <point x="397" y="244"/>
      <point x="397" y="166" type="curve" smooth="yes"/>
      <point x="397" y="82"/>
      <point x="323" y="24"/>
      <point x="248" y="24" type="curve" smooth="yes"/>
      <point x="167" y="24"/>
      <point x="128" y="91"/>
      <point x="128" y="165" type="curve" smooth="yes"/>
      <point x="128" y="250"/>
      <point x="179" y="307"/>
      <point x="255" y="357" type="curve"/>
      <point x="217" y="393" type="line"/>
    </contour>
  </outline>
</glyph>
<glyph name="nine" format="2">
  <advance width="558"/>
  <unicode hex="0039"/>
  <outline>
    <contour>
      <point x="423" y="396" type="curve" smooth="yes"/>
      <point x="423" y="159"/>
      <point x="284" y="-101"/>
      <point x="11" y="-101" type="curve"/>
      <point x="8" y="-113"/>
      <point x="7" y="-125"/>
      <point x="7" y="-137" type="curve"/>
      <point x="306" y="-141"/>
      <point x="529" y="108"/>
      <point x="529" y="374" type="curve" smooth="yes"/>
      <point x="529" y="554"/>
      <point x="427" y="630"/>
      <point x="310" y="630" type="curve" smooth="yes"/>
      <point x="172" y="630"/>
      <point x="56" y="524"/>
      <point x="56" y="373" type="curve" smooth="yes"/>
      <point x="56" y="245"/>
      <point x="138" y="161"/>
      <point x="254" y="161" type="curve" smooth="yes"/>
      <point x="333" y="161"/>
      <point x="400" y="199"/>
      <point x="418" y="219" type="curve"/>
      <point x="426" y="271" type="line"/>
      <point x="388" y="229"/>
      <point x="335" y="214"/>
      <point x="297" y="214" type="curve" smooth="yes"/>
      <point x="207" y="214"/>
      <point x="167" y="303"/>
      <point x="167" y="397" type="curve" smooth="yes"/>
      <point x="167" y="511"/>
      <point x="226" y="592"/>
      <point x="307" y="592" type="curve" smooth="yes"/>
      <point x="377" y="592"/>
      <point x="423" y="532"/>
    </contour>
  </outline>
</glyph>
<glyph name="less" format="2">
  <advance width="581"/>
  <unicode hex="003C"/>
  <outline>
    <contour>
      <point x="496" y="13" type="line"/>
      <point x="503" y="26"/>
      <point x="513" y="47"/>
      <point x="519" y="62" type="curve"/>
      <point x="88" y="258" type="line"/>
      <point x="88" y="218" type="line"/>
      <point x="519" y="415" type="line"/>
      <point x="514" y="429"/>
      <point x="504" y="450"/>
      <point x="496" y="464" type="curve"/>
      <point x="53" y="258" type="line"/>
      <point x="50" y="245"/>
      <point x="50" y="232"/>
      <point x="53" y="219" type="curve"/>
    </contour>
  </outline>
</glyph>
<glyph name="equal" format="2">
  <advance width="581"/>
  <unicode hex="003D"/>
  <outline>
    <contour>
      <point x="533" y="301" type="line"/>
      <point x="534" y="316"/>
      <point x="534" y="340"/>
      <point x="533" y="356" type="curve"/>
      <point x="56" y="356" type="line"/>
      <point x="54" y="340"/>
      <point x="54" y="316"/>
      <point x="56" y="301" type="curve"/>
    </contour>
    <contour>
      <point x="533" y="121" type="line"/>
      <point x="534" y="136"/>
      <point x="534" y="160"/>
      <point x="533" y="176" type="curve"/>
      <point x="56" y="176" type="line"/>
      <point x="54" y="160"/>
      <point x="54" y="136"/>
      <point x="56" y="121" type="curve"/>
    </contour>
  </outline>
</glyph>
<glyph name="question" format="2">
  <advance width="416"/>
  <unicode hex="003F"/>
  <outline>
    <contour>
      <point x="199" y="309" type="line"/>
      <point x="180" y="297" type="line"/>
      <point x="324" y="295"/>
      <point x="411" y="326"/>
      <point x="411" y="464" type="curve" smooth="yes"/>
      <point x="411" y="619"/>
      <point x="301" y="711"/>
      <point x="215" y="711" type="curve" smooth="yes"/>
      <point x="165" y="711"/>
      <point x="138" y="681"/>
      <point x="138" y="653" type="curve" smooth="yes"/>
      <point x="138" y="629"/>
      <point x="157" y="608"/>
      <point x="197" y="608" type="curve" smooth="yes"/>
      <point x="230" y="608"/>
      <point x="268" y="621"/>
      <point x="289" y="641" type="curve"/>
      <point x="272" y="638" type="line"/>
      <point x="321" y="617"/>
      <point x="365" y="549"/>
      <point x="365" y="480" type="curve" smooth="yes"/>
      <point x="365" y="396"/>
      <point x="300" y="392"/>
      <point x="151" y="392" type="curve"/>
      <point x="134" y="204" type="line"/>
      <point x="146" y="202"/>
      <point x="156" y="201"/>
      <point x="168" y="201" type="curve"/>
    </contour>
    <contour>
      <point x="120" y="-13" type="curve" smooth="yes"/>
      <point x="164" y="-13"/>
      <point x="196" y="23"/>
      <point x="196" y="67" type="curve" smooth="yes"/>
      <point x="196" y="104"/>
      <point x="172" y="133"/>
      <point x="133" y="133" type="curve" smooth="yes"/>
      <point x="90" y="133"/>
      <point x="55" y="97"/>
      <point x="55" y="54" type="curve" smooth="yes"/>
      <point x="55" y="17"/>
      <point x="81" y="-13"/>
    </contour>
  </outline>
</glyph>
<glyph name="at" format="2">
  <advance width="900"/>
  <unicode hex="0040"/>
  <outline>
    <contour>
      <point x="503" y="136" type="line"/>
      <point x="493" y="96"/>
      <point x="491" y="86"/>
      <point x="491" y="71" type="curve" smooth="yes"/>
      <point x="491" y="26"/>
      <point x="510" y="-9"/>
      <point x="580" y="-9" type="curve" smooth="yes"/>
      <point x="737" y="-9"/>
      <point x="848" y="166"/>
      <point x="848" y="330" type="curve" smooth="yes"/>
      <point x="848" y="517"/>
      <point x="705" y="623"/>
      <point x="520" y="623" type="curve" smooth="yes"/>
      <point x="254" y="623"/>
      <point x="41" y="403"/>
      <point x="41" y="142" type="curve" smooth="yes"/>
      <point x="41" y="-66"/>
      <point x="177" y="-193"/>
      <point x="373" y="-193" type="curve" smooth="yes"/>
      <point x="480" y="-193"/>
      <point x="603" y="-155"/>
      <point x="682" y="-72" type="curve"/>
      <point x="678" y="-65"/>
      <point x="671" y="-55"/>
      <point x="664" y="-49" type="curve"/>
      <point x="591" y="-116"/>
      <point x="486" y="-151"/>
      <point x="394" y="-151" type="curve" smooth="yes"/>
      <point x="226" y="-151"/>
      <point x="110" y="-35"/>
      <point x="110" y="149" type="curve" smooth="yes"/>
      <point x="110" y="382"/>
      <point x="295" y="583"/>
      <point x="522" y="583" type="curve" smooth="yes"/>
      <point x="686" y="583"/>
      <point x="788" y="478"/>
      <point x="788" y="329" type="curve" smooth="yes"/>
      <point x="788" y="202"/>
      <point x="714" y="33"/>
      <point x="608" y="33" type="curve" smooth="yes"/>
      <point x="575" y="33"/>
      <point x="571" y="49"/>
      <point x="571" y="71" type="curve" smooth="yes"/>
      <point x="571" y="97"/>
      <point x="577" y="124"/>
      <point x="583" y="150" type="curve" smooth="yes"/>
      <point x="620" y="309" type="line" smooth="yes"/>
      <point x="629" y="348"/>
      <point x="641" y="394"/>
      <point x="653" y="437" type="curve"/>
      <point x="650" y="441" type="line"/>
      <point x="560" y="422" type="line"/>
      <point x="493" y="140" type="line"/>
    </contour>
    <contour>
      <point x="512" y="220" type="line"/>
      <point x="487" y="113"/>
      <point x="413" y="57"/>
      <point x="376" y="57" type="curve" smooth="yes"/>
      <point x="353" y="57"/>
      <point x="325" y="78"/>
      <point x="325" y="154" type="curve" smooth="yes"/>
      <point x="325" y="256"/>
      <point x="374" y="403"/>
      <point x="462" y="403" type="curve" smooth="yes"/>
      <point x="487" y="403"/>
      <point x="522" y="391"/>
      <point x="562" y="350" type="curve"/>
      <point x="578" y="420" type="line"/>
      <point x="549" y="437"/>
      <point x="517" y="446"/>
      <point x="487" y="446" type="curve" smooth="yes"/>
      <point x="348" y="446"/>
      <point x="229" y="264"/>
      <point x="229" y="121" type="curve" smooth="yes"/>
      <point x="229" y="29"/>
      <point x="278" y="-8"/>
      <point x="334" y="-8" type="curve" smooth="yes"/>
      <point x="397" y="-8"/>
      <point x="444" y="38"/>
      <point x="492" y="107" type="curve"/>
      <point x="532" y="98" type="line"/>
    </contour>
  </outline>
</glyph>
<glyph name="B" format="2">
  <advance width="626"/>
  <unicode hex="0042"/>
  <outline>
    <contour>
      <point x="293" y="-3" type="curve" smooth="yes"/>
      <point x="418" y="-3"/>
      <point x="575" y="42"/>
      <point x="575" y="196" type="curve" smooth="yes"/>
      <point x="575" y="310"/>
      <point x="490" y="353"/>
      <point x="411" y="364" type="curve"/>
      <point x="411" y="366" type="line"/>
      <point x="502" y="387"/>
      <point x="599" y="434"/>
      <point x="599" y="548" type="curve" smooth="yes"/>
      <point x="599" y="670"/>
      <point x="488" y="700"/>
      <point x="378" y="700" type="curve" smooth="yes"/>
      <point x="358" y="700"/>
      <point x="282" y="699"/>
      <point x="256" y="699" type="curve" smooth="yes"/>
      <point x="220" y="699"/>
      <point x="149" y="701"/>
      <point x="111" y="701" type="curve"/>
      <point x="108" y="690"/>
      <point x="106" y="679"/>
      <point x="105" y="669" type="curve"/>
      <point x="174" y="664"/>
      <point x="192" y="663"/>
      <point x="192" y="633" type="curve" smooth="yes"/>
      <point x="192" y="621"/>
      <point x="189" y="606"/>
      <point x="184" y="581" type="curve" smooth="yes"/>
      <point x="92" y="107" type="line" smooth="yes"/>
      <point x="79" y="38"/>
      <point x="73" y="41"/>
      <point x="-12" y="31" type="curve"/>
      <point x="-16" y="21"/>
      <point x="-17" y="8"/>
      <point x="-17" y="-1" type="curve"/>
      <point x="17" y="-1"/>
      <point x="97" y="1"/>
      <point x="133" y="1" type="curve" smooth="yes"/>
      <point x="183" y="1"/>
      <point x="256" y="-3"/>
    </contour>
    <contour>
      <point x="313" y="681" type="line"/>
      <point x="285" y="656" type="line"/>
      <point x="318" y="659"/>
      <point x="345" y="659"/>
      <point x="358" y="659" type="curve" smooth="yes"/>
      <point x="430" y="659"/>
      <point x="486" y="630"/>
      <point x="486" y="540" type="curve" smooth="yes"/>
      <point x="486" y="444"/>
      <point x="423" y="380"/>
      <point x="307" y="380" type="curve" smooth="yes"/>
      <point x="293" y="380"/>
      <point x="260" y="380"/>
      <point x="235" y="383" type="curve"/>
      <point x="226" y="336" type="line"/>
      <point x="252" y="340"/>
      <point x="283" y="340"/>
      <point x="295" y="340" type="curve" smooth="yes"/>
      <point x="391" y="340"/>
      <point x="457" y="308"/>
      <point x="457" y="202" type="curve" smooth="yes"/>
      <point x="457" y="101"/>
      <point x="396" y="37"/>
      <point x="291" y="37" type="curve" smooth="yes"/>
      <point x="259" y="37"/>
      <point x="194" y="43"/>
      <point x="167" y="54" type="curve"/>
      <point x="184" y="13" type="line"/>
    </contour>
  </outline>
</glyph>
<glyph name="C" format="2">
  <advance width="704"/>
  <unicode hex="0043"/>
  <outline>
    <contour>
      <point x="359" y="-14" type="curve" smooth="yes"/>
      <point x="436" y="-14"/>
      <point x="517" y="5"/>
      <point x="599" y="28" type="curve"/>
      <point x="610" y="89"/>
      <point x="622" y="148"/>
      <point x="640" y="205" type="curve"/>
      <point x="629" y="206"/>
      <point x="613" y="206"/>
      <point x="603" y="206" type="curve"/>
      <point x="559" y="85"/>
      <point x="469" y="27"/>
      <point x="365" y="27" type="curve" smooth="yes"/>
      <point x="234" y="27"/>
      <point x="178" y="120"/>
      <point x="178" y="263" type="curve" smooth="yes"/>
      <point x="178" y="433"/>
      <point x="254" y="670"/>
      <point x="472" y="670" type="curve" smooth="yes"/>
      <point x="586" y="670"/>
      <point x="640" y="609"/>
      <point x="647" y="492" type="curve"/>
      <point x="659" y="492"/>
      <point x="670" y="492"/>
      <point x="682" y="494" type="curve"/>
      <point x="688" y="562"/>
      <point x="696" y="623"/>
      <point x="704" y="681" type="curve"/>
      <point x="697" y="679"/>
      <point x="685" y="678"/>
      <point x="677" y="678" type="curve" smooth="yes"/>
      <point x="632" y="678"/>
      <point x="567" y="711"/>
      <point x="466" y="711" type="curve" smooth="yes"/>
      <point x="230" y="711"/>
      <point x="58" y="531"/>
      <point x="58" y="291" type="curve" smooth="yes"/>
      <point x="58" y="97"/>
      <point x="173" y="-14"/>
    </contour>
  </outline>
</glyph>
<glyph name="D" format="2">
  <advance width="758"/>
  <unicode hex="0044"/>
  <outline>
    <contour>
      <point x="-17" y="-1" type="curve"/>
      <point x="22" y="-1"/>
      <point x="98" y="1"/>
      <point x="141" y="1" type="curve" smooth="yes"/>
      <point x="183" y="1"/>
      <point x="235" y="-1"/>
      <point x="267" y="-1" type="curve" smooth="yes"/>
      <point x="529" y="-1"/>
      <point x="727" y="143"/>
      <point x="727" y="415" type="curve" smooth="yes"/>
      <point x="727" y="616"/>
      <point x="592" y="701"/>
      <point x="395" y="701" type="curve" smooth="yes"/>
      <point x="365" y="701"/>
      <point x="274" y="699"/>
      <point x="246" y="699" type="curve" smooth="yes"/>
      <point x="219" y="699"/>
      <point x="147" y="701"/>
      <point x="111" y="701" type="curve"/>
      <point x="108" y="690"/>
      <point x="106" y="680"/>
      <point x="105" y="669" type="curve"/>
      <point x="174" y="665"/>
      <point x="192" y="664"/>
      <point x="192" y="634" type="curve" smooth="yes"/>
      <point x="192" y="622"/>
      <point x="189" y="606"/>
      <point x="184" y="581" type="curve" smooth="yes"/>
      <point x="92" y="107" type="line" smooth="yes"/>
      <point x="79" y="38"/>
      <point x="70" y="39"/>
      <point x="-12" y="31" type="curve"/>
      <point x="-16" y="21"/>
      <point x="-17" y="8"/>
    </contour>
    <contour>
      <point x="188" y="30" type="line"/>
      <point x="314" y="683" type="line"/>
      <point x="286" y="656" type="line"/>
      <point x="299" y="658"/>
      <point x="324" y="660"/>
      <point x="349" y="660" type="curve" smooth="yes"/>
      <point x="516" y="660"/>
      <point x="608" y="569"/>
      <point x="608" y="401" type="curve" smooth="yes"/>
      <point x="608" y="257"/>
      <point x="541" y="40"/>
      <point x="275" y="40" type="curve" smooth="yes"/>
      <point x="239" y="40"/>
      <point x="202" y="44"/>
      <point x="159" y="54" type="curve"/>
    </contour>
  </outline>
</glyph>
<glyph name="E" format="2">
  <advance width="621"/>
  <unicode hex="0045"/>
  <outline>
    <contour>
      <point x="-17" y="-1" type="curve"/>
      <point x="21" y="-1"/>
      <point x="83" y="1"/>
      <point x="121" y="1" type="curve" smooth="yes"/>
      <point x="250" y="1"/>
      <point x="385" y="0"/>
      <point x="516" y="0" type="curve"/>
      <point x="527" y="41"/>
      <point x="544" y="99"/>
      <point x="573" y="178" type="curve"/>
      <point x="561" y="181"/>
      <point x="547" y="181"/>
      <point x="535" y="178" type="curve"/>
      <point x="480" y="77"/>
      <point x="449" y="43"/>
      <point x="335" y="43" type="curve" smooth="yes"/>
      <point x="164" y="43" type="line"/>
      <point x="188" y="18" type="line"/>
      <point x="317" y="683" type="line"/>
      <point x="289" y="658" type="line"/>
      <point x="446" y="658" type="line" smooth="yes"/>
      <point x="544" y="658"/>
      <point x="555" y="636"/>
      <point x="585" y="542" type="curve"/>
      <point x="594" y="540"/>
      <point x="605" y="540"/>
      <point x="615" y="542" type="curve"/>
      <point x="615" y="584"/>
      <point x="614" y="621"/>
      <point x="614" y="657" type="curve" smooth="yes"/>
      <point x="614" y="701" type="line"/>
      <point x="577" y="699"/>
      <point x="519" y="699"/>
      <point x="438" y="699" type="curve" smooth="yes"/>
      <point x="301" y="699" type="line" smooth="yes"/>
      <point x="234" y="699"/>
      <point x="149" y="701"/>
      <point x="112" y="701" type="curve"/>
      <point x="107" y="689"/>
      <point x="106" y="679"/>
      <point x="105" y="669" type="curve"/>
      <point x="174" y="664"/>
      <point x="192" y="663"/>
      <point x="192" y="633" type="curve" smooth="yes"/>
      <point x="192" y="622"/>
      <point x="189" y="605"/>
      <point x="184" y="581" type="curve" smooth="yes"/>
      <point x="92" y="107" type="line" smooth="yes"/>
      <point x="79" y="39"/>
      <point x="74" y="39"/>
      <point x="-12" y="31" type="curve"/>
      <point x="-16" y="21"/>
      <point x="-17" y="8"/>
    </contour>
    <contour>
      <point x="404" y="230" type="curve"/>
      <point x="415" y="228"/>
      <point x="430" y="228"/>
      <point x="442" y="230" type="curve"/>
      <point x="447" y="272"/>
      <point x="456" y="322"/>
      <point x="464" y="361" type="curve" smooth="yes"/>
      <point x="472" y="399"/>
      <point x="485" y="451"/>
      <point x="494" y="487" type="curve"/>
      <point x="483" y="489"/>
      <point x="469" y="489"/>
      <point x="457" y="487" type="curve"/>
      <point x="423" y="389"/>
      <point x="415" y="385"/>
      <point x="320" y="385" type="curve" smooth="yes"/>
      <point x="229" y="385" type="line"/>
      <point x="220" y="342" type="line"/>
      <point x="311" y="342" type="line" smooth="yes"/>
      <point x="384" y="342"/>
      <point x="407" y="340"/>
      <point x="407" y="273" type="curve" smooth="yes"/>
      <point x="407" y="262"/>
      <point x="406" y="245"/>
    </contour>
  </outline>
</glyph>
<glyph name="F" format="2">
  <advance width="586"/>
  <unicode hex="0046"/>
  <outline>
    <contour>
      <point x="-17" y="-1" type="curve"/>
      <point x="20" y="-1"/>
      <point x="92" y="1"/>
      <point x="137" y="1" type="curve" smooth="yes"/>
      <point x="183" y="1"/>
      <point x="239" y="-1"/>
      <point x="289" y="-1" type="curve"/>
      <point x="292" y="8"/>
      <point x="294" y="21"/>
      <point x="295" y="31" type="curve"/>
      <point x="215" y="40"/>
      <point x="196" y="38"/>
      <point x="196" y="67" type="curve" smooth="yes"/>
      <point x="196" y="80"/>
      <point x="201" y="96"/>
      <point x="205" y="119" type="curve" smooth="yes"/>
      <point x="314" y="679" type="line"/>
      <point x="277" y="658" type="line"/>
      <point x="454" y="658" type="line" smooth="yes"/>
      <point x="553" y="658"/>
      <point x="561" y="634"/>
      <point x="592" y="535" type="curve"/>
      <point x="602" y="533"/>
      <point x="611" y="533"/>
      <point x="622" y="535" type="curve"/>
      <point x="620" y="577"/>
      <point x="620" y="616"/>
      <point x="620" y="654" type="curve" smooth="yes"/>
      <point x="620" y="670"/>
      <point x="620" y="680"/>
      <point x="621" y="701" type="curve"/>
      <point x="584" y="699"/>
      <point x="527" y="699"/>
      <point x="445" y="699" type="curve" smooth="yes"/>
      <point x="249" y="699" type="line" smooth="yes"/>
      <point x="213" y="699"/>
      <point x="150" y="701"/>
      <point x="111" y="701" type="curve"/>
      <point x="108" y="690"/>
      <point x="106" y="679"/>
      <point x="105" y="669" type="curve"/>
      <point x="174" y="665"/>
      <point x="192" y="664"/>
      <point x="192" y="633" type="curve" smooth="yes"/>
      <point x="192" y="621"/>
      <point x="189" y="606"/>
      <point x="184" y="581" type="curve" smooth="yes"/>
      <point x="92" y="107" type="line" smooth="yes"/>
      <point x="79" y="41"/>
      <point x="77" y="39"/>
      <point x="-12" y="31" type="curve"/>
      <point x="-16" y="21"/>
      <point x="-17" y="8"/>
    </contour>
    <contour>
      <point x="414" y="219" type="curve"/>
      <point x="425" y="217"/>
      <point x="438" y="217"/>
      <point x="450" y="219" type="curve"/>
      <point x="455" y="261"/>
      <point x="464" y="311"/>
      <point x="472" y="350" type="curve" smooth="yes"/>
      <point x="480" y="391"/>
      <point x="493" y="440"/>
      <point x="502" y="476" type="curve"/>
      <point x="491" y="478"/>
      <point x="477" y="478"/>
      <point x="465" y="476" type="curve"/>
      <point x="431" y="378"/>
      <point x="422" y="374"/>
      <point x="327" y="374" type="curve" smooth="yes"/>
      <point x="224" y="374" type="line"/>
      <point x="216" y="331" type="line"/>
      <point x="318" y="331" type="line" smooth="yes"/>
      <point x="391" y="331"/>
      <point x="417" y="329"/>
      <point x="417" y="262" type="curve" smooth="yes"/>
      <point x="417" y="251"/>
      <point x="416" y="234"/>
    </contour>
  </outline>
</glyph>
<glyph name="G" format="2">
  <advance width="773"/>
  <unicode hex="0047"/>
  <outline>
    <contour>
      <point x="368" y="-15" type="curve" smooth="yes"/>
      <point x="449" y="-15"/>
      <point x="538" y="5"/>
      <point x="618" y="31" type="curve"/>
      <point x="622" y="67"/>
      <point x="629" y="104"/>
      <point x="639" y="157" type="curve" smooth="yes"/>
      <point x="659" y="263"/>
      <point x="664" y="263"/>
      <point x="747" y="271" type="curve"/>
      <point x="752" y="281"/>
      <point x="753" y="291"/>
      <point x="753" y="301" type="curve"/>
      <point x="719" y="301"/>
      <point x="663" y="299"/>
      <point x="626" y="299" type="curve" smooth="yes"/>
      <point x="589" y="299"/>
      <point x="501" y="301"/>
      <point x="457" y="301" type="curve"/>
      <point x="453" y="289"/>
      <point x="451" y="279"/>
      <point x="450" y="270" type="curve"/>
      <point x="525" y="265"/>
      <point x="543" y="260"/>
      <point x="543" y="229" type="curve" smooth="yes"/>
      <point x="543" y="214"/>
      <point x="539" y="194"/>
      <point x="535" y="175" type="curve" smooth="yes"/>
      <point x="507" y="30" type="line"/>
      <point x="559" y="80" type="line"/>
      <point x="500" y="45"/>
      <point x="438" y="28"/>
      <point x="376" y="28" type="curve" smooth="yes"/>
      <point x="234" y="28"/>
      <point x="178" y="116"/>
      <point x="178" y="268" type="curve" smooth="yes"/>
      <point x="178" y="459"/>
      <point x="266" y="670"/>
      <point x="478" y="670" type="curve" smooth="yes"/>
      <point x="589" y="670"/>
      <point x="652" y="613"/>
      <point x="668" y="493" type="curve"/>
      <point x="680" y="492"/>
      <point x="691" y="492"/>
      <point x="704" y="495" type="curve"/>
      <point x="712" y="563"/>
      <point x="718" y="624"/>
      <point x="726" y="681" type="curve"/>
      <point x="718" y="679"/>
      <point x="708" y="678"/>
      <point x="699" y="678" type="curve" smooth="yes"/>
      <point x="643" y="678"/>
      <point x="586" y="711"/>
      <point x="477" y="711" type="curve" smooth="yes"/>
      <point x="211" y="711"/>
      <point x="58" y="513"/>
      <point x="58" y="289" type="curve" smooth="yes"/>
      <point x="58" y="92"/>
      <point x="177" y="-15"/>
    </contour>
  </outline>
</glyph>
<glyph name="I" format="2">
  <advance width="360"/>
  <unicode hex="0049"/>
  <outline>
    <contour>
      <point x="-12" y="-1" type="curve"/>
      <point x="25" y="-1"/>
      <point x="90" y="1"/>
      <point x="139" y="1" type="curve" smooth="yes"/>
      <point x="185" y="1"/>
      <point x="240" y="-1"/>
      <point x="279" y="-1" type="curve"/>
      <point x="282" y="8"/>
      <point x="284" y="21"/>
      <point x="285" y="31" type="curve"/>
      <point x="216" y="36"/>
      <point x="201" y="38"/>
      <point x="201" y="67" type="curve" smooth="yes"/>
      <point x="201" y="80"/>
      <point x="205" y="95"/>
      <point x="210" y="119" type="curve" smooth="yes"/>
      <point x="302" y="593" type="line" smooth="yes"/>
      <point x="315" y="661"/>
      <point x="318" y="661"/>
      <point x="404" y="669" type="curve"/>
      <point x="408" y="679"/>
      <point x="410" y="691"/>
      <point x="410" y="701" type="curve"/>
      <point x="372" y="701"/>
      <point x="313" y="699"/>
      <point x="268" y="699" type="curve" smooth="yes"/>
      <point x="219" y="699"/>
      <point x="154" y="701"/>
      <point x="116" y="701" type="curve"/>
      <point x="113" y="690"/>
      <point x="111" y="679"/>
      <point x="110" y="669" type="curve"/>
      <point x="179" y="664"/>
      <point x="197" y="663"/>
      <point x="197" y="633" type="curve" smooth="yes"/>
      <point x="197" y="621"/>
      <point x="194" y="605"/>
      <point x="189" y="581" type="curve" smooth="yes"/>
      <point x="97" y="107" type="line" smooth="yes"/>
      <point x="84" y="40"/>
      <point x="79" y="39"/>
      <point x="-7" y="31" type="curve"/>
      <point x="-11" y="21"/>
      <point x="-12" y="8"/>
    </contour>
  </outline>
</glyph>
<glyph name="J" format="2">
  <advance width="328"/>
  <unicode hex="004A"/>
  <outline>
    <contour>
      <point x="-110" y="-242" type="curve" smooth="yes"/>
      <point x="-51" y="-242"/>
      <point x="17" y="-217"/>
      <point x="70" y="-164" type="curve" smooth="yes"/>
      <point x="118" y="-116"/>
      <point x="161" y="-38"/>
      <point x="181" y="65" type="curve" smooth="yes"/>
      <point x="284" y="593" type="line" smooth="yes"/>
      <point x="297" y="661"/>
      <point x="300" y="661"/>
      <point x="387" y="669" type="curve"/>
      <point x="391" y="679"/>
      <point x="393" y="691"/>
      <point x="393" y="701" type="curve"/>
      <point x="355" y="701"/>
      <point x="297" y="699"/>
      <point x="250" y="699" type="curve" smooth="yes"/>
      <point x="201" y="699"/>
      <point x="133" y="701"/>
      <point x="98" y="701" type="curve"/>
      <point x="95" y="690"/>
      <point x="93" y="679"/>
      <point x="92" y="669" type="curve"/>
      <point x="161" y="664"/>
      <point x="179" y="663"/>
      <point x="179" y="633" type="curve" smooth="yes"/>
      <point x="179" y="621"/>
      <point x="176" y="605"/>
      <point x="171" y="581" type="curve" smooth="yes"/>
      <point x="62" y="18" type="line" smooth="yes"/>
      <point x="38" y="-105"/>
      <point x="-3" y="-197"/>
      <point x="-82" y="-196" type="curve"/>
      <point x="-41" y="-226" type="line"/>
      <point x="-53" y="-162"/>
      <point x="-97" y="-124"/>
      <point x="-134" y="-124" type="curve" smooth="yes"/>
      <point x="-179" y="-124"/>
      <point x="-199" y="-152"/>
      <point x="-199" y="-183" type="curve" smooth="yes"/>
      <point x="-199" y="-216"/>
      <point x="-165" y="-242"/>
    </contour>
  </outline>
</glyph>
<glyph name="K" format="2">
  <advance width="690"/>
  <unicode hex="004B"/>
  <outline>
    <contour>
      <point x="-17" y="-1" type="curve"/>
      <point x="20" y="-1"/>
      <point x="85" y="1"/>
      <point x="134" y="1" type="curve" smooth="yes"/>
      <point x="180" y="1"/>
      <point x="235" y="-1"/>
      <point x="274" y="-1" type="curve"/>
      <point x="277" y="8"/>
      <point x="279" y="21"/>
      <point x="280" y="31" type="curve"/>
      <point x="211" y="36"/>
      <point x="196" y="38"/>
      <point x="196" y="67" type="curve" smooth="yes"/>
      <point x="196" y="80"/>
      <point x="201" y="96"/>
      <point x="205" y="119" type="curve" smooth="yes"/>
      <point x="297" y="593" type="line" smooth="yes"/>
      <point x="310" y="661"/>
      <point x="313" y="662"/>
      <point x="399" y="669" type="curve"/>
      <point x="403" y="679"/>
      <point x="405" y="691"/>
      <point x="405" y="701" type="curve"/>
      <point x="367" y="701"/>
      <point x="308" y="699"/>
      <point x="263" y="699" type="curve" smooth="yes"/>
      <point x="214" y="699"/>
      <point x="149" y="701"/>
      <point x="111" y="701" type="curve"/>
      <point x="108" y="690"/>
      <point x="106" y="679"/>
      <point x="105" y="669" type="curve"/>
      <point x="174" y="664"/>
      <point x="192" y="663"/>
      <point x="192" y="633" type="curve" smooth="yes"/>
      <point x="192" y="621"/>
      <point x="189" y="605"/>
      <point x="184" y="581" type="curve" smooth="yes"/>
      <point x="92" y="107" type="line" smooth="yes"/>
      <point x="79" y="39"/>
      <point x="74" y="39"/>
      <point x="-12" y="31" type="curve"/>
      <point x="-16" y="21"/>
      <point x="-17" y="8"/>
    </contour>
    <contour>
      <point x="456" y="0" type="curve"/>
      <point x="475" y="0"/>
      <point x="492" y="1"/>
      <point x="507" y="1" type="curve" smooth="yes"/>
      <point x="558" y="1"/>
      <point x="610" y="0"/>
      <point x="652" y="0" type="curve"/>
      <point x="656" y="9"/>
      <point x="658" y="21"/>
      <point x="658" y="31" type="curve"/>
      <point x="569" y="37"/>
      <point x="565" y="45"/>
      <point x="516" y="130" type="curve" smooth="yes"/>
      <point x="462" y="223"/>
      <point x="417" y="305"/>
      <point x="352" y="412" type="curve"/>
      <point x="272" y="337" type="line"/>
      <point x="343" y="220"/>
      <point x="403" y="113"/>
    </contour>
    <contour>
      <point x="203" y="240" type="line"/>
      <point x="236" y="273"/>
      <point x="298" y="336"/>
      <point x="353" y="386" type="curve" smooth="yes"/>
      <point x="506" y="526" type="line" smooth="yes"/>
      <point x="613" y="623"/>
      <point x="659" y="666"/>
      <point x="737" y="669" type="curve"/>
      <point x="741" y="680"/>
      <point x="743" y="690"/>
      <point x="743" y="701" type="curve"/>
      <point x="709" y="701"/>
      <point x="676" y="699"/>
      <point x="633" y="699" type="curve" smooth="yes"/>
      <point x="594" y="699"/>
      <point x="527" y="700"/>
      <point x="494" y="701" type="curve"/>
      <point x="490" y="690"/>
      <point x="489" y="679"/>
      <point x="488" y="669" type="curve"/>
      <point x="543" y="665"/>
      <point x="551" y="657"/>
      <point x="551" y="644" type="curve" smooth="yes"/>
      <point x="551" y="633"/>
      <point x="529" y="606"/>
      <point x="484" y="564" type="curve" smooth="yes"/>
      <point x="217" y="315" type="line"/>
    </contour>
  </outline>
</glyph>
<glyph name="L" format="2">
  <advance width="587"/>
  <unicode hex="004C"/>
  <outline>
    <contour>
      <point x="-12" y="-1" type="curve"/>
      <point x="25" y="-1"/>
      <point x="91" y="1"/>
      <point x="149" y="1" type="curve" smooth="yes"/>
      <point x="274" y="1"/>
      <point x="385" y="0"/>
      <point x="510" y="0" type="curve"/>
      <point x="523" y="43"/>
      <point x="544" y="111"/>
      <point x="573" y="191" type="curve"/>
      <point x="563" y="193"/>
      <point x="547" y="193"/>
      <point x="536" y="191" type="curve"/>
      <point x="479" y="88"/>
      <point x="449" y="42"/>
      <point x="339" y="42" type="curve" smooth="yes"/>
      <point x="169" y="42" type="line"/>
      <point x="192" y="27" type="line"/>
      <point x="302" y="593" type="line" smooth="yes"/>
      <point x="315" y="662"/>
      <point x="326" y="663"/>
      <point x="412" y="670" type="curve"/>
      <point x="416" y="680"/>
      <point x="418" y="691"/>
      <point x="418" y="701" type="curve"/>
      <point x="380" y="701"/>
      <point x="314" y="699"/>
      <point x="268" y="699" type="curve" smooth="yes"/>
      <point x="219" y="699"/>
      <point x="154" y="701"/>
      <point x="116" y="701" type="curve"/>
      <point x="113" y="690"/>
      <point x="111" y="679"/>
      <point x="110" y="669" type="curve"/>
      <point x="179" y="664"/>
      <point x="197" y="663"/>
      <point x="197" y="633" type="curve" smooth="yes"/>
      <point x="197" y="621"/>
      <point x="194" y="605"/>
      <point x="189" y="581" type="curve" smooth="yes"/>
      <point x="97" y="107" type="line" smooth="yes"/>
      <point x="84" y="39"/>
      <point x="79" y="39"/>
      <point x="-7" y="31" type="curve"/>
      <point x="-11" y="21"/>
      <point x="-12" y="8"/>
    </contour>
  </outline>
</glyph>
<glyph name="M" format="2">
  <advance width="938"/>
  <unicode hex="004D"/>
  <outline>
    <contour>
      <point x="363" y="-3" type="line"/>
      <point x="378" y="-4"/>
      <point x="407" y="-2"/>
      <point x="416" y="1" type="curve"/>
      <point x="790" y="674" type="line"/>
      <point x="778" y="674" type="line"/>
      <point x="671" y="111" type="line" smooth="yes"/>
      <point x="658" y="45"/>
      <point x="658" y="40"/>
      <point x="573" y="30" type="curve"/>
      <point x="569" y="20"/>
      <point x="569" y="9"/>
      <point x="569" y="0" type="curve"/>
      <point x="608" y="0"/>
      <point x="667" y="1"/>
      <point x="703" y="1" type="curve" smooth="yes"/>
      <point x="755" y="1"/>
      <point x="823" y="0"/>
      <point x="864" y="0" type="curve"/>
      <point x="868" y="9"/>
      <point x="869" y="21"/>
      <point x="870" y="31" type="curve"/>
      <point x="797" y="36"/>
      <point x="778" y="39"/>
      <point x="778" y="68" type="curve" smooth="yes"/>
      <point x="778" y="82"/>
      <point x="778" y="97"/>
      <point x="783" y="123" type="curve" smooth="yes"/>
      <point x="874" y="589" type="line" smooth="yes"/>
      <point x="888" y="659"/>
      <point x="890" y="659"/>
      <point x="974" y="669" type="curve"/>
      <point x="979" y="679"/>
      <point x="980" y="690"/>
      <point x="980" y="701" type="curve"/>
      <point x="939" y="701"/>
      <point x="898" y="699"/>
      <point x="841" y="699" type="curve" smooth="yes"/>
      <point x="820" y="699"/>
      <point x="780" y="699"/>
      <point x="752" y="700" type="curve"/>
      <point x="422" y="106" type="line"/>
      <point x="453" y="106" type="line"/>
      <point x="340" y="700" type="line"/>
      <point x="326" y="699"/>
      <point x="271" y="699"/>
      <point x="232" y="699" type="curve" smooth="yes"/>
      <point x="203" y="699"/>
      <point x="149" y="701"/>
      <point x="111" y="701" type="curve"/>
      <point x="107" y="689"/>
      <point x="106" y="679"/>
      <point x="106" y="669" type="curve"/>
      <point x="171" y="664"/>
      <point x="194" y="656"/>
      <point x="194" y="625" type="curve" smooth="yes"/>
      <point x="194" y="613"/>
      <point x="192" y="601"/>
      <point x="187" y="577" type="curve" smooth="yes"/>
      <point x="91" y="111" type="line" smooth="yes"/>
      <point x="77" y="41"/>
      <point x="74" y="40"/>
      <point x="-5" y="30" type="curve"/>
      <point x="-9" y="20"/>
      <point x="-10" y="9"/>
      <point x="-10" y="0" type="curve"/>
      <point x="28" y="0"/>
      <point x="80" y="1"/>
      <point x="109" y="1" type="curve" smooth="yes"/>
      <point x="138" y="1"/>
      <point x="189" y="0"/>
      <point x="219" y="0" type="curve"/>
      <point x="222" y="9"/>
      <point x="222" y="21"/>
      <point x="223" y="31" type="curve"/>
      <point x="156" y="36"/>
      <point x="138" y="42"/>
      <point x="138" y="72" type="curve" smooth="yes"/>
      <point x="138" y="86"/>
      <point x="140" y="99"/>
      <point x="145" y="123" type="curve" smooth="yes"/>
      <point x="254" y="647" type="line"/>
      <point x="239" y="647" type="line"/>
    </contour>
  </outline>
</glyph>
<glyph name="N" format="2">
  <advance width="764"/>
  <unicode hex="004E"/>
  <outline>
    <contour>
      <point x="547" y="-6" type="line"/>
      <point x="562" y="-6"/>
      <point x="585" y="-5"/>
      <point x="599" y="-2" type="curve"/>
      <point x="715" y="589" type="line" smooth="yes"/>
      <point x="729" y="661"/>
      <point x="735" y="662"/>
      <point x="826" y="670" type="curve"/>
      <point x="830" y="681"/>
      <point x="831" y="690"/>
      <point x="832" y="701" type="curve"/>
      <point x="791" y="701"/>
      <point x="740" y="699"/>
      <point x="707" y="699" type="curve" smooth="yes"/>
      <point x="677" y="699"/>
      <point x="619" y="701"/>
      <point x="589" y="701" type="curve"/>
      <point x="586" y="689"/>
      <point x="583" y="680"/>
      <point x="582" y="669" type="curve"/>
      <point x="653" y="665"/>
      <point x="668" y="662"/>
      <point x="668" y="629" type="curve" smooth="yes"/>
      <point x="668" y="618"/>
      <point x="665" y="600"/>
      <point x="660" y="576" type="curve" smooth="yes"/>
      <point x="568" y="103" type="line"/>
      <point x="595" y="132" type="line"/>
      <point x="282" y="700" type="line"/>
      <point x="267" y="699"/>
      <point x="237" y="699"/>
      <point x="226" y="699" type="curve" smooth="yes"/>
      <point x="197" y="699"/>
      <point x="145" y="701"/>
      <point x="105" y="701" type="curve"/>
      <point x="102" y="689"/>
      <point x="100" y="678"/>
      <point x="99" y="667" type="curve"/>
      <point x="170" y="663"/>
      <point x="186" y="660"/>
      <point x="186" y="628" type="curve" smooth="yes"/>
      <point x="186" y="617"/>
      <point x="183" y="601"/>
      <point x="178" y="576" type="curve" smooth="yes"/>
      <point x="88" y="111" type="line" smooth="yes"/>
      <point x="74" y="40"/>
      <point x="67" y="39"/>
      <point x="-21" y="31" type="curve"/>
      <point x="-25" y="21"/>
      <point x="-26" y="9"/>
      <point x="-27" y="0" type="curve"/>
      <point x="12" y="0"/>
      <point x="66" y="1"/>
      <point x="100" y="1" type="curve" smooth="yes"/>
      <point x="128" y="1"/>
      <point x="185" y="0"/>
      <point x="216" y="0" type="curve"/>
      <point x="218" y="9"/>
      <point x="220" y="22"/>
      <point x="220" y="32" type="curve"/>
      <point x="148" y="37"/>
      <point x="136" y="40"/>
      <point x="136" y="70" type="curve" smooth="yes"/>
      <point x="136" y="84"/>
      <point x="139" y="107"/>
      <point x="142" y="123" type="curve" smooth="yes"/>
      <point x="239" y="622" type="line"/>
      <point x="212" y="601" type="line"/>
    </contour>
  </outline>
</glyph>
<glyph name="O" format="2">
  <advance width="788"/>
  <unicode hex="004F"/>
  <outline>
    <contour>
      <point x="757" y="412" type="curve" smooth="yes"/>
      <point x="757" y="586"/>
      <point x="661" y="711"/>
      <point x="459" y="711" type="curve" smooth="yes"/>
      <point x="181" y="711"/>
      <point x="58" y="474"/>
      <point x="58" y="290" type="curve" smooth="yes"/>
      <point x="58" y="149"/>
      <point x="131" y="-14"/>
      <point x="357" y="-14" type="curve" smooth="yes"/>
      <point x="619" y="-14"/>
      <point x="757" y="203"/>
    </contour>
    <contour>
      <point x="637" y="433" type="curve" smooth="yes"/>
      <point x="637" y="240"/>
      <point x="542" y="26"/>
      <point x="357" y="26" type="curve" smooth="yes"/>
      <point x="232" y="26"/>
      <point x="178" y="123"/>
      <point x="178" y="268" type="curve" smooth="yes"/>
      <point x="178" y="470"/>
      <point x="283" y="670"/>
      <point x="462" y="670" type="curve" smooth="yes"/>
      <point x="584" y="670"/>
      <point x="637" y="577"/>
    </contour>
  </outline>
</glyph>
<glyph name="P" format="2">
  <advance width="584"/>
  <unicode hex="0050"/>
  <outline>
    <contour>
      <point x="234" y="329" type="line"/>
      <point x="278" y="315"/>
      <point x="314" y="312"/>
      <point x="343" y="312" type="curve" smooth="yes"/>
      <point x="518" y="312"/>
      <point x="600" y="418"/>
      <point x="600" y="532" type="curve" smooth="yes"/>
      <point x="600" y="646"/>
      <point x="517" y="700"/>
      <point x="368" y="700" type="curve" smooth="yes"/>
      <point x="348" y="700"/>
      <point x="283" y="699"/>
      <point x="262" y="699" type="curve" smooth="yes"/>
      <point x="232" y="699"/>
      <point x="150" y="701"/>
      <point x="111" y="701" type="curve"/>
      <point x="108" y="689"/>
      <point x="106" y="679"/>
      <point x="105" y="669" type="curve"/>
      <point x="174" y="664"/>
      <point x="192" y="663"/>
      <point x="192" y="634" type="curve" smooth="yes"/>
      <point x="192" y="622"/>
      <point x="189" y="606"/>
      <point x="184" y="581" type="curve" smooth="yes"/>
      <point x="92" y="107" type="line" smooth="yes"/>
      <point x="79" y="42"/>
      <point x="76" y="39"/>
      <point x="-12" y="31" type="curve"/>
      <point x="-16" y="21"/>
      <point x="-17" y="8"/>
      <point x="-17" y="-1" type="curve"/>
      <point x="22" y="-1"/>
      <point x="94" y="1"/>
      <point x="136" y="1" type="curve" smooth="yes"/>
      <point x="166" y="1"/>
      <point x="241" y="0"/>
      <point x="289" y="0" type="curve"/>
      <point x="293" y="9"/>
      <point x="295" y="21"/>
      <point x="295" y="31" type="curve"/>
      <point x="212" y="36"/>
      <point x="196" y="37"/>
      <point x="196" y="65" type="curve" smooth="yes"/>
      <point x="196" y="79"/>
      <point x="200" y="99"/>
      <point x="205" y="123" type="curve" smooth="yes"/>
      <point x="314" y="680" type="line"/>
      <point x="283" y="657" type="line"/>
      <point x="310" y="660"/>
      <point x="320" y="662"/>
      <point x="340" y="662" type="curve" smooth="yes"/>
      <point x="446" y="662"/>
      <point x="484" y="602"/>
      <point x="484" y="525" type="curve" smooth="yes"/>
      <point x="484" y="421"/>
      <point x="416" y="352"/>
      <point x="321" y="352" type="curve" smooth="yes"/>
      <point x="302" y="352"/>
      <point x="267" y="355"/>
      <point x="243" y="367" type="curve"/>
    </contour>
  </outline>
</glyph>
<glyph name="R" format="2">
  <advance width="664"/>
  <unicode hex="0052"/>
  <outline>
    <contour>
      <point x="225" y="324" type="line"/>
      <point x="297" y="320"/>
      <point x="302" y="314"/>
      <point x="323" y="277" type="curve" smooth="yes"/>
      <point x="372" y="191"/>
      <point x="420" y="81"/>
      <point x="452" y="0" type="curve"/>
      <point x="473" y="0"/>
      <point x="482" y="1"/>
      <point x="503" y="1" type="curve" smooth="yes"/>
      <point x="533" y="1"/>
      <point x="603" y="-1"/>
      <point x="636" y="-1" type="curve"/>
      <point x="640" y="8"/>
      <point x="643" y="21"/>
      <point x="643" y="31" type="curve"/>
      <point x="577" y="36"/>
      <point x="560" y="41"/>
      <point x="516" y="130" type="curve" smooth="yes"/>
      <point x="490" y="183"/>
      <point x="454" y="257"/>
      <point x="437" y="287" type="curve" smooth="yes"/>
      <point x="421" y="315"/>
      <point x="409" y="329"/>
      <point x="388" y="351" type="curve"/>
      <point x="388" y="323" type="line"/>
      <point x="406" y="323" type="line"/>
      <point x="406" y="334" type="line"/>
      <point x="522" y="367"/>
      <point x="603" y="437"/>
      <point x="603" y="545" type="curve" smooth="yes"/>
      <point x="603" y="651"/>
      <point x="527" y="701"/>
      <point x="385" y="701" type="curve" smooth="yes"/>
      <point x="357" y="701"/>
      <point x="269" y="699"/>
      <point x="237" y="699" type="curve" smooth="yes"/>
      <point x="206" y="699"/>
      <point x="150" y="701"/>
      <point x="111" y="701" type="curve"/>
      <point x="108" y="690"/>
      <point x="106" y="680"/>
      <point x="105" y="669" type="curve"/>
      <point x="174" y="664"/>
      <point x="192" y="663"/>
      <point x="192" y="633" type="curve" smooth="yes"/>
      <point x="192" y="621"/>
      <point x="189" y="605"/>
      <point x="184" y="581" type="curve" smooth="yes"/>
      <point x="92" y="107" type="line" smooth="yes"/>
      <point x="79" y="40"/>
      <point x="75" y="40"/>
      <point x="-11" y="31" type="curve"/>
      <point x="-15" y="21"/>
      <point x="-16" y="8"/>
      <point x="-16" y="-1" type="curve"/>
      <point x="39" y="0"/>
      <point x="87" y="1"/>
      <point x="132" y="1" type="curve" smooth="yes"/>
      <point x="177" y="1"/>
      <point x="232" y="0"/>
      <point x="274" y="-1" type="curve"/>
      <point x="277" y="8"/>
      <point x="279" y="21"/>
      <point x="280" y="31" type="curve"/>
      <point x="211" y="36"/>
      <point x="197" y="38"/>
      <point x="197" y="65" type="curve" smooth="yes"/>
      <point x="197" y="80"/>
      <point x="201" y="96"/>
      <point x="205" y="119" type="curve" smooth="yes"/>
      <point x="314" y="682" type="line"/>
      <point x="292" y="657" type="line"/>
      <point x="307" y="658"/>
      <point x="354" y="662"/>
      <point x="371" y="662" type="curve" smooth="yes"/>
      <point x="467" y="662"/>
      <point x="489" y="595"/>
      <point x="489" y="535" type="curve" smooth="yes"/>
      <point x="489" y="439"/>
      <point x="433" y="359"/>
      <point x="308" y="359" type="curve" smooth="yes"/>
      <point x="281" y="359"/>
      <point x="251" y="363"/>
      <point x="234" y="367" type="curve"/>
    </contour>
  </outline>
</glyph>
<glyph name="S" format="2">
  <advance width="539"/>
  <unicode hex="0053"/>
  <outline>
    <contour>
      <point x="531" y="696" type="curve"/>
      <point x="524" y="694"/>
      <point x="511" y="693"/>
      <point x="503" y="693" type="curve" smooth="yes"/>
      <point x="471" y="693"/>
      <point x="429" y="711"/>
      <point x="356" y="711" type="curve" smooth="yes"/>
      <point x="203" y="711"/>
      <point x="96" y="632"/>
      <point x="96" y="508" type="curve" smooth="yes"/>
      <point x="96" y="403"/>
      <point x="172" y="360"/>
      <point x="246" y="318" type="curve" smooth="yes"/>
      <point x="359" y="254"/>
      <point x="386" y="223"/>
      <point x="386" y="158" type="curve" smooth="yes"/>
      <point x="386" y="65"/>
      <point x="310" y="26"/>
      <point x="234" y="26" type="curve" smooth="yes"/>
      <point x="136" y="26"/>
      <point x="74" y="86"/>
      <point x="74" y="193" type="curve" smooth="yes"/>
      <point x="74" y="196"/>
      <point x="74" y="200"/>
      <point x="75" y="210" type="curve"/>
      <point x="64" y="211"/>
      <point x="53" y="211"/>
      <point x="42" y="209" type="curve"/>
      <point x="29" y="131"/>
      <point x="16" y="66"/>
      <point x="3" y="10" type="curve"/>
      <point x="9" y="11"/>
      <point x="18" y="11"/>
      <point x="28" y="11" type="curve" smooth="yes"/>
      <point x="99" y="11"/>
      <point x="151" y="-14"/>
      <point x="231" y="-14" type="curve" smooth="yes"/>
      <point x="380" y="-14"/>
      <point x="484" y="72"/>
      <point x="484" y="200" type="curve" smooth="yes"/>
      <point x="484" y="313"/>
      <point x="404" y="358"/>
      <point x="327" y="401" type="curve" smooth="yes"/>
      <point x="251" y="443"/>
      <point x="201" y="471"/>
      <point x="201" y="542" type="curve" smooth="yes"/>
      <point x="201" y="622"/>
      <point x="265" y="673"/>
      <point x="347" y="673" type="curve" smooth="yes"/>
      <point x="448" y="673"/>
      <point x="469" y="594"/>
      <point x="472" y="508" type="curve"/>
      <point x="484" y="508"/>
      <point x="495" y="508"/>
      <point x="507" y="510" type="curve"/>
      <point x="513" y="578"/>
      <point x="523" y="638"/>
    </contour>
  </outline>
</glyph>
<glyph name="T" format="2">
  <advance width="662"/>
  <unicode hex="0054"/>
  <outline>
    <contour>
      <point x="128" y="-1" type="curve"/>
      <point x="165" y="-1"/>
      <point x="235" y="1"/>
      <point x="284" y="1" type="curve" smooth="yes"/>
      <point x="330" y="1"/>
      <point x="390" y="-1"/>
      <point x="429" y="-1" type="curve"/>
      <point x="432" y="8"/>
      <point x="434" y="21"/>
      <point x="435" y="31" type="curve"/>
      <point x="362" y="36"/>
      <point x="346" y="38"/>
      <point x="346" y="67" type="curve" smooth="yes"/>
      <point x="346" y="80"/>
      <point x="350" y="95"/>
      <point x="355" y="119" type="curve" smooth="yes"/>
      <point x="464" y="677" type="line"/>
      <point x="353" y="677" type="line"/>
      <point x="242" y="107" type="line" smooth="yes"/>
      <point x="229" y="40"/>
      <point x="224" y="39"/>
      <point x="133" y="31" type="curve"/>
      <point x="129" y="21"/>
      <point x="128" y="8"/>
    </contour>
    <contour>
      <point x="72" y="528" type="curve"/>
      <point x="82" y="526"/>
      <point x="98" y="526"/>
      <point x="109" y="528" type="curve"/>
      <point x="170" y="638"/>
      <point x="180" y="657"/>
      <point x="292" y="657" type="curve" smooth="yes"/>
      <point x="544" y="657" type="line" smooth="yes"/>
      <point x="628" y="657"/>
      <point x="642" y="637"/>
      <point x="664" y="528" type="curve"/>
      <point x="673" y="526"/>
      <point x="689" y="526"/>
      <point x="699" y="528" type="curve"/>
      <point x="699" y="580"/>
      <point x="699" y="631"/>
      <point x="703" y="701" type="curve"/>
      <point x="624" y="698"/>
      <point x="573" y="697"/>
      <point x="419" y="697" type="curve" smooth="yes"/>
      <point x="251" y="697"/>
      <point x="203" y="698"/>
      <point x="122" y="701" type="curve"/>
      <point x="105" y="643"/>
      <point x="90" y="585"/>
    </contour>
  </outline>
</glyph>
<glyph name="U" format="2">
  <advance width="738"/>
  <unicode hex="0055"/>
  <outline>
    <contour>
      <point x="346" y="-11" type="curve" smooth="yes"/>
      <point x="516" y="-11"/>
      <point x="598" y="89"/>
      <point x="630" y="248" type="curve" smooth="yes"/>
      <point x="699" y="589" type="line" smooth="yes"/>
      <point x="714" y="661"/>
      <point x="717" y="661"/>
      <point x="803" y="670" type="curve"/>
      <point x="808" y="680"/>
      <point x="810" y="691"/>
      <point x="810" y="701" type="curve"/>
      <point x="770" y="701"/>
      <point x="719" y="699"/>
      <point x="690" y="699" type="curve" smooth="yes"/>
      <point x="660" y="699"/>
      <point x="604" y="701"/>
      <point x="573" y="701" type="curve"/>
      <point x="570" y="690"/>
      <point x="568" y="679"/>
      <point x="567" y="669" type="curve"/>
      <point x="639" y="664"/>
      <point x="653" y="662"/>
      <point x="653" y="629" type="curve" smooth="yes"/>
      <point x="653" y="612"/>
      <point x="649" y="594"/>
      <point x="645" y="573" type="curve" smooth="yes"/>
      <point x="579" y="243" type="line" smooth="yes"/>
      <point x="556" y="128"/>
      <point x="496" y="42"/>
      <point x="369" y="42" type="curve" smooth="yes"/>
      <point x="280" y="42"/>
      <point x="209" y="80"/>
      <point x="209" y="187" type="curve" smooth="yes"/>
      <point x="209" y="205"/>
      <point x="211" y="232"/>
      <point x="219" y="272" type="curve" smooth="yes"/>
      <point x="281" y="593" type="line" smooth="yes"/>
      <point x="294" y="660"/>
      <point x="297" y="661"/>
      <point x="383" y="669" type="curve"/>
      <point x="386" y="679"/>
      <point x="389" y="691"/>
      <point x="389" y="701" type="curve"/>
      <point x="350" y="701"/>
      <point x="289" y="699"/>
      <point x="253" y="699" type="curve" smooth="yes"/>
      <point x="216" y="699"/>
      <point x="135" y="701"/>
      <point x="96" y="701" type="curve"/>
      <point x="93" y="690"/>
      <point x="91" y="679"/>
      <point x="90" y="669" type="curve"/>
      <point x="162" y="665"/>
      <point x="177" y="663"/>
      <point x="177" y="634" type="curve" smooth="yes"/>
      <point x="177" y="621"/>
      <point x="174" y="605"/>
      <point x="169" y="581" type="curve" smooth="yes"/>
      <point x="107" y="255" type="line" smooth="yes"/>
      <point x="100" y="219"/>
      <point x="99" y="201"/>
      <point x="99" y="190" type="curve" smooth="yes"/>
      <point x="99" y="86"/>
      <point x="178" y="-11"/>
    </contour>
  </outline>
</glyph>
<glyph name="V" format="2">
  <advance width="654"/>
  <unicode hex="0056"/>
  <outline>
    <contour>
      <point x="248" y="-7" type="line"/>
      <point x="263" y="-6"/>
      <point x="280" y="-4"/>
      <point x="299" y="0" type="curve"/>
      <point x="595" y="516" type="line"/>
      <point x="677" y="660"/>
      <point x="685" y="662"/>
      <point x="764" y="670" type="curve"/>
      <point x="768" y="680"/>
      <point x="770" y="691"/>
      <point x="770" y="701" type="curve"/>
      <point x="730" y="700"/>
      <point x="700" y="699"/>
      <point x="662" y="699" type="curve" smooth="yes"/>
      <point x="632" y="699"/>
      <point x="563" y="700"/>
      <point x="535" y="701" type="curve"/>
      <point x="531" y="691"/>
      <point x="529" y="679"/>
      <point x="529" y="669" type="curve"/>
      <point x="583" y="663"/>
      <point x="599" y="661"/>
      <point x="599" y="641" type="curve" smooth="yes"/>
      <point x="599" y="627"/>
      <point x="587" y="598"/>
      <point x="569" y="566" type="curve" smooth="yes"/>
      <point x="310" y="108" type="line"/>
      <point x="330" y="108" type="line"/>
      <point x="252" y="567" type="line" smooth="yes"/>
      <point x="247" y="598"/>
      <point x="245" y="612"/>
      <point x="245" y="621" type="curve" smooth="yes"/>
      <point x="245" y="652"/>
      <point x="259" y="662"/>
      <point x="330" y="669" type="curve"/>
      <point x="334" y="679"/>
      <point x="335" y="691"/>
      <point x="336" y="701" type="curve"/>
      <point x="282" y="700"/>
      <point x="211" y="699"/>
      <point x="172" y="699" type="curve" smooth="yes"/>
      <point x="128" y="699"/>
      <point x="79" y="700"/>
      <point x="47" y="701" type="curve"/>
      <point x="43" y="691"/>
      <point x="41" y="679"/>
      <point x="41" y="669" type="curve"/>
      <point x="116" y="661"/>
      <point x="125" y="661"/>
      <point x="143" y="564" type="curve" smooth="yes"/>
    </contour>
  </outline>
</glyph>
<glyph name="W" format="2">
  <advance width="983"/>
  <unicode hex="0057"/>
  <outline>
    <contour>
      <point x="298" y="103" type="line"/>
      <point x="325" y="103" type="line"/>
      <point x="261" y="567" type="line" smooth="yes"/>
      <point x="257" y="599"/>
      <point x="256" y="612"/>
      <point x="256" y="619" type="curve" smooth="yes"/>
      <point x="256" y="661"/>
      <point x="265" y="662"/>
      <point x="336" y="669" type="curve"/>
      <point x="340" y="679"/>
      <point x="341" y="691"/>
      <point x="342" y="701" type="curve"/>
      <point x="288" y="700"/>
      <point x="222" y="699"/>
      <point x="183" y="699" type="curve" smooth="yes"/>
      <point x="139" y="699"/>
      <point x="90" y="700"/>
      <point x="58" y="701" type="curve"/>
      <point x="54" y="691"/>
      <point x="52" y="679"/>
      <point x="52" y="669" type="curve"/>
      <point x="127" y="661"/>
      <point x="137" y="660"/>
      <point x="152" y="564" type="curve" smooth="yes"/>
      <point x="240" y="-7" type="line"/>
      <point x="255" y="-6"/>
      <point x="273" y="-3"/>
      <point x="292" y="1" type="curve"/>
      <point x="360" y="113"/>
      <point x="455" y="274"/>
      <point x="530" y="402" type="curve"/>
      <point x="519" y="473" type="line"/>
    </contour>
    <contour>
      <point x="652" y="103" type="line"/>
      <point x="590" y="556" type="line" smooth="yes"/>
      <point x="586" y="588"/>
      <point x="584" y="612"/>
      <point x="584" y="619" type="curve" smooth="yes"/>
      <point x="584" y="661"/>
      <point x="600" y="662"/>
      <point x="671" y="669" type="curve"/>
      <point x="675" y="679"/>
      <point x="676" y="691"/>
      <point x="677" y="701" type="curve"/>
      <point x="623" y="700"/>
      <point x="557" y="699"/>
      <point x="518" y="699" type="curve" smooth="yes"/>
      <point x="474" y="699"/>
      <point x="425" y="700"/>
      <point x="393" y="701" type="curve"/>
      <point x="389" y="691"/>
      <point x="387" y="679"/>
      <point x="387" y="669" type="curve"/>
      <point x="462" y="661"/>
      <point x="468" y="661"/>
      <point x="482" y="564" type="curve" smooth="yes"/>
      <point x="567" y="-7" type="line"/>
      <point x="582" y="-6"/>
      <point x="600" y="-3"/>
      <point x="619" y="1" type="curve"/>
      <point x="709" y="151"/>
      <point x="836" y="385"/>
      <point x="913" y="516" type="curve" smooth="yes"/>
      <point x="998" y="660"/>
      <point x="1008" y="662"/>
      <point x="1087" y="670" type="curve"/>
      <point x="1091" y="680"/>
      <point x="1093" y="691"/>
      <point x="1093" y="701" type="curve"/>
      <point x="1053" y="700"/>
      <point x="1021" y="699"/>
      <point x="983" y="699" type="curve" smooth="yes"/>
      <point x="953" y="699"/>
      <point x="878" y="700"/>
      <point x="850" y="701" type="curve"/>
      <point x="846" y="691"/>
      <point x="844" y="679"/>
      <point x="844" y="669" type="curve"/>
      <point x="898" y="663"/>
      <point x="917" y="661"/>
      <point x="917" y="641" type="curve" smooth="yes"/>
      <point x="917" y="627"/>
      <point x="903" y="598"/>
      <point x="885" y="566" type="curve" smooth="yes"/>
      <point x="625" y="103" type="line"/>
    </contour>
  </outline>
</glyph>
<glyph name="X" format="2">
  <advance width="634"/>
  <unicode hex="0058"/>
  <outline>
    <contour>
      <point x="306" y="0" type="curve"/>
      <point x="348" y="0"/>
      <point x="410" y="1"/>
      <point x="464" y="1" type="curve" smooth="yes"/>
      <point x="513" y="1"/>
      <point x="560" y="0"/>
      <point x="608" y="0" type="curve"/>
      <point x="611" y="9"/>
      <point x="613" y="21"/>
      <point x="614" y="31" type="curve"/>
      <point x="543" y="38"/>
      <point x="524" y="48"/>
      <point x="487" y="134" type="curve" smooth="yes"/>
      <point x="287" y="597" type="line" smooth="yes"/>
      <point x="278" y="617"/>
      <point x="276" y="623"/>
      <point x="276" y="634" type="curve" smooth="yes"/>
      <point x="276" y="656"/>
      <point x="303" y="664"/>
      <point x="354" y="669" type="curve"/>
      <point x="359" y="679"/>
      <point x="360" y="691"/>
      <point x="360" y="701" type="curve"/>
      <point x="313" y="701"/>
      <point x="270" y="699"/>
      <point x="226" y="699" type="curve" smooth="yes"/>
      <point x="178" y="699"/>
      <point x="111" y="701"/>
      <point x="64" y="701" type="curve"/>
      <point x="59" y="691"/>
      <point x="58" y="680"/>
      <point x="58" y="669" type="curve"/>
      <point x="129" y="663"/>
      <point x="144" y="653"/>
      <point x="175" y="582" type="curve" smooth="yes"/>
      <point x="383" y="101" type="line" smooth="yes"/>
      <point x="391" y="83"/>
      <point x="394" y="70"/>
      <point x="394" y="62" type="curve" smooth="yes"/>
      <point x="394" y="39"/>
      <point x="365" y="36"/>
      <point x="311" y="30" type="curve"/>
      <point x="307" y="20"/>
      <point x="306" y="9"/>
    </contour>
    <contour>
      <point x="-85" y="0" type="curve"/>
      <point x="-52" y="0"/>
      <point x="-10" y="1"/>
      <point x="23" y="1" type="curve" smooth="yes"/>
      <point x="51" y="1"/>
      <point x="144" y="0"/>
      <point x="172" y="0" type="curve"/>
      <point x="175" y="9"/>
      <point x="176" y="21"/>
      <point x="176" y="31" type="curve"/>
      <point x="115" y="35"/>
      <point x="103" y="44"/>
      <point x="103" y="61" type="curve" smooth="yes"/>
      <point x="103" y="73"/>
      <point x="112" y="85"/>
      <point x="130" y="105" type="curve" smooth="yes"/>
      <point x="315" y="312" type="line"/>
      <point x="294" y="357" type="line"/>
      <point x="99" y="141" type="line" smooth="yes"/>
      <point x="15" y="48"/>
      <point x="-20" y="37"/>
      <point x="-80" y="31" type="curve"/>
      <point x="-84" y="21"/>
      <point x="-85" y="10"/>
    </contour>
    <contour>
      <point x="549" y="559" type="line" smooth="yes"/>
      <point x="633" y="651"/>
      <point x="668" y="663"/>
      <point x="728" y="669" type="curve"/>
      <point x="732" y="679"/>
      <point x="733" y="690"/>
      <point x="733" y="700" type="curve"/>
      <point x="700" y="700"/>
      <point x="658" y="699"/>
      <point x="625" y="699" type="curve" smooth="yes"/>
      <point x="597" y="699"/>
      <point x="504" y="700"/>
      <point x="476" y="700" type="curve"/>
      <point x="473" y="691"/>
      <point x="472" y="679"/>
      <point x="472" y="669" type="curve"/>
      <point x="533" y="665"/>
      <point x="545" y="656"/>
      <point x="545" y="639" type="curve" smooth="yes"/>
      <point x="545" y="627"/>
      <point x="536" y="615"/>
      <point x="518" y="595" type="curve" smooth="yes"/>
      <point x="348" y="405" type="line"/>
      <point x="366" y="357" type="line"/>
    </contour>
  </outline>
</glyph>
<glyph name="Y" format="2">
  <advance width="602"/>
  <unicode hex="0059"/>
  <outline>
    <contour>
      <point x="517" y="591" type="line" smooth="yes"/>
      <point x="535" y="617"/>
      <point x="540" y="628"/>
      <point x="540" y="640" type="curve" smooth="yes"/>
      <point x="540" y="657"/>
      <point x="524" y="664"/>
      <point x="462" y="669" type="curve"/>
      <point x="463" y="680"/>
      <point x="465" y="689"/>
      <point x="469" y="701" type="curve"/>
      <point x="502" y="700"/>
      <point x="565" y="699"/>
      <point x="597" y="699" type="curve" smooth="yes"/>
      <point x="639" y="699"/>
      <point x="676" y="700"/>
      <point x="718" y="701" type="curve"/>
      <point x="716" y="691"/>
      <point x="714" y="679"/>
      <point x="711" y="669" type="curve"/>
      <point x="633" y="661"/>
      <point x="620" y="655"/>
      <point x="551" y="559" type="curve" smooth="yes"/>
      <point x="352" y="283" type="line"/>
      <point x="251" y="274" type="line"/>
      <point x="151" y="567" type="line" smooth="yes"/>
      <point x="121" y="656"/>
      <point x="113" y="663"/>
      <point x="45" y="669" type="curve"/>
      <point x="45" y="679"/>
      <point x="47" y="690"/>
      <point x="50" y="701" type="curve"/>
      <point x="98" y="699"/>
      <point x="142" y="699"/>
      <point x="191" y="699" type="curve" smooth="yes"/>
      <point x="241" y="699"/>
      <point x="301" y="701"/>
      <point x="339" y="701" type="curve"/>
      <point x="339" y="691"/>
      <point x="337" y="679"/>
      <point x="332" y="669" type="curve"/>
      <point x="261" y="663"/>
      <point x="247" y="653"/>
      <point x="247" y="634" type="curve" smooth="yes"/>
      <point x="247" y="623"/>
      <point x="251" y="609"/>
      <point x="261" y="580" type="curve" smooth="yes"/>
      <point x="351" y="318" type="line"/>
      <point x="323" y="318" type="line"/>
    </contour>
    <contour>
      <point x="361" y="301" type="line"/>
      <point x="325" y="119" type="line" smooth="yes"/>
      <point x="320" y="95"/>
      <point x="316" y="80"/>
      <point x="316" y="67" type="curve" smooth="yes"/>
      <point x="316" y="38"/>
      <point x="332" y="36"/>
      <point x="405" y="31" type="curve"/>
      <point x="404" y="21"/>
      <point x="402" y="8"/>
      <point x="399" y="-1" type="curve"/>
      <point x="360" y="-1"/>
      <point x="300" y="1"/>
      <point x="254" y="1" type="curve" smooth="yes"/>
      <point x="205" y="1"/>
      <point x="135" y="-1"/>
      <point x="98" y="-1" type="curve"/>
      <point x="98" y="8"/>
      <point x="99" y="21"/>
      <point x="103" y="31" type="curve"/>
      <point x="194" y="39"/>
      <point x="199" y="40"/>
      <point x="212" y="107" type="curve" smooth="yes"/>
      <point x="250" y="301" type="line"/>
    </contour>
  </outline>
</glyph>
<glyph name="Z" format="2">
  <advance width="629"/>
  <unicode hex="005A"/>
  <outline>
    <contour>
      <point x="-22" y="19" type="line"/>
      <point x="-22" y="12"/>
      <point x="-20" y="4"/>
      <point x="-19" y="-1" type="curve"/>
      <point x="69" y="0"/>
      <point x="163" y="1"/>
      <point x="251" y="1" type="curve" smooth="yes"/>
      <point x="279" y="1"/>
      <point x="390" y="0"/>
      <point x="520" y="0" type="curve"/>
      <point x="531" y="45"/>
      <point x="548" y="109"/>
      <point x="578" y="192" type="curve"/>
      <point x="568" y="194"/>
      <point x="553" y="194"/>
      <point x="542" y="192" type="curve"/>
      <point x="484" y="85"/>
      <point x="460" y="43"/>
      <point x="346" y="43" type="curve" smooth="yes"/>
      <point x="101" y="43" type="line"/>
      <point x="122" y="28" type="line"/>
      <point x="667" y="676" type="line"/>
      <point x="667" y="685"/>
      <point x="666" y="693"/>
      <point x="664" y="700" type="curve"/>
      <point x="568" y="697"/>
      <point x="482" y="697"/>
      <point x="385" y="697" type="curve" smooth="yes"/>
      <point x="268" y="697"/>
      <point x="222" y="699"/>
      <point x="140" y="701" type="curve"/>
      <point x="126" y="641"/>
      <point x="112" y="581"/>
      <point x="95" y="521" type="curve"/>
      <point x="105" y="520"/>
      <point x="121" y="520"/>
      <point x="132" y="521" type="curve"/>
      <point x="188" y="636"/>
      <point x="205" y="657"/>
      <point x="306" y="657" type="curve" smooth="yes"/>
      <point x="536" y="657" type="line"/>
      <point x="528" y="673" type="line"/>
    </contour>
  </outline>
</glyph>
<glyph name="bracketleft" format="2">
  <advance width="409"/>
  <unicode hex="005B"/>
  <outline>
    <contour>
      <point x="339" y="-183" type="line"/>
      <point x="339" y="-140" type="line"/>
      <point x="182" y="-140" type="line"/>
      <point x="182" y="710" type="line"/>
      <point x="339" y="710" type="line"/>
      <point x="339" y="753" type="line"/>
      <point x="110" y="753" type="line"/>
      <point x="110" y="-183" type="line"/>
    </contour>
  </outline>
</glyph>
<glyph name="backslash" format="2">
  <advance width="380"/>
  <unicode hex="005C"/>
  <outline>
    <contour>
      <point x="282" y="-177" type="line"/>
      <point x="344" y="-177" type="line"/>
      <point x="146" y="748" type="line"/>
      <point x="87" y="748" type="line"/>
    </contour>
  </outline>
</glyph>
<glyph name="asciicircum" format="2">
  <advance width="584"/>
  <unicode hex="005E"/>
  <outline>
    <contour>
      <point x="317" y="653" type="line"/>
      <point x="305" y="653" type="line"/>
      <point x="484" y="327" type="line"/>
      <point x="498" y="333"/>
      <point x="514" y="341"/>
      <point x="528" y="348" type="curve"/>
      <point x="330" y="710" type="line"/>
      <point x="319" y="711"/>
      <point x="303" y="712"/>
      <point x="292" y="711" type="curve"/>
      <point x="94" y="348" type="line"/>
      <point x="107" y="341"/>
      <point x="124" y="333"/>
      <point x="138" y="327" type="curve"/>
    </contour>
  </outline>
</glyph>
<glyph name="underscore" format="2">
  <advance width="400"/>
  <unicode hex="005F"/>
  <outline>
    <contour>
      <point x="373" y="-133" type="line"/>
      <point x="373" y="-88" type="line"/>
      <point x="-97" y="-88" type="line"/>
      <point x="-97" y="-133" type="line"/>
    </contour>
  </outline>
</glyph>
<glyph name="a" format="2">
  <advance width="551"/>
  <unicode hex="0061"/>
  <outline>
    <contour>
      <point x="140" y="-11" type="curve" smooth="yes"/>
      <point x="199" y="-11"/>
      <point x="256" y="29"/>
      <point x="306" y="115" type="curve"/>
      <point x="338" y="115" type="line"/>
      <point x="352" y="309" type="line"/>
      <point x="308" y="123"/>
      <point x="231" y="52"/>
      <point x="180" y="52" type="curve" smooth="yes"/>
      <point x="151" y="52"/>
      <point x="126" y="75"/>
      <point x="126" y="155" type="curve" smooth="yes"/>
      <point x="126" y="272"/>
      <point x="181" y="435"/>
      <point x="281" y="435" type="curve" smooth="yes"/>
      <point x="319" y="435"/>
      <point x="357" y="411"/>
      <point x="389" y="376" type="curve"/>
      <point x="405" y="453" type="line"/>
      <point x="368" y="473"/>
      <point x="332" y="480"/>
      <point x="305" y="480" type="curve" smooth="yes"/>
      <point x="174" y="480"/>
      <point x="19" y="328"/>
      <point x="19" y="147" type="curve" smooth="yes"/>
      <point x="19" y="36"/>
      <point x="77" y="-11"/>
    </contour>
    <contour>
      <point x="369" y="-12" type="curve" smooth="yes"/>
      <point x="434" y="-12"/>
      <point x="485" y="33"/>
      <point x="530" y="93" type="curve"/>
      <point x="523" y="101"/>
      <point x="516" y="107"/>
      <point x="507" y="113" type="curve"/>
      <point x="479" y="78"/>
      <point x="440" y="51"/>
      <point x="417" y="51" type="curve" smooth="yes"/>
      <point x="403" y="51"/>
      <point x="399" y="60"/>
      <point x="399" y="72" type="curve" smooth="yes"/>
      <point x="399" y="85"/>
      <point x="404" y="102"/>
      <point x="406" y="111" type="curve" smooth="yes"/>
      <point x="452" y="309" type="line" smooth="yes"/>
      <point x="464" y="361"/>
      <point x="475" y="409"/>
      <point x="491" y="465" type="curve"/>
      <point x="488" y="469" type="line"/>
      <point x="455" y="463"/>
      <point x="423" y="459"/>
      <point x="394" y="456" type="curve"/>
      <point x="381" y="428" type="line"/>
      <point x="352" y="309" type="line"/>
      <point x="317" y="133" type="line"/>
      <point x="306" y="103"/>
      <point x="300" y="76"/>
      <point x="300" y="53" type="curve" smooth="yes"/>
      <point x="300" y="15"/>
      <point x="320" y="-12"/>
    </contour>
  </outline>
</glyph>
<glyph name="b" format="2">
  <advance width="542"/>
  <unicode hex="0062"/>
  <outline>
    <contour>
      <point x="179" y="242" type="line"/>
      <point x="196" y="323"/>
      <point x="273" y="417"/>
      <point x="336" y="417" type="curve" smooth="yes"/>
      <point x="373" y="417"/>
      <point x="394" y="384"/>
      <point x="394" y="314" type="curve" smooth="yes"/>
      <point x="394" y="208"/>
      <point x="347" y="32"/>
      <point x="237" y="32" type="curve" smooth="yes"/>
      <point x="201" y="32"/>
      <point x="164" y="52"/>
      <point x="130" y="83" type="curve"/>
      <point x="39" y="46" type="line"/>
      <point x="93" y="11"/>
      <point x="165" y="-11"/>
      <point x="220" y="-11" type="curve" smooth="yes"/>
      <point x="360" y="-11"/>
      <point x="502" y="154"/>
      <point x="502" y="321" type="curve" smooth="yes"/>
      <point x="502" y="416"/>
      <point x="456" y="480"/>
      <point x="381" y="480" type="curve" smooth="yes"/>
      <point x="314" y="480"/>
      <point x="253" y="431"/>
      <point x="204" y="364" type="curve"/>
      <point x="179" y="364" type="line"/>
    </contour>
    <contour>
      <point x="196" y="348" type="line"/>
      <point x="215" y="424" type="line"/>
      <point x="244" y="565" type="line" smooth="yes"/>
      <point x="257" y="630"/>
      <point x="273" y="699"/>
      <point x="286" y="745" type="curve"/>
      <point x="273" y="752" type="line"/>
      <point x="222" y="732"/>
      <point x="150" y="723"/>
      <point x="79" y="718" type="curve"/>
      <point x="77" y="709"/>
      <point x="78" y="700"/>
      <point x="80" y="691" type="curve"/>
      <point x="144" y="690"/>
      <point x="163" y="687"/>
      <point x="163" y="662" type="curve" smooth="yes"/>
      <point x="163" y="652"/>
      <point x="160" y="636"/>
      <point x="156" y="617" type="curve" smooth="yes"/>
      <point x="39" y="46" type="line"/>
      <point x="137" y="36" type="line"/>
      <point x="179" y="242" type="line"/>
    </contour>
  </outline>
</glyph>
<glyph name="c" format="2">
  <advance width="428"/>
  <unicode hex="0063"/>
  <outline>
    <contour>
      <point x="190" y="-12" type="curve" smooth="yes"/>
      <point x="289" y="-12"/>
      <point x="350" y="52"/>
      <point x="389" y="121" type="curve"/>
      <point x="384" y="128"/>
      <point x="375" y="135"/>
      <point x="365" y="140" type="curve"/>
      <point x="329" y="89"/>
      <point x="279" y="56"/>
      <point x="222" y="56" type="curve" smooth="yes"/>
      <point x="152" y="56"/>
      <point x="132" y="106"/>
      <point x="132" y="163" type="curve" smooth="yes"/>
      <point x="132" y="278"/>
      <point x="210" y="445"/>
      <point x="314" y="438" type="curve"/>
      <point x="298" y="457" type="line"/>
      <point x="298" y="383"/>
      <point x="345" y="359"/>
      <point x="377" y="359" type="curve" smooth="yes"/>
      <point x="407" y="359"/>
      <point x="428" y="380"/>
      <point x="428" y="408" type="curve" smooth="yes"/>
      <point x="428" y="449"/>
      <point x="382" y="479"/>
      <point x="319" y="479" type="curve" smooth="yes"/>
      <point x="182" y="479"/>
      <point x="26" y="339"/>
      <point x="26" y="165" type="curve" smooth="yes"/>
      <point x="26" y="57"/>
      <point x="87" y="-12"/>
    </contour>
  </outline>
</glyph>
<glyph name="d" format="2">
  <advance width="556"/>
  <unicode hex="0064"/>
  <outline>
    <contour>
      <point x="344" y="249" type="line"/>
      <point x="321" y="147"/>
      <point x="248" y="52"/>
      <point x="182" y="52" type="curve" smooth="yes"/>
      <point x="147" y="52"/>
      <point x="125" y="78"/>
      <point x="125" y="154" type="curve" smooth="yes"/>
      <point x="125" y="271"/>
      <point x="178" y="435"/>
      <point x="278" y="435" type="curve" smooth="yes"/>
      <point x="304" y="435"/>
      <point x="345" y="423"/>
      <point x="392" y="374" type="curve"/>
      <point x="408" y="450" type="line"/>
      <point x="372" y="473"/>
      <point x="336" y="480"/>
      <point x="304" y="480" type="curve" smooth="yes"/>
      <point x="165" y="480"/>
      <point x="18" y="321"/>
      <point x="18" y="147" type="curve" smooth="yes"/>
      <point x="18" y="38"/>
      <point x="75" y="-11"/>
      <point x="139" y="-11" type="curve" smooth="yes"/>
      <point x="198" y="-11"/>
      <point x="276" y="30"/>
      <point x="346" y="164" type="curve"/>
    </contour>
    <contour>
      <point x="324" y="117" type="line"/>
      <point x="317" y="88"/>
      <point x="313" y="69"/>
      <point x="313" y="51" type="curve" smooth="yes"/>
      <point x="313" y="12"/>
      <point x="331" y="-13"/>
      <point x="379" y="-13" type="curve" smooth="yes"/>
      <point x="443" y="-13"/>
      <point x="495" y="32"/>
      <point x="540" y="92" type="curve"/>
      <point x="533" y="100"/>
      <point x="526" y="106"/>
      <point x="517" y="112" type="curve"/>
      <point x="489" y="77"/>
      <point x="450" y="50"/>
      <point x="427" y="50" type="curve" smooth="yes"/>
      <point x="413" y="50"/>
      <point x="409" y="59"/>
      <point x="409" y="72" type="curve" smooth="yes"/>
      <point x="409" y="84"/>
      <point x="413" y="102"/>
      <point x="415" y="111" type="curve" smooth="yes"/>
      <point x="508" y="565" type="line" smooth="yes"/>
      <point x="523" y="638"/>
      <point x="536" y="695"/>
      <point x="550" y="745" type="curve"/>
      <point x="537" y="752" type="line"/>
      <point x="487" y="732"/>
      <point x="415" y="723"/>
      <point x="343" y="718" type="curve"/>
      <point x="341" y="709"/>
      <point x="342" y="700"/>
      <point x="344" y="691" type="curve"/>
      <point x="408" y="690"/>
      <point x="427" y="687"/>
      <point x="427" y="662" type="curve" smooth="yes"/>
      <point x="427" y="652"/>
      <point x="424" y="636"/>
      <point x="420" y="617" type="curve" smooth="yes"/>
      <point x="344" y="249" type="line"/>
      <point x="318" y="117" type="line"/>
    </contour>
  </outline>
</glyph>
<glyph name="e" format="2">
  <advance width="446"/>
  <unicode hex="0065"/>
  <outline>
    <contour>
      <point x="127" y="219" type="line"/>
      <point x="275" y="233"/>
      <point x="431" y="291"/>
      <point x="431" y="398" type="curve" smooth="yes"/>
      <point x="431" y="448"/>
      <point x="397" y="480"/>
      <point x="322" y="480" type="curve" smooth="yes"/>
      <point x="150" y="480"/>
      <point x="26" y="312"/>
      <point x="26" y="163" type="curve" smooth="yes"/>
      <point x="26" y="56"/>
      <point x="90" y="-12"/>
      <point x="196" y="-12" type="curve" smooth="yes"/>
      <point x="286" y="-12"/>
      <point x="350" y="39"/>
      <point x="396" y="117" type="curve"/>
      <point x="391" y="124"/>
      <point x="382" y="131"/>
      <point x="373" y="136" type="curve"/>
      <point x="334" y="87"/>
      <point x="282" y="53"/>
      <point x="225" y="53" type="curve" smooth="yes"/>
      <point x="160" y="53"/>
      <point x="132" y="95"/>
      <point x="132" y="162" type="curve" smooth="yes"/>
      <point x="132" y="275"/>
      <point x="210" y="438"/>
      <point x="294" y="438" type="curve" smooth="yes"/>
      <point x="323" y="438"/>
      <point x="336" y="418"/>
      <point x="336" y="389" type="curve" smooth="yes"/>
      <point x="336" y="305"/>
      <point x="229" y="263"/>
      <point x="127" y="253" type="curve"/>
    </contour>
  </outline>
</glyph>
<glyph name="f" format="2">
  <advance width="312"/>
  <unicode hex="0066"/>
  <outline>
    <contour>
      <point x="140" y="413" type="line"/>
      <point x="136" y="424" type="line"/>
      <point x="58" y="31" type="line" smooth="yes"/>
      <point x="24" y="-140"/>
      <point x="-6" y="-215"/>
      <point x="-63" y="-215" type="curve"/>
      <point x="-38" y="-240" type="line"/>
      <point x="-48" y="-178"/>
      <point x="-88" y="-148"/>
      <point x="-119" y="-148" type="curve" smooth="yes"/>
      <point x="-144" y="-148"/>
      <point x="-168" y="-166"/>
      <point x="-168" y="-195" type="curve" smooth="yes"/>
      <point x="-168" y="-230"/>
      <point x="-133" y="-255"/>
      <point x="-81" y="-255" type="curve" smooth="yes"/>
      <point x="49" y="-255"/>
      <point x="126" y="-99"/>
      <point x="164" y="80" type="curve" smooth="yes"/>
      <point x="242" y="450" type="line" smooth="yes"/>
      <point x="276" y="609"/>
      <point x="299" y="718"/>
      <point x="377" y="718" type="curve" smooth="yes"/>
      <point x="383" y="718"/>
      <point x="386" y="718"/>
      <point x="391" y="715" type="curve"/>
      <point x="386" y="736" type="line"/>
      <point x="386" y="667"/>
      <point x="426" y="642"/>
      <point x="456" y="642" type="curve" smooth="yes"/>
      <point x="485" y="642"/>
      <point x="505" y="662"/>
      <point x="505" y="689" type="curve" smooth="yes"/>
      <point x="505" y="727"/>
      <point x="460" y="756"/>
      <point x="399" y="756" type="curve" smooth="yes"/>
      <point x="272" y="756"/>
      <point x="183" y="641"/>
      <point x="154" y="507" type="curve" smooth="yes"/>
      <point x="149" y="484"/>
      <point x="146" y="468"/>
      <point x="142" y="461" type="curve" smooth="yes"/>
      <point x="137" y="452"/>
      <point x="123" y="447"/>
      <point x="60" y="436" type="curve"/>
      <point x="57" y="430"/>
      <point x="56" y="422"/>
      <point x="56" y="413" type="curve"/>
    </contour>
    <contour>
      <point x="345" y="413" type="line"/>
      <point x="350" y="426"/>
      <point x="352" y="442"/>
      <point x="352" y="457" type="curve"/>
      <point x="233" y="457" type="line"/>
      <point x="223" y="413" type="line"/>
    </contour>
  </outline>
  <guideline angle="79.0044" x="256" y="0"/>
</glyph>
<glyph name="g" format="2">
  <advance width="512"/>
  <unicode hex="0067"/>
  <outline>
    <contour>
      <point x="424" y="396" type="line"/>
      <point x="490" y="434"/>
      <point x="534" y="469"/>
      <point x="534" y="513" type="curve" smooth="yes"/>
      <point x="534" y="544"/>
      <point x="513" y="559"/>
      <point x="489" y="559" type="curve" smooth="yes"/>
      <point x="460" y="559"/>
      <point x="442" y="536"/>
      <point x="442" y="510" type="curve" smooth="yes"/>
      <point x="442" y="494"/>
      <point x="448" y="477"/>
      <point x="461" y="463" type="curve"/>
      <point x="450" y="448"/>
      <point x="433" y="434"/>
      <point x="407" y="421" type="curve"/>
    </contour>
    <contour>
      <point x="113" y="17" type="line"/>
      <point x="38" y="-20"/>
      <point x="-35" y="-61"/>
      <point x="-35" y="-132" type="curve" smooth="yes"/>
      <point x="-35" y="-217"/>
      <point x="70" y="-255"/>
      <point x="162" y="-255" type="curve" smooth="yes"/>
      <point x="281" y="-255"/>
      <point x="455" y="-191"/>
      <point x="455" y="-75" type="curve" smooth="yes"/>
      <point x="455" y="14"/>
      <point x="353" y="37"/>
      <point x="261" y="52" type="curve" smooth="yes"/>
      <point x="187" y="64"/>
      <point x="119" y="72"/>
      <point x="119" y="106" type="curve" smooth="yes"/>
      <point x="119" y="126"/>
      <point x="143" y="148"/>
      <point x="180" y="169" type="curve"/>
      <point x="147" y="181" type="line"/>
      <point x="70" y="140"/>
      <point x="38" y="108"/>
      <point x="38" y="68" type="curve" smooth="yes"/>
      <point x="38" y="-4"/>
      <point x="141" y="-14"/>
      <point x="232" y="-30" type="curve" smooth="yes"/>
      <point x="303" y="-42"/>
      <point x="367" y="-58"/>
      <point x="367" y="-111" type="curve" smooth="yes"/>
      <point x="367" y="-177"/>
      <point x="267" y="-216"/>
      <point x="190" y="-216" type="curve" smooth="yes"/>
      <point x="123" y="-216"/>
      <point x="55" y="-187"/>
      <point x="55" y="-117" type="curve" smooth="yes"/>
      <point x="55" y="-66"/>
      <point x="90" y="-28"/>
      <point x="151" y="7" type="curve"/>
    </contour>
    <contour>
      <point x="238" y="146" type="curve" smooth="yes"/>
      <point x="360" y="146"/>
      <point x="455" y="227"/>
      <point x="455" y="331" type="curve" smooth="yes"/>
      <point x="455" y="424"/>
      <point x="380" y="480"/>
      <point x="281" y="480" type="curve" smooth="yes"/>
      <point x="158" y="480"/>
      <point x="57" y="395"/>
      <point x="57" y="293" type="curve" smooth="yes"/>
      <point x="57" y="201"/>
      <point x="138" y="146"/>
    </contour>
    <contour>
      <point x="238" y="181" type="curve" smooth="yes"/>
      <point x="173" y="181"/>
      <point x="156" y="239"/>
      <point x="156" y="287" type="curve" smooth="yes"/>
      <point x="156" y="350"/>
      <point x="186" y="448"/>
      <point x="272" y="448" type="curve" smooth="yes"/>
      <point x="341" y="448"/>
      <point x="356" y="387"/>
      <point x="356" y="343" type="curve" smooth="yes"/>
      <point x="356" y="278"/>
      <point x="323" y="181"/>
    </contour>
  </outline>
</glyph>
<glyph name="h" format="2">
  <advance width="576"/>
  <unicode hex="0068"/>
  <outline>
    <contour>
      <point x="192" y="329" type="line"/>
      <point x="212" y="413" type="line"/>
      <point x="244" y="565" type="line" smooth="yes"/>
      <point x="257" y="629"/>
      <point x="270" y="688"/>
      <point x="286" y="745" type="curve"/>
      <point x="273" y="752" type="line"/>
      <point x="223" y="732"/>
      <point x="151" y="723"/>
      <point x="79" y="718" type="curve"/>
      <point x="77" y="709"/>
      <point x="78" y="700"/>
      <point x="80" y="691" type="curve"/>
      <point x="144" y="690"/>
      <point x="163" y="687"/>
      <point x="163" y="662" type="curve" smooth="yes"/>
      <point x="163" y="652"/>
      <point x="160" y="636"/>
      <point x="156" y="617" type="curve" smooth="yes"/>
      <point x="30" y="0" type="line"/>
      <point x="128" y="0" type="line"/>
      <point x="161" y="160" type="line"/>
    </contour>
    <contour>
      <point x="161" y="160" type="line"/>
      <point x="200" y="348"/>
      <point x="301" y="422"/>
      <point x="355" y="422" type="curve" smooth="yes"/>
      <point x="382" y="422"/>
      <point x="394" y="404"/>
      <point x="394" y="377" type="curve" smooth="yes"/>
      <point x="394" y="316"/>
      <point x="321" y="120"/>
      <point x="321" y="53" type="curve" smooth="yes"/>
      <point x="321" y="16"/>
      <point x="343" y="-12"/>
      <point x="393" y="-12" type="curve" smooth="yes"/>
      <point x="456" y="-12"/>
      <point x="508" y="33"/>
      <point x="553" y="93" type="curve"/>
      <point x="546" y="101"/>
      <point x="539" y="107"/>
      <point x="530" y="113" type="curve"/>
      <point x="502" y="78"/>
      <point x="463" y="51"/>
      <point x="440" y="51" type="curve" smooth="yes"/>
      <point x="426" y="51"/>
      <point x="422" y="61"/>
      <point x="422" y="70" type="curve" smooth="yes"/>
      <point x="422" y="111"/>
      <point x="496" y="319"/>
      <point x="496" y="390" type="curve" smooth="yes"/>
      <point x="496" y="441"/>
      <point x="460" y="480"/>
      <point x="398" y="480" type="curve" smooth="yes"/>
      <point x="329" y="480"/>
      <point x="255" y="433"/>
      <point x="201" y="345" type="curve"/>
      <point x="161" y="345" type="line"/>
    </contour>
  </outline>
</glyph>
<glyph name="j" format="2">
  <advance width="283"/>
  <unicode hex="006A"/>
  <outline>
    <contour>
      <point x="-93" y="-255" type="curve"/>
      <point x="32" y="-255"/>
      <point x="112" y="-107"/>
      <point x="162" y="109" type="curve" smooth="yes"/>
      <point x="224" y="376" type="line" smooth="yes"/>
      <point x="228" y="391"/>
      <point x="229" y="408"/>
      <point x="229" y="416" type="curve" smooth="yes"/>
      <point x="229" y="452"/>
      <point x="211" y="478"/>
      <point x="166" y="478" type="curve" smooth="yes"/>
      <point x="117" y="478"/>
      <point x="57" y="447"/>
      <point x="4" y="384" type="curve"/>
      <point x="11" y="376"/>
      <point x="18" y="369"/>
      <point x="27" y="363" type="curve"/>
      <point x="56" y="394"/>
      <point x="89" y="417"/>
      <point x="108" y="417" type="curve" smooth="yes"/>
      <point x="119" y="417"/>
      <point x="127" y="410"/>
      <point x="127" y="393" type="curve" smooth="yes"/>
      <point x="127" y="385"/>
      <point x="125" y="376"/>
      <point x="120" y="355" type="curve" smooth="yes"/>
      <point x="38" y="-3" type="line" smooth="yes"/>
      <point x="5" y="-149"/>
      <point x="-21" y="-215"/>
      <point x="-75" y="-215" type="curve"/>
      <point x="-50" y="-240" type="line"/>
      <point x="-56" y="-193"/>
      <point x="-90" y="-148"/>
      <point x="-131" y="-148" type="curve" smooth="yes"/>
      <point x="-158" y="-148"/>
      <point x="-180" y="-168"/>
      <point x="-180" y="-195" type="curve" smooth="yes"/>
      <point x="-180" y="-231"/>
      <point x="-144" y="-255"/>
    </contour>
    <contour>
      <point x="215" y="594" type="curve" smooth="yes"/>
      <point x="256" y="594"/>
      <point x="286" y="628"/>
      <point x="286" y="668" type="curve" smooth="yes"/>
      <point x="286" y="703"/>
      <point x="263" y="729"/>
      <point x="227" y="729" type="curve" smooth="yes"/>
      <point x="187" y="729"/>
      <point x="154" y="696"/>
      <point x="154" y="656" type="curve" smooth="yes"/>
      <point x="154" y="621"/>
      <point x="179" y="594"/>
    </contour>
  </outline>
</glyph>
<glyph name="k" format="2">
  <advance width="520"/>
  <unicode hex="006B"/>
  <outline>
    <contour>
      <point x="130" y="0" type="line"/>
      <point x="172" y="203" type="line"/>
      <point x="197" y="321" type="line"/>
      <point x="192" y="321" type="line"/>
      <point x="215" y="415" type="line"/>
      <point x="246" y="565" type="line" smooth="yes"/>
      <point x="258" y="625"/>
      <point x="272" y="688"/>
      <point x="288" y="745" type="curve"/>
      <point x="275" y="752" type="line"/>
      <point x="225" y="732"/>
      <point x="153" y="723"/>
      <point x="81" y="718" type="curve"/>
      <point x="79" y="709"/>
      <point x="80" y="700"/>
      <point x="82" y="691" type="curve"/>
      <point x="146" y="690"/>
      <point x="165" y="687"/>
      <point x="165" y="662" type="curve" smooth="yes"/>
      <point x="165" y="652"/>
      <point x="162" y="636"/>
      <point x="158" y="617" type="curve" smooth="yes"/>
      <point x="32" y="0" type="line"/>
    </contour>
    <contour>
      <point x="241" y="213" type="line"/>
      <point x="423" y="275"/>
      <point x="497" y="334"/>
      <point x="497" y="405" type="curve" smooth="yes"/>
      <point x="497" y="443"/>
      <point x="475" y="480"/>
      <point x="412" y="480" type="curve" smooth="yes"/>
      <point x="337" y="480"/>
      <point x="266" y="430"/>
      <point x="201" y="337" type="curve"/>
      <point x="172" y="337" type="line"/>
      <point x="172" y="203" type="line"/>
      <point x="195" y="316"/>
      <point x="306" y="419"/>
      <point x="369" y="419" type="curve" smooth="yes"/>
      <point x="392" y="419"/>
      <point x="400" y="406"/>
      <point x="400" y="387" type="curve" smooth="yes"/>
      <point x="400" y="349"/>
      <point x="369" y="290"/>
      <point x="202" y="232" type="curve"/>
    </contour>
    <contour>
      <point x="345" y="-12" type="curve" smooth="yes"/>
      <point x="392" y="-12"/>
      <point x="448" y="26"/>
      <point x="498" y="93" type="curve"/>
      <point x="491" y="101"/>
      <point x="484" y="107"/>
      <point x="475" y="113" type="curve"/>
      <point x="447" y="80"/>
      <point x="416" y="57"/>
      <point x="392" y="57" type="curve" smooth="yes"/>
      <point x="375" y="57"/>
      <point x="362" y="68"/>
      <point x="296" y="251" type="curve"/>
      <point x="202" y="232" type="line"/>
      <point x="267" y="37"/>
      <point x="288" y="-12"/>
    </contour>
  </outline>
</glyph>
<glyph name="l" format="2">
  <advance width="292"/>
  <unicode hex="006C"/>
  <outline>
    <contour>
      <point x="253" y="113" type="curve"/>
      <point x="225" y="78"/>
      <point x="186" y="51"/>
      <point x="163" y="51" type="curve" smooth="yes"/>
      <point x="149" y="51"/>
      <point x="145" y="60"/>
      <point x="145" y="72" type="curve" smooth="yes"/>
      <point x="145" y="85"/>
      <point x="149" y="103"/>
      <point x="151" y="112" type="curve" smooth="yes"/>
      <point x="244" y="565" type="line" smooth="yes"/>
      <point x="259" y="638"/>
      <point x="272" y="695"/>
      <point x="286" y="745" type="curve"/>
      <point x="273" y="752" type="line"/>
      <point x="223" y="732"/>
      <point x="151" y="723"/>
      <point x="79" y="718" type="curve"/>
      <point x="77" y="709"/>
      <point x="78" y="700"/>
      <point x="80" y="691" type="curve"/>
      <point x="144" y="690"/>
      <point x="163" y="687"/>
      <point x="163" y="661" type="curve" smooth="yes"/>
      <point x="163" y="652"/>
      <point x="160" y="636"/>
      <point x="156" y="617" type="curve" smooth="yes"/>
      <point x="51" y="106" type="line" smooth="yes"/>
      <point x="47" y="88"/>
      <point x="44" y="71"/>
      <point x="44" y="56" type="curve" smooth="yes"/>
      <point x="44" y="15"/>
      <point x="66" y="-12"/>
      <point x="115" y="-12" type="curve" smooth="yes"/>
      <point x="179" y="-12"/>
      <point x="231" y="33"/>
      <point x="276" y="93" type="curve"/>
      <point x="269" y="101"/>
      <point x="262" y="107"/>
    </contour>
  </outline>
</glyph>
<glyph name="m" format="2">
  <advance width="861"/>
  <unicode hex="006D"/>
  <outline>
    <contour>
      <point x="678" y="-12" type="curve" smooth="yes"/>
      <point x="741" y="-12"/>
      <point x="793" y="33"/>
      <point x="838" y="93" type="curve"/>
      <point x="831" y="101"/>
      <point x="824" y="107"/>
      <point x="815" y="113" type="curve"/>
      <point x="787" y="78"/>
      <point x="748" y="51"/>
      <point x="725" y="51" type="curve" smooth="yes"/>
      <point x="711" y="51"/>
      <point x="707" y="61"/>
      <point x="707" y="71" type="curve" smooth="yes"/>
      <point x="707" y="112"/>
      <point x="781" y="319"/>
      <point x="781" y="392" type="curve" smooth="yes"/>
      <point x="781" y="445"/>
      <point x="745" y="480"/>
      <point x="686" y="480" type="curve" smooth="yes"/>
      <point x="621" y="480"/>
      <point x="552" y="436"/>
      <point x="501" y="358" type="curve"/>
      <point x="459" y="358" type="line"/>
      <point x="459" y="182" type="line"/>
      <point x="501" y="358"/>
      <point x="596" y="422"/>
      <point x="645" y="422" type="curve" smooth="yes"/>
      <point x="673" y="422"/>
      <point x="679" y="401"/>
      <point x="679" y="380" type="curve" smooth="yes"/>
      <point x="679" y="317"/>
      <point x="606" y="119"/>
      <point x="606" y="53" type="curve" smooth="yes"/>
      <point x="606" y="16"/>
      <point x="628" y="-12"/>
    </contour>
    <contour>
      <point x="143" y="0" type="line"/>
      <point x="186" y="182" type="line"/>
      <point x="200" y="241" type="line" smooth="yes"/>
      <point x="209" y="281"/>
      <point x="234" y="390"/>
      <point x="234" y="419" type="curve" smooth="yes"/>
      <point x="234" y="450"/>
      <point x="217" y="478"/>
      <point x="171" y="478" type="curve" smooth="yes"/>
      <point x="121" y="478"/>
      <point x="61" y="445"/>
      <point x="10" y="384" type="curve"/>
      <point x="17" y="376"/>
      <point x="24" y="369"/>
      <point x="33" y="363" type="curve"/>
      <point x="62" y="394"/>
      <point x="95" y="417"/>
      <point x="114" y="417" type="curve" smooth="yes"/>
      <point x="125" y="417"/>
      <point x="132" y="410"/>
      <point x="132" y="393" type="curve" smooth="yes"/>
      <point x="132" y="385"/>
      <point x="130" y="376"/>
      <point x="125" y="355" type="curve" smooth="yes"/>
      <point x="43" y="0" type="line"/>
    </contour>
    <contour>
      <point x="416" y="0" type="line"/>
      <point x="459" y="182" type="line"/>
      <point x="477" y="258" type="line" smooth="yes"/>
      <point x="502" y="363"/>
      <point x="502" y="384"/>
      <point x="502" y="401" type="curve" smooth="yes"/>
      <point x="502" y="454"/>
      <point x="462" y="480"/>
      <point x="412" y="480" type="curve" smooth="yes"/>
      <point x="345" y="480"/>
      <point x="276" y="432"/>
      <point x="228" y="358" type="curve"/>
      <point x="186" y="358" type="line"/>
      <point x="186" y="182" type="line"/>
      <point x="225" y="346"/>
      <point x="312" y="422"/>
      <point x="374" y="422" type="curve" smooth="yes"/>
      <point x="398" y="422"/>
      <point x="404" y="410"/>
      <point x="404" y="389" type="curve" smooth="yes"/>
      <point x="404" y="376"/>
      <point x="401" y="360"/>
      <point x="396" y="339" type="curve" smooth="yes"/>
      <point x="316" y="0" type="line"/>
    </contour>
  </outline>
</glyph>
<glyph name="n" format="2">
  <advance width="595"/>
  <unicode hex="006E"/>
  <outline>
    <contour>
      <point x="185" y="182" type="line"/>
      <point x="222" y="347"/>
      <point x="313" y="422"/>
      <point x="372" y="422" type="curve" smooth="yes"/>
      <point x="402" y="422"/>
      <point x="413" y="402"/>
      <point x="413" y="376" type="curve" smooth="yes"/>
      <point x="413" y="316"/>
      <point x="340" y="120"/>
      <point x="340" y="53" type="curve" smooth="yes"/>
      <point x="340" y="16"/>
      <point x="362" y="-12"/>
      <point x="411" y="-12" type="curve" smooth="yes"/>
      <point x="475" y="-12"/>
      <point x="527" y="33"/>
      <point x="572" y="93" type="curve"/>
      <point x="565" y="101"/>
      <point x="558" y="108"/>
      <point x="549" y="114" type="curve"/>
      <point x="521" y="79"/>
      <point x="482" y="51"/>
      <point x="459" y="51" type="curve" smooth="yes"/>
      <point x="445" y="51"/>
      <point x="441" y="66"/>
      <point x="441" y="75" type="curve" smooth="yes"/>
      <point x="441" y="116"/>
      <point x="515" y="318"/>
      <point x="515" y="389" type="curve" smooth="yes"/>
      <point x="515" y="440"/>
      <point x="480" y="480"/>
      <point x="416" y="480" type="curve" smooth="yes"/>
      <point x="352" y="480"/>
      <point x="278" y="439"/>
      <point x="227" y="358" type="curve"/>
      <point x="185" y="358" type="line"/>
    </contour>
    <contour>
      <point x="185" y="182" type="line"/>
      <point x="217" y="320" type="line"/>
      <point x="222" y="358"/>
      <point x="234" y="397"/>
      <point x="234" y="421" type="curve" smooth="yes"/>
      <point x="234" y="451"/>
      <point x="217" y="478"/>
      <point x="172" y="478" type="curve" smooth="yes"/>
      <point x="122" y="478"/>
      <point x="63" y="447"/>
      <point x="10" y="384" type="curve"/>
      <point x="17" y="376"/>
      <point x="24" y="369"/>
      <point x="33" y="363" type="curve"/>
      <point x="62" y="394"/>
      <point x="95" y="417"/>
      <point x="114" y="417" type="curve" smooth="yes"/>
      <point x="125" y="417"/>
      <point x="132" y="410"/>
      <point x="132" y="393" type="curve" smooth="yes"/>
      <point x="132" y="385"/>
      <point x="130" y="376"/>
      <point x="125" y="355" type="curve" smooth="yes"/>
      <point x="43" y="0" type="line"/>
      <point x="143" y="0" type="line"/>
    </contour>
  </outline>
</glyph>
<glyph name="o" format="2">
  <advance width="527"/>
  <unicode hex="006F"/>
  <outline>
    <contour>
      <point x="481" y="284" type="curve" smooth="yes"/>
      <point x="481" y="391"/>
      <point x="424" y="480"/>
      <point x="294" y="480" type="curve" smooth="yes"/>
      <point x="110" y="480"/>
      <point x="30" y="304"/>
      <point x="30" y="190" type="curve" smooth="yes"/>
      <point x="30" y="102"/>
      <point x="77" y="-12"/>
      <point x="220" y="-12" type="curve" smooth="yes"/>
      <point x="391" y="-12"/>
      <point x="481" y="149"/>
    </contour>
    <contour>
      <point x="375" y="300" type="curve" smooth="yes"/>
      <point x="375" y="176"/>
      <point x="322" y="25"/>
      <point x="224" y="25" type="curve" smooth="yes"/>
      <point x="161" y="25"/>
      <point x="136" y="89"/>
      <point x="136" y="172" type="curve" smooth="yes"/>
      <point x="136" y="299"/>
      <point x="195" y="443"/>
      <point x="290" y="443" type="curve" smooth="yes"/>
      <point x="351" y="443"/>
      <point x="375" y="383"/>
    </contour>
  </outline>
</glyph>
<glyph name="p" format="2">
  <advance width="561"/>
  <unicode hex="0070"/>
  <outline>
    <contour>
      <point x="-63" y="-247" type="curve"/>
      <point x="22" y="-241"/>
      <point x="106" y="-242"/>
      <point x="197" y="-241" type="curve"/>
      <point x="198" y="-234"/>
      <point x="199" y="-222"/>
      <point x="197" y="-211" type="curve"/>
      <point x="130" y="-210"/>
      <point x="112" y="-209"/>
      <point x="112" y="-186" type="curve" smooth="yes"/>
      <point x="112" y="-178"/>
      <point x="113" y="-164"/>
      <point x="119" y="-135" type="curve" smooth="yes"/>
      <point x="199" y="248" type="line" smooth="yes"/>
      <point x="226" y="379"/>
      <point x="230" y="402"/>
      <point x="230" y="420" type="curve" smooth="yes"/>
      <point x="230" y="452"/>
      <point x="214" y="478"/>
      <point x="169" y="478" type="curve" smooth="yes"/>
      <point x="120" y="478"/>
      <point x="60" y="447"/>
      <point x="7" y="384" type="curve"/>
      <point x="14" y="376"/>
      <point x="21" y="369"/>
      <point x="30" y="363" type="curve"/>
      <point x="59" y="394"/>
      <point x="92" y="417"/>
      <point x="111" y="417" type="curve" smooth="yes"/>
      <point x="122" y="417"/>
      <point x="129" y="410"/>
      <point x="129" y="393" type="curve" smooth="yes"/>
      <point x="129" y="385"/>
      <point x="127" y="372"/>
      <point x="121" y="345" type="curve" smooth="yes"/>
      <point x="20" y="-142" type="line" smooth="yes"/>
      <point x="7" y="-206"/>
      <point x="-2" y="-213"/>
      <point x="-63" y="-220" type="curve"/>
      <point x="-65" y="-228"/>
      <point x="-64" y="-240"/>
    </contour>
    <contour>
      <point x="239" y="-11" type="curve" smooth="yes"/>
      <point x="379" y="-11"/>
      <point x="521" y="154"/>
      <point x="521" y="321" type="curve" smooth="yes"/>
      <point x="521" y="416"/>
      <point x="476" y="480"/>
      <point x="401" y="480" type="curve" smooth="yes"/>
      <point x="334" y="480"/>
      <point x="272" y="431"/>
      <point x="226" y="365" type="curve"/>
      <point x="199" y="365" type="line"/>
      <point x="199" y="248" type="line"/>
      <point x="214" y="324"/>
      <point x="294" y="417"/>
      <point x="356" y="417" type="curve" smooth="yes"/>
      <point x="393" y="417"/>
      <point x="413" y="384"/>
      <point x="413" y="314" type="curve" smooth="yes"/>
      <point x="413" y="208"/>
      <point x="366" y="32"/>
      <point x="256" y="32" type="curve" smooth="yes"/>
      <point x="220" y="32"/>
      <point x="183" y="52"/>
      <point x="149" y="83" type="curve"/>
      <point x="132" y="9" type="line"/>
      <point x="170" y="-3"/>
      <point x="208" y="-11"/>
    </contour>
  </outline>
</glyph>
<glyph name="q" format="2">
  <advance width="536"/>
  <unicode hex="0071"/>
  <outline>
    <contour>
      <point x="352" y="309" type="line"/>
      <point x="308" y="123"/>
      <point x="231" y="52"/>
      <point x="180" y="52" type="curve" smooth="yes"/>
      <point x="151" y="52"/>
      <point x="126" y="75"/>
      <point x="126" y="155" type="curve" smooth="yes"/>
      <point x="126" y="272"/>
      <point x="181" y="435"/>
      <point x="281" y="435" type="curve" smooth="yes"/>
      <point x="319" y="435"/>
      <point x="357" y="411"/>
      <point x="389" y="376" type="curve"/>
      <point x="421" y="444" type="line"/>
      <point x="374" y="473"/>
      <point x="332" y="480"/>
      <point x="305" y="480" type="curve" smooth="yes"/>
      <point x="174" y="480"/>
      <point x="19" y="328"/>
      <point x="19" y="147" type="curve" smooth="yes"/>
      <point x="19" y="36"/>
      <point x="77" y="-11"/>
      <point x="140" y="-11" type="curve" smooth="yes"/>
      <point x="199" y="-11"/>
      <point x="256" y="29"/>
      <point x="306" y="115" type="curve"/>
      <point x="352" y="115" type="line"/>
    </contour>
    <contour>
      <point x="314" y="124" type="line"/>
      <point x="309" y="111"/>
      <point x="305" y="91"/>
      <point x="297" y="57" type="curve" smooth="yes"/>
      <point x="249" y="-155" type="line" smooth="yes"/>
      <point x="237" y="-208"/>
      <point x="225" y="-212"/>
      <point x="150" y="-220" type="curve"/>
      <point x="148" y="-229"/>
      <point x="149" y="-238"/>
      <point x="150" y="-247" type="curve"/>
      <point x="235" y="-241"/>
      <point x="316" y="-242"/>
      <point x="408" y="-241" type="curve"/>
      <point x="410" y="-231"/>
      <point x="409" y="-221"/>
      <point x="408" y="-211" type="curve"/>
      <point x="359" y="-210"/>
      <point x="344" y="-208"/>
      <point x="344" y="-186" type="curve" smooth="yes"/>
      <point x="344" y="-177"/>
      <point x="346" y="-167"/>
      <point x="352" y="-139" type="curve" smooth="yes"/>
      <point x="451" y="309" type="line" smooth="yes"/>
      <point x="463" y="361"/>
      <point x="474" y="409"/>
      <point x="490" y="465" type="curve"/>
      <point x="487" y="469" type="line"/>
      <point x="455" y="463"/>
      <point x="423" y="459"/>
      <point x="394" y="456" type="curve"/>
      <point x="381" y="428" type="line"/>
      <point x="352" y="309" type="line"/>
      <point x="315" y="157" type="line"/>
    </contour>
  </outline>
</glyph>
<glyph name="r" format="2">
  <advance width="419"/>
  <unicode hex="0072"/>
  <outline>
    <contour>
      <point x="143" y="0" type="line"/>
      <point x="195" y="243"/>
      <point x="287" y="385"/>
      <point x="351" y="413" type="curve"/>
      <point x="324" y="444" type="line"/>
      <point x="332" y="392"/>
      <point x="371" y="370"/>
      <point x="402" y="370" type="curve" smooth="yes"/>
      <point x="431" y="370"/>
      <point x="456" y="390"/>
      <point x="456" y="423" type="curve" smooth="yes"/>
      <point x="456" y="451"/>
      <point x="438" y="480"/>
      <point x="392" y="480" type="curve" smooth="yes"/>
      <point x="315" y="480"/>
      <point x="251" y="399"/>
      <point x="182" y="233" type="curve"/>
      <point x="143" y="238" type="line"/>
    </contour>
    <contour>
      <point x="143" y="0" type="line"/>
      <point x="172" y="219" type="line"/>
      <point x="208" y="337" type="line" smooth="yes"/>
      <point x="224" y="391"/>
      <point x="228" y="409"/>
      <point x="228" y="426" type="curve" smooth="yes"/>
      <point x="228" y="454"/>
      <point x="217" y="478"/>
      <point x="173" y="478" type="curve" smooth="yes"/>
      <point x="123" y="478"/>
      <point x="63" y="447"/>
      <point x="10" y="384" type="curve"/>
      <point x="17" y="376"/>
      <point x="24" y="369"/>
      <point x="33" y="363" type="curve"/>
      <point x="62" y="394"/>
      <point x="95" y="417"/>
      <point x="114" y="417" type="curve" smooth="yes"/>
      <point x="125" y="417"/>
      <point x="132" y="410"/>
      <point x="132" y="393" type="curve" smooth="yes"/>
      <point x="132" y="385"/>
      <point x="130" y="376"/>
      <point x="125" y="355" type="curve" smooth="yes"/>
      <point x="43" y="0" type="line"/>
    </contour>
  </outline>
</glyph>
<glyph name="s" format="2">
  <advance width="409"/>
  <unicode hex="0073"/>
  <outline>
    <contour>
      <point x="157" y="-12" type="curve" smooth="yes"/>
      <point x="269" y="-12"/>
      <point x="350" y="37"/>
      <point x="350" y="121" type="curve" smooth="yes"/>
      <point x="350" y="190"/>
      <point x="294" y="230"/>
      <point x="241" y="266" type="curve" smooth="yes"/>
      <point x="178" y="308"/>
      <point x="146" y="333"/>
      <point x="146" y="375" type="curve" smooth="yes"/>
      <point x="146" y="414"/>
      <point x="174" y="441"/>
      <point x="228" y="441" type="curve" smooth="yes"/>
      <point x="254" y="441"/>
      <point x="281" y="435"/>
      <point x="302" y="426" type="curve"/>
      <point x="269" y="451" type="line"/>
      <point x="270" y="408"/>
      <point x="292" y="353"/>
      <point x="342" y="353" type="curve" smooth="yes"/>
      <point x="377" y="353"/>
      <point x="389" y="380"/>
      <point x="389" y="400" type="curve" smooth="yes"/>
      <point x="389" y="438"/>
      <point x="341" y="479"/>
      <point x="245" y="479" type="curve" smooth="yes"/>
      <point x="114" y="479"/>
      <point x="58" y="405"/>
      <point x="58" y="341" type="curve" smooth="yes"/>
      <point x="58" y="278"/>
      <point x="112" y="236"/>
      <point x="167" y="198" type="curve" smooth="yes"/>
      <point x="228" y="156"/>
      <point x="260" y="134"/>
      <point x="260" y="93" type="curve" smooth="yes"/>
      <point x="260" y="46"/>
      <point x="218" y="23"/>
      <point x="163" y="23" type="curve" smooth="yes"/>
      <point x="138" y="23"/>
      <point x="108" y="28"/>
      <point x="78" y="46" type="curve"/>
      <point x="123" y="10" type="line"/>
      <point x="120" y="58"/>
      <point x="101" y="122"/>
      <point x="45" y="122" type="curve" smooth="yes"/>
      <point x="11" y="122"/>
      <point x="-6" y="98"/>
      <point x="-6" y="75" type="curve" smooth="yes"/>
      <point x="-6" y="33"/>
      <point x="52" y="-12"/>
    </contour>
  </outline>
</glyph>
<glyph name="t" format="2">
  <advance width="333"/>
  <unicode hex="0074"/>
  <outline>
    <contour>
      <point x="336" y="413" type="line"/>
      <point x="341" y="428"/>
      <point x="344" y="441"/>
      <point x="344" y="457" type="curve"/>
      <point x="147" y="457" type="line"/>
      <point x="51" y="442" type="line"/>
      <point x="47" y="432"/>
      <point x="46" y="423"/>
      <point x="46" y="413" type="curve"/>
    </contour>
    <contour>
      <point x="161" y="589" type="curve"/>
      <point x="150" y="536"/>
      <point x="134" y="472"/>
      <point x="126" y="434" type="curve" smooth="yes"/>
      <point x="59" y="132" type="line" smooth="yes"/>
      <point x="52" y="101"/>
      <point x="50" y="81"/>
      <point x="50" y="66" type="curve" smooth="yes"/>
      <point x="50" y="33"/>
      <point x="68" y="-13"/>
      <point x="133" y="-13" type="curve" smooth="yes"/>
      <point x="197" y="-13"/>
      <point x="259" y="26"/>
      <point x="306" y="92" type="curve"/>
      <point x="298" y="101"/>
      <point x="292" y="106"/>
      <point x="283" y="112" type="curve"/>
      <point x="252" y="73"/>
      <point x="209" y="48"/>
      <point x="181" y="48" type="curve" smooth="yes"/>
      <point x="157" y="48"/>
      <point x="149" y="62"/>
      <point x="149" y="83" type="curve" smooth="yes"/>
      <point x="149" y="94"/>
      <point x="152" y="113"/>
      <point x="158" y="139" type="curve" smooth="yes"/>
      <point x="224" y="428" type="line" smooth="yes"/>
      <point x="243" y="510"/>
      <point x="252" y="551"/>
      <point x="263" y="596" type="curve"/>
      <point x="260" y="600" type="line"/>
      <point x="228" y="595"/>
      <point x="193" y="591"/>
    </contour>
  </outline>
</glyph>
<glyph name="u" format="2">
  <advance width="586"/>
  <unicode hex="0075"/>
  <outline>
    <contour>
      <point x="388" y="309" type="line"/>
      <point x="346" y="126"/>
      <point x="257" y="48"/>
      <point x="202" y="48" type="curve" smooth="yes"/>
      <point x="172" y="48"/>
      <point x="162" y="70"/>
      <point x="162" y="97" type="curve" smooth="yes"/>
      <point x="162" y="164"/>
      <point x="226" y="345"/>
      <point x="226" y="415" type="curve" smooth="yes"/>
      <point x="226" y="451"/>
      <point x="209" y="478"/>
      <point x="164" y="478" type="curve" smooth="yes"/>
      <point x="115" y="478"/>
      <point x="55" y="447"/>
      <point x="2" y="384" type="curve"/>
      <point x="9" y="376"/>
      <point x="16" y="369"/>
      <point x="25" y="363" type="curve"/>
      <point x="54" y="394"/>
      <point x="87" y="417"/>
      <point x="106" y="417" type="curve" smooth="yes"/>
      <point x="117" y="417"/>
      <point x="124" y="410"/>
      <point x="124" y="394" type="curve" smooth="yes"/>
      <point x="124" y="345"/>
      <point x="60" y="160"/>
      <point x="60" y="86" type="curve" smooth="yes"/>
      <point x="60" y="31"/>
      <point x="94" y="-12"/>
      <point x="162" y="-12" type="curve" smooth="yes"/>
      <point x="228" y="-12"/>
      <point x="288" y="27"/>
      <point x="342" y="115" type="curve"/>
      <point x="388" y="115" type="line"/>
    </contour>
    <contour>
      <point x="353" y="132" type="line"/>
      <point x="342" y="104"/>
      <point x="336" y="76"/>
      <point x="336" y="53" type="curve" smooth="yes"/>
      <point x="336" y="15"/>
      <point x="356" y="-12"/>
      <point x="405" y="-12" type="curve" smooth="yes"/>
      <point x="469" y="-12"/>
      <point x="521" y="33"/>
      <point x="566" y="93" type="curve"/>
      <point x="559" y="101"/>
      <point x="552" y="107"/>
      <point x="543" y="113" type="curve"/>
      <point x="515" y="78"/>
      <point x="476" y="51"/>
      <point x="453" y="51" type="curve" smooth="yes"/>
      <point x="439" y="51"/>
      <point x="435" y="60"/>
      <point x="435" y="72" type="curve" smooth="yes"/>
      <point x="435" y="85"/>
      <point x="440" y="102"/>
      <point x="442" y="111" type="curve" smooth="yes"/>
      <point x="524" y="465" type="line"/>
      <point x="521" y="469" type="line"/>
      <point x="489" y="465"/>
      <point x="455" y="461"/>
      <point x="423" y="459" type="curve"/>
      <point x="388" y="309" type="line"/>
      <point x="355" y="165" type="line"/>
    </contour>
  </outline>
</glyph>
<glyph name="v" format="2">
  <advance width="491"/>
  <unicode hex="0076"/>
  <outline>
    <contour>
      <point x="175" y="-11" type="curve"/>
      <point x="369" y="139"/>
      <point x="469" y="314"/>
      <point x="469" y="405" type="curve" smooth="yes"/>
      <point x="469" y="457"/>
      <point x="437" y="480"/>
      <point x="406" y="480" type="curve" smooth="yes"/>
      <point x="373" y="480"/>
      <point x="352" y="453"/>
      <point x="352" y="421" type="curve" smooth="yes"/>
      <point x="352" y="391"/>
      <point x="371" y="355"/>
      <point x="414" y="335" type="curve"/>
      <point x="402" y="349" type="line"/>
      <point x="391" y="288"/>
      <point x="325" y="172"/>
      <point x="211" y="77" type="curve"/>
      <point x="223" y="77" type="line"/>
      <point x="226" y="117"/>
      <point x="226" y="172"/>
      <point x="226" y="214" type="curve" smooth="yes"/>
      <point x="226" y="377"/>
      <point x="204" y="476"/>
      <point x="123" y="476" type="curve" smooth="yes"/>
      <point x="78" y="476"/>
      <point x="25" y="447"/>
      <point x="-23" y="389" type="curve"/>
      <point x="-16" y="381"/>
      <point x="-9" y="374"/>
      <point x="0" y="368" type="curve"/>
      <point x="31" y="400"/>
      <point x="57" y="413"/>
      <point x="73" y="413" type="curve" smooth="yes"/>
      <point x="120" y="413"/>
      <point x="133" y="297"/>
      <point x="133" y="134" type="curve" smooth="yes"/>
      <point x="133" y="92"/>
      <point x="133" y="48"/>
      <point x="131" y="0" type="curve"/>
      <point x="141" y="-5"/>
      <point x="164" y="-11"/>
    </contour>
  </outline>
</glyph>
<glyph name="w" format="2">
  <advance width="733"/>
  <unicode hex="0077"/>
  <outline>
    <contour>
      <point x="378" y="333" type="line"/>
      <point x="390" y="278"/>
      <point x="401" y="149"/>
      <point x="401" y="51" type="curve" smooth="yes"/>
      <point x="401" y="33"/>
      <point x="401" y="17"/>
      <point x="400" y="2" type="curve"/>
      <point x="410" y="-3"/>
      <point x="435" y="-9"/>
      <point x="446" y="-9" type="curve"/>
      <point x="621" y="138"/>
      <point x="705" y="315"/>
      <point x="705" y="403" type="curve" smooth="yes"/>
      <point x="705" y="458"/>
      <point x="672" y="480"/>
      <point x="642" y="480" type="curve" smooth="yes"/>
      <point x="609" y="480"/>
      <point x="588" y="453"/>
      <point x="588" y="422" type="curve" smooth="yes"/>
      <point x="588" y="387"/>
      <point x="614" y="354"/>
      <point x="652" y="336" type="curve"/>
      <point x="642" y="349" type="line"/>
      <point x="629" y="289"/>
      <point x="580" y="170"/>
      <point x="471" y="70" type="curve"/>
      <point x="488" y="70" type="line"/>
      <point x="488" y="213"/>
      <point x="473" y="362"/>
      <point x="443" y="467" type="curve"/>
    </contour>
    <contour>
      <point x="124" y="0" type="curve"/>
      <point x="134" y="-5"/>
      <point x="159" y="-11"/>
      <point x="169" y="-11" type="curve"/>
      <point x="323" y="139"/>
      <point x="400" y="314"/>
      <point x="441" y="444" type="curve"/>
      <point x="443" y="467" type="line"/>
      <point x="428" y="467"/>
      <point x="411" y="465"/>
      <point x="396" y="462" type="curve"/>
      <point x="372" y="368"/>
      <point x="309" y="213"/>
      <point x="196" y="78" type="curve"/>
      <point x="215" y="78" type="line"/>
      <point x="220" y="117"/>
      <point x="222" y="170"/>
      <point x="222" y="216" type="curve" smooth="yes"/>
      <point x="222" y="376"/>
      <point x="198" y="476"/>
      <point x="117" y="476" type="curve" smooth="yes"/>
      <point x="72" y="476"/>
      <point x="19" y="447"/>
      <point x="-29" y="389" type="curve"/>
      <point x="-22" y="381"/>
      <point x="-15" y="374"/>
      <point x="-6" y="368" type="curve"/>
      <point x="25" y="400"/>
      <point x="51" y="413"/>
      <point x="67" y="413" type="curve" smooth="yes"/>
      <point x="114" y="413"/>
      <point x="130" y="303"/>
      <point x="130" y="138" type="curve" smooth="yes"/>
      <point x="130" y="97"/>
      <point x="129" y="48"/>
    </contour>
  </outline>
</glyph>
<glyph name="x" format="2">
  <advance width="520"/>
  <unicode hex="0078"/>
  <outline>
    <contour>
      <point x="462" y="108" type="curve"/>
      <point x="439" y="81"/>
      <point x="412" y="51"/>
      <point x="385" y="51" type="curve" smooth="yes"/>
      <point x="350" y="51"/>
      <point x="342" y="74"/>
      <point x="298" y="253" type="curve" smooth="yes"/>
      <point x="254" y="432"/>
      <point x="243" y="477"/>
      <point x="170" y="477" type="curve" smooth="yes"/>
      <point x="114" y="477"/>
      <point x="62" y="435"/>
      <point x="23" y="389" type="curve"/>
      <point x="29" y="381"/>
      <point x="39" y="373"/>
      <point x="46" y="368" type="curve"/>
      <point x="63" y="385"/>
      <point x="94" y="414"/>
      <point x="120" y="414" type="curve" smooth="yes"/>
      <point x="156" y="414"/>
      <point x="162" y="391"/>
      <point x="206" y="215" type="curve" smooth="yes"/>
      <point x="251" y="35"/>
      <point x="266" y="-12"/>
      <point x="339" y="-12" type="curve" smooth="yes"/>
      <point x="391" y="-12"/>
      <point x="440" y="28"/>
      <point x="485" y="87" type="curve"/>
      <point x="480" y="95"/>
      <point x="469" y="104"/>
    </contour>
    <contour>
      <point x="221" y="247" type="line"/>
      <point x="184" y="179"/>
      <point x="108" y="66"/>
      <point x="63" y="49" type="curve"/>
      <point x="77" y="49" type="line"/>
      <point x="58" y="91"/>
      <point x="30" y="106"/>
      <point x="5" y="106" type="curve" smooth="yes"/>
      <point x="-27" y="106"/>
      <point x="-49" y="83"/>
      <point x="-49" y="55" type="curve" smooth="yes"/>
      <point x="-49" y="24"/>
      <point x="-21" y="-12"/>
      <point x="30" y="-12" type="curve" smooth="yes"/>
      <point x="99" y="-12"/>
      <point x="148" y="56"/>
      <point x="236" y="190" type="curve"/>
    </contour>
    <contour>
      <point x="281" y="242" type="line"/>
      <point x="351" y="353"/>
      <point x="405" y="414"/>
      <point x="444" y="425" type="curve"/>
      <point x="419" y="439" type="line"/>
      <point x="427" y="380"/>
      <point x="463" y="365"/>
      <point x="488" y="365" type="curve" smooth="yes"/>
      <point x="519" y="365"/>
      <point x="542" y="387"/>
      <point x="542" y="418" type="curve" smooth="yes"/>
      <point x="542" y="452"/>
      <point x="511" y="480"/>
      <point x="467" y="480" type="curve" smooth="yes"/>
      <point x="399" y="480"/>
      <point x="345" y="414"/>
      <point x="267" y="293" type="curve"/>
    </contour>
  </outline>
</glyph>
<glyph name="y" format="2">
  <advance width="508"/>
  <unicode hex="0079"/>
  <outline>
    <contour>
      <point x="35" y="-233" type="line"/>
      <point x="22" y="-146"/>
      <point x="-18" y="-129"/>
      <point x="-43" y="-129" type="curve" smooth="yes"/>
      <point x="-72" y="-129"/>
      <point x="-92" y="-151"/>
      <point x="-92" y="-178" type="curve" smooth="yes"/>
      <point x="-92" y="-212"/>
      <point x="-53" y="-253"/>
      <point x="16" y="-253" type="curve" smooth="yes"/>
      <point x="113" y="-253"/>
      <point x="197" y="-178"/>
      <point x="316" y="28" type="curve" smooth="yes"/>
      <point x="404" y="181"/>
      <point x="480" y="336"/>
      <point x="480" y="398" type="curve" smooth="yes"/>
      <point x="480" y="445"/>
      <point x="459" y="480"/>
      <point x="418" y="480" type="curve" smooth="yes"/>
      <point x="384" y="480"/>
      <point x="363" y="453"/>
      <point x="363" y="422" type="curve" smooth="yes"/>
      <point x="363" y="387"/>
      <point x="391" y="355"/>
      <point x="428" y="337" type="curve"/>
      <point x="416" y="352" type="line"/>
      <point x="407" y="309"/>
      <point x="352" y="178"/>
      <point x="271" y="44" type="curve" smooth="yes"/>
      <point x="175" y="-115"/>
      <point x="104" y="-211"/>
      <point x="24" y="-211" type="curve" smooth="yes"/>
      <point x="12" y="-211"/>
      <point x="0" y="-208"/>
      <point x="-13" y="-204" type="curve"/>
    </contour>
    <contour>
      <point x="307" y="65" type="line"/>
      <point x="206" y="436"/>
      <point x="172" y="476"/>
      <point x="112" y="476" type="curve" smooth="yes"/>
      <point x="73" y="476"/>
      <point x="26" y="459"/>
      <point x="-29" y="389" type="curve"/>
      <point x="-22" y="381"/>
      <point x="-15" y="374"/>
      <point x="-6" y="368" type="curve"/>
      <point x="25" y="403"/>
      <point x="42" y="413"/>
      <point x="58" y="413" type="curve" smooth="yes"/>
      <point x="92" y="413"/>
      <point x="126" y="367"/>
      <point x="241" y="-35" type="curve"/>
    </contour>
  </outline>
</glyph>
<glyph name="z" format="2">
  <advance width="449"/>
  <unicode hex="007A"/>
  <outline>
    <contour>
      <point x="-30" y="12" type="line"/>
      <point x="-25" y="8"/>
      <point x="3" y="-11"/>
      <point x="13" y="-11" type="curve"/>
      <point x="465" y="449" type="line"/>
      <point x="460" y="455"/>
      <point x="441" y="476"/>
      <point x="429" y="480" type="curve"/>
    </contour>
    <contour>
      <point x="45" y="53" type="line"/>
      <point x="134" y="19"/>
      <point x="203" y="-12"/>
      <point x="253" y="-12" type="curve" smooth="yes"/>
      <point x="310" y="-12"/>
      <point x="363" y="27"/>
      <point x="423" y="132" type="curve"/>
      <point x="418" y="139"/>
      <point x="409" y="146"/>
      <point x="399" y="151" type="curve"/>
      <point x="355" y="89"/>
      <point x="321" y="75"/>
      <point x="287" y="75" type="curve" smooth="yes"/>
      <point x="245" y="75"/>
      <point x="199" y="93"/>
      <point x="115" y="126" type="curve"/>
    </contour>
    <contour>
      <point x="409" y="420" type="line"/>
      <point x="303" y="465"/>
      <point x="239" y="477"/>
      <point x="201" y="477" type="curve" smooth="yes"/>
      <point x="104" y="477"/>
      <point x="38" y="402"/>
      <point x="38" y="345" type="curve" smooth="yes"/>
      <point x="38" y="310"/>
      <point x="63" y="280"/>
      <point x="99" y="280" type="curve" smooth="yes"/>
      <point x="130" y="280"/>
      <point x="144" y="301"/>
      <point x="144" y="324" type="curve" smooth="yes"/>
      <point x="144" y="359"/>
      <point x="109" y="375"/>
      <point x="75" y="375" type="curve"/>
      <point x="86" y="370" type="line"/>
      <point x="89" y="388"/>
      <point x="108" y="399"/>
      <point x="141" y="399" type="curve" smooth="yes"/>
      <point x="177" y="399"/>
      <point x="235" y="388"/>
      <point x="325" y="336" type="curve"/>
    </contour>
  </outline>
</glyph>
<glyph name="braceleft" format="2">
  <advance width="395"/>
  <unicode hex="007B"/>
  <outline>
    <contour>
      <point x="138" y="288" type="line"/>
      <point x="225" y="305"/>
      <point x="239" y="347"/>
      <point x="239" y="425" type="curve" smooth="yes"/>
      <point x="239" y="616" type="line" smooth="yes"/>
      <point x="239" y="689"/>
      <point x="264" y="726"/>
      <point x="335" y="726" type="curve"/>
      <point x="335" y="761" type="line"/>
      <point x="210" y="761"/>
      <point x="155" y="725"/>
      <point x="155" y="590" type="curve" smooth="yes"/>
      <point x="155" y="401" type="line" smooth="yes"/>
      <point x="155" y="327"/>
      <point x="134" y="310"/>
      <point x="67" y="300" type="curve"/>
      <point x="67" y="272" type="line"/>
      <point x="134" y="262"/>
      <point x="155" y="245"/>
      <point x="155" y="171" type="curve" smooth="yes"/>
      <point x="155" y="-19" type="line" smooth="yes"/>
      <point x="155" y="-156"/>
      <point x="210" y="-191"/>
      <point x="335" y="-191" type="curve"/>
      <point x="335" y="-157" type="line"/>
      <point x="264" y="-157"/>
      <point x="239" y="-120"/>
      <point x="239" y="-45" type="curve" smooth="yes"/>
      <point x="239" y="146" type="line" smooth="yes"/>
      <point x="239" y="225"/>
      <point x="225" y="266"/>
      <point x="138" y="284" type="curve"/>
    </contour>
  </outline>
  <guideline angle="0" x="0" y="286"/>
</glyph>
<glyph name="braceright" format="2">
  <advance width="395"/>
  <unicode hex="007D"/>
  <outline>
    <contour>
      <point x="100" y="-191" type="line"/>
      <point x="225" y="-191"/>
      <point x="280" y="-156"/>
      <point x="280" y="-19" type="curve" smooth="yes"/>
      <point x="280" y="171" type="line" smooth="yes"/>
      <point x="280" y="245"/>
      <point x="301" y="262"/>
      <point x="368" y="272" type="curve"/>
      <point x="368" y="300" type="line"/>
      <point x="301" y="310"/>
      <point x="280" y="327"/>
      <point x="280" y="401" type="curve" smooth="yes"/>
      <point x="280" y="590" type="line" smooth="yes"/>
      <point x="280" y="725"/>
      <point x="225" y="761"/>
      <point x="100" y="761" type="curve"/>
      <point x="100" y="726" type="line"/>
      <point x="171" y="726"/>
      <point x="196" y="689"/>
      <point x="196" y="616" type="curve" smooth="yes"/>
      <point x="196" y="425" type="line" smooth="yes"/>
      <point x="196" y="347"/>
      <point x="210" y="305"/>
      <point x="297" y="288" type="curve"/>
      <point x="297" y="284" type="line"/>
      <point x="210" y="266"/>
      <point x="196" y="225"/>
      <point x="196" y="146" type="curve" smooth="yes"/>
      <point x="196" y="-45" type="line" smooth="yes"/>
      <point x="196" y="-120"/>
      <point x="171" y="-157"/>
      <point x="100" y="-157" type="curve"/>
    </contour>
  </outline>
</glyph>
<glyph name="asciitilde" format="2">
  <advance width="562"/>
  <unicode hex="007E"/>
  <outline>
    <contour>
      <point x="408" y="193" type="curve" smooth="yes"/>
      <point x="446" y="193"/>
      <point x="484" y="203"/>
      <point x="522" y="233" type="curve"/>
      <point x="525" y="252"/>
      <point x="525" y="273"/>
      <point x="522" y="292" type="curve"/>
      <point x="484" y="261"/>
      <point x="446" y="252"/>
      <point x="408" y="252" type="curve" smooth="yes"/>
      <point x="378" y="252"/>
      <point x="348" y="259"/>
      <point x="284" y="282" type="curve" smooth="yes"/>
      <point x="243" y="297"/>
      <point x="201" y="312"/>
      <point x="159" y="312" type="curve" smooth="yes"/>
      <point x="120" y="312"/>
      <point x="83" y="302"/>
      <point x="45" y="271" type="curve"/>
      <point x="42" y="252"/>
      <point x="42" y="233"/>
      <point x="45" y="213" type="curve"/>
      <point x="83" y="243"/>
      <point x="120" y="252"/>
      <point x="159" y="252" type="curve" smooth="yes"/>
      <point x="198" y="252"/>
      <point x="239" y="238"/>
      <point x="285" y="221" type="curve" smooth="yes"/>
      <point x="322" y="208"/>
      <point x="365" y="193"/>
    </contour>
  </outline>
</glyph>
<glyph name="exclamdown" format="2">
  <advance width="310"/>
  <unicode hex="00A1"/>
  <outline>
    <contour>
      <point x="48" y="-243" type="curve" smooth="yes"/>
      <point x="91" y="-243"/>
      <point x="120" y="-217"/>
      <point x="123" y="-179" type="curve" smooth="yes"/>
      <point x="156" y="259" type="line"/>
      <point x="144" y="261"/>
      <point x="134" y="262"/>
      <point x="122" y="262" type="curve"/>
      <point x="3" y="-125" type="line" smooth="yes"/>
      <point x="-2" y="-142"/>
      <point x="-12" y="-169"/>
      <point x="-12" y="-190" type="curve" smooth="yes"/>
      <point x="-12" y="-219"/>
      <point x="7" y="-243"/>
    </contour>
    <contour>
      <point x="160" y="335" type="curve" smooth="yes"/>
      <point x="204" y="335"/>
      <point x="236" y="371"/>
      <point x="236" y="415" type="curve" smooth="yes"/>
      <point x="236" y="452"/>
      <point x="212" y="481"/>
      <point x="173" y="481" type="curve" smooth="yes"/>
      <point x="130" y="481"/>
      <point x="95" y="445"/>
      <point x="95" y="402" type="curve" smooth="yes"/>
      <point x="95" y="365"/>
      <point x="121" y="335"/>
    </contour>
  </outline>
</glyph>
<glyph name="cent" format="2">
  <advance width="494"/>
  <unicode hex="00A2"/>
  <outline>
    <contour>
      <point x="365" y="601" type="line"/>
      <point x="351" y="602"/>
      <point x="336" y="602"/>
      <point x="322" y="601" type="curve"/>
      <point x="184" y="-103" type="line"/>
      <point x="196" y="-105"/>
      <point x="215" y="-104"/>
      <point x="227" y="-103" type="curve"/>
    </contour>
    <contour>
      <point x="223" y="-12" type="curve" smooth="yes"/>
      <point x="336" y="-12"/>
      <point x="401" y="58"/>
      <point x="434" y="121" type="curve"/>
      <point x="429" y="128"/>
      <point x="420" y="135"/>
      <point x="410" y="140" type="curve"/>
      <point x="369" y="78"/>
      <point x="318" y="58"/>
      <point x="263" y="58" type="curve" smooth="yes"/>
      <point x="167" y="58"/>
      <point x="134" y="120"/>
      <point x="134" y="197" type="curve" smooth="yes"/>
      <point x="134" y="309"/>
      <point x="205" y="468"/>
      <point x="347" y="468" type="curve" smooth="yes"/>
      <point x="353" y="468"/>
      <point x="366" y="468"/>
      <point x="371" y="465" type="curve"/>
      <point x="364" y="487" type="line"/>
      <point x="364" y="408"/>
      <point x="402" y="383"/>
      <point x="433" y="383" type="curve" smooth="yes"/>
      <point x="462" y="383"/>
      <point x="479" y="404"/>
      <point x="479" y="433" type="curve" smooth="yes"/>
      <point x="479" y="479"/>
      <point x="434" y="512"/>
      <point x="358" y="512" type="curve" smooth="yes"/>
      <point x="199" y="512"/>
      <point x="33" y="369"/>
      <point x="33" y="184" type="curve" smooth="yes"/>
      <point x="33" y="58"/>
      <point x="110" y="-12"/>
    </contour>
  </outline>
</glyph>
<glyph name="sterling" format="2">
  <advance width="546"/>
  <unicode hex="00A3"/>
  <outline>
    <contour>
      <point x="120" y="83" type="line"/>
      <point x="119" y="92" type="line"/>
      <point x="91" y="69" type="line"/>
      <point x="206" y="131"/>
      <point x="228" y="207"/>
      <point x="228" y="317" type="curve" smooth="yes"/>
      <point x="228" y="350"/>
      <point x="226" y="392"/>
      <point x="226" y="416" type="curve" smooth="yes"/>
      <point x="226" y="550"/>
      <point x="288" y="592"/>
      <point x="365" y="592" type="curve" smooth="yes"/>
      <point x="396" y="592"/>
      <point x="422" y="585"/>
      <point x="425" y="578" type="curve"/>
      <point x="426" y="590" type="line"/>
      <point x="409" y="590" type="line"/>
      <point x="410" y="520"/>
      <point x="444" y="487"/>
      <point x="480" y="487" type="curve" smooth="yes"/>
      <point x="511" y="487"/>
      <point x="528" y="511"/>
      <point x="528" y="535" type="curve" smooth="yes"/>
      <point x="528" y="568"/>
      <point x="497" y="630"/>
      <point x="371" y="630" type="curve" smooth="yes"/>
      <point x="198" y="630"/>
      <point x="130" y="512"/>
      <point x="130" y="415" type="curve" smooth="yes"/>
      <point x="130" y="350"/>
      <point x="133" y="316"/>
      <point x="133" y="275" type="curve" smooth="yes"/>
      <point x="133" y="156"/>
      <point x="107" y="90"/>
      <point x="-26" y="27" type="curve"/>
      <point x="-27" y="21"/>
      <point x="-28" y="14"/>
      <point x="-28" y="9" type="curve" smooth="yes"/>
      <point x="-28" y="7"/>
      <point x="-28" y="2"/>
      <point x="-27" y="0" type="curve"/>
      <point x="18" y="0"/>
      <point x="55" y="1"/>
      <point x="144" y="1" type="curve" smooth="yes"/>
      <point x="233" y="1"/>
      <point x="329" y="0"/>
      <point x="442" y="-1" type="curve"/>
      <point x="455" y="43"/>
      <point x="468" y="91"/>
      <point x="497" y="171" type="curve"/>
      <point x="485" y="173"/>
      <point x="474" y="173"/>
      <point x="463" y="173" type="curve"/>
      <point x="418" y="87"/>
      <point x="395" y="84"/>
      <point x="325" y="84" type="curve" smooth="yes"/>
    </contour>
    <contour>
      <point x="409" y="258" type="line"/>
      <point x="414" y="275"/>
      <point x="416" y="288"/>
      <point x="416" y="302" type="curve"/>
      <point x="59" y="302" type="line"/>
      <point x="54" y="288"/>
      <point x="52" y="275"/>
      <point x="52" y="258" type="curve"/>
    </contour>
  </outline>
</glyph>
<glyph name="currency" format="2">
  <advance width="593"/>
  <unicode hex="00A4"/>
  <outline>
    <contour>
      <point x="303" y="96" type="curve" smooth="yes"/>
      <point x="419" y="96"/>
      <point x="518" y="185"/>
      <point x="518" y="311" type="curve" smooth="yes"/>
      <point x="518" y="434"/>
      <point x="424" y="527"/>
      <point x="303" y="527" type="curve" smooth="yes"/>
      <point x="188" y="527"/>
      <point x="88" y="439"/>
      <point x="88" y="311" type="curve" smooth="yes"/>
      <point x="88" y="204"/>
      <point x="169" y="96"/>
    </contour>
    <contour>
      <point x="180" y="151" type="line"/>
      <point x="141" y="185" type="line"/>
      <point x="74" y="125" type="line"/>
      <point x="87" y="109"/>
      <point x="100" y="96"/>
      <point x="115" y="83" type="curve"/>
    </contour>
    <contour>
      <point x="303" y="146" type="curve" smooth="yes"/>
      <point x="215" y="146"/>
      <point x="144" y="219"/>
      <point x="144" y="311" type="curve" smooth="yes"/>
      <point x="144" y="403"/>
      <point x="214" y="478"/>
      <point x="303" y="478" type="curve" smooth="yes"/>
      <point x="394" y="478"/>
      <point x="462" y="401"/>
      <point x="462" y="311" type="curve" smooth="yes"/>
      <point x="462" y="221"/>
      <point x="393" y="146"/>
    </contour>
    <contour>
      <point x="178" y="474" type="line"/>
      <point x="115" y="541" type="line"/>
      <point x="100" y="527"/>
      <point x="86" y="512"/>
      <point x="74" y="499" type="curve"/>
      <point x="139" y="437" type="line"/>
    </contour>
    <contour>
      <point x="491" y="82" type="line"/>
      <point x="506" y="96"/>
      <point x="520" y="110"/>
      <point x="532" y="124" type="curve"/>
      <point x="465" y="188" type="line"/>
      <point x="428" y="148" type="line"/>
    </contour>
    <contour>
      <point x="532" y="499" type="line"/>
      <point x="519" y="514"/>
      <point x="505" y="529"/>
      <point x="491" y="541" type="curve"/>
      <point x="426" y="473" type="line"/>
      <point x="468" y="438" type="line"/>
    </contour>
  </outline>
</glyph>
<glyph name="yen" format="2">
  <advance width="544"/>
  <unicode hex="00A5"/>
  <outline>
    <contour>
      <point x="72" y="-1" type="curve"/>
      <point x="109" y="-1"/>
      <point x="174" y="1"/>
      <point x="223" y="1" type="curve" smooth="yes"/>
      <point x="269" y="1"/>
      <point x="326" y="-1"/>
      <point x="365" y="-1" type="curve"/>
      <point x="368" y="8"/>
      <point x="370" y="21"/>
      <point x="371" y="31" type="curve"/>
      <point x="298" y="36"/>
      <point x="283" y="38"/>
      <point x="283" y="67" type="curve" smooth="yes"/>
      <point x="283" y="77"/>
      <point x="287" y="96"/>
      <point x="292" y="119" type="curve" smooth="yes"/>
      <point x="322" y="272" type="line"/>
      <point x="218" y="272" type="line"/>
      <point x="185" y="107" type="line" smooth="yes"/>
      <point x="172" y="40"/>
      <point x="167" y="39"/>
      <point x="77" y="31" type="curve"/>
      <point x="73" y="21"/>
      <point x="72" y="8"/>
    </contour>
    <contour>
      <point x="453" y="152" type="line"/>
      <point x="458" y="167"/>
      <point x="460" y="181"/>
      <point x="461" y="196" type="curve"/>
      <point x="49" y="196" type="line"/>
      <point x="45" y="181"/>
      <point x="43" y="167"/>
      <point x="41" y="152" type="curve"/>
    </contour>
    <contour>
      <point x="475" y="268" type="line"/>
      <point x="480" y="283"/>
      <point x="483" y="298"/>
      <point x="484" y="312" type="curve"/>
      <point x="72" y="312" type="line"/>
      <point x="68" y="298"/>
      <point x="65" y="283"/>
      <point x="63" y="268" type="curve"/>
    </contour>
    <contour>
      <point x="467" y="475" type="line" smooth="yes"/>
      <point x="542" y="575"/>
      <point x="553" y="579"/>
      <point x="630" y="590" type="curve"/>
      <point x="633" y="601"/>
      <point x="635" y="611"/>
      <point x="636" y="622" type="curve"/>
      <point x="594" y="622"/>
      <point x="564" y="620"/>
      <point x="521" y="620" type="curve" smooth="yes"/>
      <point x="485" y="620"/>
      <point x="447" y="622"/>
      <point x="392" y="622" type="curve"/>
      <point x="388" y="612"/>
      <point x="386" y="603"/>
      <point x="386" y="590" type="curve"/>
      <point x="442" y="584"/>
      <point x="466" y="579"/>
      <point x="466" y="562" type="curve" smooth="yes"/>
      <point x="466" y="550"/>
      <point x="455" y="536"/>
      <point x="436" y="509" type="curve" smooth="yes"/>
      <point x="292" y="306" type="line"/>
      <point x="318" y="306" type="line"/>
      <point x="250" y="509" type="line" smooth="yes"/>
      <point x="244" y="528"/>
      <point x="238" y="545"/>
      <point x="238" y="556" type="curve" smooth="yes"/>
      <point x="238" y="578"/>
      <point x="259" y="584"/>
      <point x="317" y="590" type="curve"/>
      <point x="321" y="603"/>
      <point x="323" y="612"/>
      <point x="323" y="622" type="curve"/>
      <point x="276" y="622"/>
      <point x="231" y="620"/>
      <point x="193" y="620" type="curve" smooth="yes"/>
      <point x="144" y="620"/>
      <point x="94" y="622"/>
      <point x="48" y="622" type="curve"/>
      <point x="43" y="611"/>
      <point x="42" y="602"/>
      <point x="42" y="590" type="curve"/>
      <point x="113" y="580"/>
      <point x="120" y="575"/>
      <point x="153" y="482" type="curve" smooth="yes"/>
      <point x="223" y="285" type="line"/>
      <point x="323" y="283" type="line"/>
    </contour>
  </outline>
</glyph>
<glyph name="section" format="2">
  <advance width="540"/>
  <unicode hex="00A7"/>
  <outline>
    <contour>
      <point x="296" y="-115" type="line"/>
      <point x="306" y="-66"/>
      <point x="311" y="-37"/>
      <point x="311" y="-8" type="curve" smooth="yes"/>
      <point x="311" y="76"/>
      <point x="268" y="147"/>
      <point x="226" y="216" type="curve" smooth="yes"/>
      <point x="186" y="282"/>
      <point x="146" y="347"/>
      <point x="146" y="420" type="curve" smooth="yes"/>
      <point x="146" y="542"/>
      <point x="255" y="673"/>
      <point x="382" y="673" type="curve" smooth="yes"/>
      <point x="403" y="673"/>
      <point x="424" y="669"/>
      <point x="435" y="660" type="curve"/>
      <point x="411" y="683" type="line"/>
      <point x="411" y="630"/>
      <point x="429" y="580"/>
      <point x="477" y="580" type="curve" smooth="yes"/>
      <point x="511" y="580"/>
      <point x="525" y="605"/>
      <point x="525" y="632" type="curve" smooth="yes"/>
      <point x="525" y="685"/>
      <point x="468" y="711"/>
      <point x="397" y="711" type="curve" smooth="yes"/>
      <point x="217" y="711"/>
      <point x="82" y="544"/>
      <point x="82" y="360" type="curve" smooth="yes"/>
      <point x="82" y="260"/>
      <point x="120" y="192"/>
      <point x="171" y="110" type="curve" smooth="yes"/>
      <point x="214" y="41"/>
      <point x="259" y="-32"/>
      <point x="272" y="-140" type="curve"/>
    </contour>
    <contour>
      <point x="130" y="-200" type="curve" smooth="yes"/>
      <point x="303" y="-200"/>
      <point x="437" y="-31"/>
      <point x="437" y="156" type="curve" smooth="yes"/>
      <point x="437" y="263"/>
      <point x="392" y="332"/>
      <point x="345" y="403" type="curve" smooth="yes"/>
      <point x="293" y="482"/>
      <point x="254" y="549"/>
      <point x="244" y="645" type="curve"/>
      <point x="220" y="624" type="line"/>
      <point x="212" y="578"/>
      <point x="207" y="545"/>
      <point x="207" y="517" type="curve" smooth="yes"/>
      <point x="207" y="435"/>
      <point x="249" y="365"/>
      <point x="290" y="296" type="curve" smooth="yes"/>
      <point x="330" y="229"/>
      <point x="370" y="164"/>
      <point x="370" y="90" type="curve" smooth="yes"/>
      <point x="370" y="-34"/>
      <point x="260" y="-162"/>
      <point x="135" y="-162" type="curve" smooth="yes"/>
      <point x="122" y="-162"/>
      <point x="108" y="-159"/>
      <point x="99" y="-156" type="curve"/>
      <point x="119" y="-177" type="line"/>
      <point x="122" y="-122"/>
      <point x="95" y="-65"/>
      <point x="42" y="-65" type="curve" smooth="yes"/>
      <point x="9" y="-65"/>
      <point x="-8" y="-88"/>
      <point x="-8" y="-115" type="curve" smooth="yes"/>
      <point x="-8" y="-167"/>
      <point x="53" y="-200"/>
    </contour>
  </outline>
</glyph>
<glyph name="copyright" format="2">
  <advance width="1074"/>
  <unicode hex="00A9"/>
  <outline>
    <contour>
      <point x="543" y="-140" type="curve" smooth="yes"/>
      <point x="809" y="-140"/>
      <point x="999" y="49"/>
      <point x="999" y="317" type="curve" smooth="yes"/>
      <point x="999" y="582"/>
      <point x="809" y="771"/>
      <point x="543" y="771" type="curve" smooth="yes"/>
      <point x="275" y="771"/>
      <point x="86" y="582"/>
      <point x="86" y="317" type="curve" smooth="yes"/>
      <point x="86" y="50"/>
      <point x="275" y="-140"/>
    </contour>
    <contour>
      <point x="549" y="53" type="curve" smooth="yes"/>
      <point x="576" y="53"/>
      <point x="602" y="55"/>
      <point x="626" y="60" type="curve" smooth="yes"/>
      <point x="650" y="66"/>
      <point x="683" y="76"/>
      <point x="725" y="92" type="curve"/>
      <point x="729" y="139"/>
      <point x="733" y="184"/>
      <point x="738" y="228" type="curve"/>
      <point x="727" y="230"/>
      <point x="717" y="230"/>
      <point x="707" y="229" type="curve"/>
      <point x="687" y="134"/>
      <point x="636" y="90"/>
      <point x="561" y="90" type="curve" smooth="yes"/>
      <point x="437" y="90"/>
      <point x="384" y="197"/>
      <point x="384" y="318" type="curve" smooth="yes"/>
      <point x="384" y="433"/>
      <point x="433" y="543"/>
      <point x="554" y="543" type="curve" smooth="yes"/>
      <point x="633" y="543"/>
      <point x="684" y="497"/>
      <point x="703" y="404" type="curve"/>
      <point x="713" y="404"/>
      <point x="724" y="404"/>
      <point x="734" y="406" type="curve"/>
      <point x="730" y="460"/>
      <point x="727" y="511"/>
      <point x="727" y="557" type="curve"/>
      <point x="720" y="555"/>
      <point x="713" y="555"/>
      <point x="706" y="555" type="curve" smooth="yes"/>
      <point x="695" y="555"/>
      <point x="674" y="558"/>
      <point x="643" y="566" type="curve"/>
      <point x="612" y="575"/>
      <point x="579" y="580"/>
      <point x="547" y="580" type="curve" smooth="yes"/>
      <point x="391" y="580"/>
      <point x="278" y="468"/>
      <point x="278" y="313" type="curve" smooth="yes"/>
      <point x="278" y="151"/>
      <point x="389" y="53"/>
    </contour>
    <contour>
      <point x="543" y="-92" type="curve" smooth="yes"/>
      <point x="301" y="-92"/>
      <point x="142" y="74"/>
      <point x="142" y="317" type="curve" smooth="yes"/>
      <point x="142" y="557"/>
      <point x="301" y="724"/>
      <point x="543" y="724" type="curve" smooth="yes"/>
      <point x="784" y="724"/>
      <point x="942" y="557"/>
      <point x="942" y="317" type="curve" smooth="yes"/>
      <point x="942" y="74"/>
      <point x="784" y="-92"/>
    </contour>
  </outline>
</glyph>
<glyph name="ordfeminine" format="2">
  <advance width="422"/>
  <unicode hex="00AA"/>
  <outline>
    <contour>
      <point x="157" y="297" type="curve" smooth="yes"/>
      <point x="200" y="297"/>
      <point x="241" y="324"/>
      <point x="277" y="383" type="curve"/>
      <point x="294" y="383" type="line"/>
      <point x="310" y="514" type="line"/>
      <point x="285" y="404"/>
      <point x="230" y="354"/>
      <point x="191" y="354" type="curve" smooth="yes"/>
      <point x="173" y="354"/>
      <point x="152" y="364"/>
      <point x="152" y="417" type="curve" smooth="yes"/>
      <point x="152" y="491"/>
      <point x="193" y="601"/>
      <point x="259" y="601" type="curve" smooth="yes"/>
      <point x="287" y="601"/>
      <point x="318" y="580"/>
      <point x="339" y="553" type="curve"/>
      <point x="358" y="606" type="line"/>
      <point x="318" y="626"/>
      <point x="292" y="630"/>
      <point x="272" y="630" type="curve" smooth="yes"/>
      <point x="181" y="630"/>
      <point x="69" y="526"/>
      <point x="69" y="403" type="curve" smooth="yes"/>
      <point x="69" y="328"/>
      <point x="111" y="297"/>
    </contour>
    <contour>
      <point x="357" y="200" type="line"/>
      <point x="360" y="212"/>
      <point x="363" y="224"/>
      <point x="364" y="237" type="curve"/>
      <point x="63" y="237" type="line"/>
      <point x="60" y="224"/>
      <point x="57" y="212"/>
      <point x="56" y="200" type="curve"/>
    </contour>
    <contour>
      <point x="329" y="297" type="curve" smooth="yes"/>
      <point x="378" y="297"/>
      <point x="412" y="327"/>
      <point x="442" y="369" type="curve"/>
      <point x="437" y="374"/>
      <point x="432" y="378"/>
      <point x="426" y="382" type="curve"/>
      <point x="405" y="356"/>
      <point x="382" y="344"/>
      <point x="366" y="344" type="curve" smooth="yes"/>
      <point x="356" y="344"/>
      <point x="352" y="350"/>
      <point x="352" y="359" type="curve" smooth="yes"/>
      <point x="352" y="367"/>
      <point x="355" y="379"/>
      <point x="360" y="398" type="curve" smooth="yes"/>
      <point x="389" y="514" type="line" smooth="yes"/>
      <point x="404" y="575"/>
      <point x="412" y="610"/>
      <point x="416" y="620" type="curve"/>
      <point x="414" y="623" type="line"/>
      <point x="387" y="619"/>
      <point x="361" y="616"/>
      <point x="337" y="614" type="curve"/>
      <point x="328" y="595" type="line"/>
      <point x="310" y="514" type="line"/>
      <point x="286" y="399" type="line"/>
      <point x="280" y="380"/>
      <point x="274" y="362"/>
      <point x="274" y="344" type="curve" smooth="yes"/>
      <point x="274" y="318"/>
      <point x="288" y="297"/>
    </contour>
  </outline>
</glyph>
<glyph name="guillemotleft" format="2">
  <advance width="470"/>
  <unicode hex="00AB"/>
  <outline>
    <contour>
      <point x="374" y="59" type="curve"/>
      <point x="383" y="64"/>
      <point x="391" y="70"/>
      <point x="398" y="77" type="curve"/>
      <point x="365" y="132"/>
      <point x="315" y="207"/>
      <point x="283" y="245" type="curve"/>
      <point x="282" y="232" type="line"/>
      <point x="332" y="272"/>
      <point x="408" y="340"/>
      <point x="455" y="404" type="curve"/>
      <point x="452" y="410"/>
      <point x="442" y="420"/>
      <point x="434" y="425" type="curve"/>
      <point x="376" y="369"/>
      <point x="286" y="311"/>
      <point x="206" y="262" type="curve"/>
      <point x="202" y="250"/>
      <point x="200" y="237"/>
      <point x="199" y="225" type="curve"/>
      <point x="257" y="178"/>
      <point x="325" y="116"/>
    </contour>
    <contour>
      <point x="202" y="59" type="curve"/>
      <point x="211" y="64"/>
      <point x="219" y="70"/>
      <point x="226" y="77" type="curve"/>
      <point x="193" y="132"/>
      <point x="143" y="207"/>
      <point x="111" y="245" type="curve"/>
      <point x="110" y="232" type="line"/>
      <point x="160" y="272"/>
      <point x="236" y="340"/>
      <point x="283" y="404" type="curve"/>
      <point x="280" y="410"/>
      <point x="270" y="420"/>
      <point x="262" y="425" type="curve"/>
      <point x="204" y="369"/>
      <point x="114" y="311"/>
      <point x="34" y="262" type="curve"/>
      <point x="30" y="250"/>
      <point x="28" y="237"/>
      <point x="27" y="225" type="curve"/>
      <point x="85" y="178"/>
      <point x="153" y="116"/>
    </contour>
  </outline>
</glyph>
<glyph name="logicalnot" format="2">
  <advance width="581"/>
  <unicode hex="00AC"/>
  <outline>
    <contour>
      <point x="468" y="80" type="line"/>
      <point x="482" y="79"/>
      <point x="509" y="79"/>
      <point x="523" y="80" type="curve"/>
      <point x="523" y="346" type="line"/>
      <point x="51" y="346" type="line"/>
      <point x="49" y="330"/>
      <point x="49" y="306"/>
      <point x="51" y="291" type="curve"/>
      <point x="468" y="291" type="line"/>
    </contour>
  </outline>
</glyph>
<glyph name="registered" format="2">
  <advance width="575"/>
  <unicode hex="00AE"/>
  <outline>
    <contour>
      <point x="337" y="294" type="curve" smooth="yes"/>
      <point x="478" y="294"/>
      <point x="573" y="388"/>
      <point x="573" y="530" type="curve" smooth="yes"/>
      <point x="573" y="672"/>
      <point x="478" y="765"/>
      <point x="337" y="765" type="curve" smooth="yes"/>
      <point x="192" y="765"/>
      <point x="98" y="672"/>
      <point x="98" y="530" type="curve" smooth="yes"/>
      <point x="98" y="388"/>
      <point x="192" y="294"/>
    </contour>
    <contour>
      <point x="337" y="324" type="curve" smooth="yes"/>
      <point x="212" y="324"/>
      <point x="134" y="405"/>
      <point x="134" y="530" type="curve" smooth="yes"/>
      <point x="134" y="652"/>
      <point x="212" y="735"/>
      <point x="337" y="735" type="curve" smooth="yes"/>
      <point x="460" y="735"/>
      <point x="538" y="652"/>
      <point x="538" y="530" type="curve" smooth="yes"/>
      <point x="538" y="405"/>
      <point x="460" y="324"/>
    </contour>
    <contour>
      <point x="203" y="400" type="curve"/>
      <point x="224" y="400"/>
      <point x="256" y="401"/>
      <point x="268" y="401" type="curve" smooth="yes"/>
      <point x="282" y="401"/>
      <point x="311" y="400"/>
      <point x="333" y="400" type="curve"/>
      <point x="334" y="406"/>
      <point x="334" y="415"/>
      <point x="333" y="420" type="curve"/>
      <point x="300" y="424"/>
      <point x="299" y="425"/>
      <point x="299" y="465" type="curve" smooth="yes"/>
      <point x="299" y="656" type="line"/>
      <point x="289" y="646" type="line"/>
      <point x="304" y="648"/>
      <point x="316" y="648"/>
      <point x="324" y="648" type="curve" smooth="yes"/>
      <point x="364" y="648"/>
      <point x="383" y="631"/>
      <point x="383" y="595" type="curve" smooth="yes"/>
      <point x="383" y="560"/>
      <point x="361" y="541"/>
      <point x="323" y="541" type="curve" smooth="yes"/>
      <point x="313" y="541"/>
      <point x="305" y="541"/>
      <point x="292" y="543" type="curve"/>
      <point x="292" y="521" type="line"/>
      <point x="312" y="519" type="line" smooth="yes"/>
      <point x="327" y="517"/>
      <point x="329" y="514"/>
      <point x="339" y="499" type="curve" smooth="yes"/>
      <point x="401" y="400" type="line"/>
      <point x="409" y="401"/>
      <point x="418" y="401"/>
      <point x="427" y="401" type="curve" smooth="yes"/>
      <point x="450" y="401"/>
      <point x="483" y="400"/>
      <point x="491" y="400" type="curve"/>
      <point x="492" y="406"/>
      <point x="492" y="415"/>
      <point x="491" y="420" type="curve"/>
      <point x="452" y="423"/>
      <point x="450" y="423"/>
      <point x="418" y="472" type="curve" smooth="yes"/>
      <point x="396" y="505" type="line" smooth="yes"/>
      <point x="388" y="517"/>
      <point x="382" y="525"/>
      <point x="366" y="530" type="curve"/>
      <point x="377" y="519" type="line"/>
      <point x="377" y="527" type="line"/>
      <point x="419" y="543"/>
      <point x="443" y="569"/>
      <point x="443" y="602" type="curve" smooth="yes"/>
      <point x="443" y="647"/>
      <point x="400" y="672"/>
      <point x="338" y="672" type="curve" smooth="yes"/>
      <point x="328" y="672"/>
      <point x="303" y="671"/>
      <point x="276" y="671" type="curve" smooth="yes"/>
      <point x="242" y="671"/>
      <point x="229" y="672"/>
      <point x="203" y="672" type="curve"/>
      <point x="201" y="667"/>
      <point x="201" y="658"/>
      <point x="203" y="652" type="curve"/>
      <point x="245" y="649"/>
      <point x="245" y="648"/>
      <point x="245" y="608" type="curve" smooth="yes"/>
      <point x="245" y="460" type="line" smooth="yes"/>
      <point x="245" y="425"/>
      <point x="245" y="424"/>
      <point x="203" y="420" type="curve"/>
      <point x="201" y="415"/>
      <point x="201" y="406"/>
    </contour>
  </outline>
</glyph>
<glyph name="plusminus" format="2">
  <advance width="581"/>
  <unicode hex="00B1"/>
  <outline>
    <contour>
      <point x="531" y="261" type="line"/>
      <point x="532" y="276"/>
      <point x="532" y="300"/>
      <point x="531" y="316" type="curve"/>
      <point x="54" y="316" type="line"/>
      <point x="52" y="300"/>
      <point x="52" y="276"/>
      <point x="54" y="261" type="curve"/>
    </contour>
    <contour>
      <point x="531" y="1" type="line"/>
      <point x="532" y="16"/>
      <point x="532" y="40"/>
      <point x="531" y="56" type="curve"/>
      <point x="54" y="56" type="line"/>
      <point x="52" y="40"/>
      <point x="52" y="16"/>
      <point x="54" y="1" type="curve"/>
    </contour>
    <contour>
      <point x="265" y="110" type="line"/>
      <point x="279" y="109"/>
      <point x="306" y="109"/>
      <point x="320" y="110" type="curve"/>
      <point x="320" y="477" type="line"/>
      <point x="306" y="478"/>
      <point x="279" y="478"/>
      <point x="265" y="477" type="curve"/>
    </contour>
  </outline>
</glyph>
<glyph name="twosuperior" format="2">
  <advance width="373"/>
  <unicode hex="00B2"/>
  <outline>
    <contour>
      <point x="335" y="335" type="curve"/>
      <point x="345" y="369"/>
      <point x="354" y="404"/>
      <point x="380" y="481" type="curve"/>
      <point x="370" y="483"/>
      <point x="361" y="483"/>
      <point x="353" y="483" type="curve"/>
      <point x="313" y="406"/>
      <point x="309" y="404"/>
      <point x="245" y="404" type="curve" smooth="yes"/>
      <point x="113" y="403" type="line"/>
      <point x="117" y="387" type="line"/>
      <point x="262" y="493"/>
      <point x="384" y="576"/>
      <point x="384" y="680" type="curve" smooth="yes"/>
      <point x="384" y="750"/>
      <point x="328" y="788"/>
      <point x="256" y="788" type="curve" smooth="yes"/>
      <point x="193" y="788"/>
      <point x="144" y="759"/>
      <point x="107" y="719" type="curve"/>
      <point x="109" y="711"/>
      <point x="115" y="705"/>
      <point x="122" y="699" type="curve"/>
      <point x="158" y="723"/>
      <point x="193" y="734"/>
      <point x="222" y="734" type="curve" smooth="yes"/>
      <point x="259" y="734"/>
      <point x="294" y="717"/>
      <point x="294" y="662" type="curve" smooth="yes"/>
      <point x="294" y="554"/>
      <point x="167" y="461"/>
      <point x="31" y="358" type="curve"/>
      <point x="31" y="351"/>
      <point x="32" y="343"/>
      <point x="33" y="336" type="curve"/>
      <point x="54" y="337"/>
      <point x="88" y="337"/>
      <point x="146" y="337" type="curve" smooth="yes"/>
      <point x="204" y="337"/>
      <point x="271" y="337"/>
    </contour>
  </outline>
</glyph>
<glyph name="threesuperior" format="2">
  <advance width="378"/>
  <unicode hex="00B3"/>
  <outline>
    <contour>
      <point x="178" y="324" type="curve" smooth="yes"/>
      <point x="295" y="324"/>
      <point x="388" y="392"/>
      <point x="388" y="480" type="curve" smooth="yes"/>
      <point x="388" y="547"/>
      <point x="334" y="585"/>
      <point x="263" y="585" type="curve"/>
      <point x="155" y="565" type="line"/>
      <point x="154" y="561"/>
      <point x="154" y="558"/>
      <point x="154" y="555" type="curve" smooth="yes"/>
      <point x="154" y="546"/>
      <point x="155" y="541"/>
      <point x="157" y="536" type="curve"/>
      <point x="174" y="540"/>
      <point x="187" y="543"/>
      <point x="206" y="543" type="curve" smooth="yes"/>
      <point x="269" y="543"/>
      <point x="301" y="512"/>
      <point x="301" y="462" type="curve" smooth="yes"/>
      <point x="301" y="398"/>
      <point x="250" y="356"/>
      <point x="183" y="356" type="curve" smooth="yes"/>
      <point x="174" y="356"/>
      <point x="154" y="357"/>
      <point x="140" y="362" type="curve"/>
      <point x="159" y="348" type="line"/>
      <point x="154" y="404"/>
      <point x="128" y="445"/>
      <point x="89" y="445" type="curve" smooth="yes"/>
      <point x="63" y="445"/>
      <point x="45" y="427"/>
      <point x="45" y="401" type="curve" smooth="yes"/>
      <point x="45" y="355"/>
      <point x="100" y="324"/>
    </contour>
    <contour>
      <point x="266" y="578" type="line"/>
      <point x="337" y="601"/>
      <point x="400" y="642"/>
      <point x="400" y="700" type="curve" smooth="yes"/>
      <point x="400" y="751"/>
      <point x="350" y="788"/>
      <point x="278" y="788" type="curve" smooth="yes"/>
      <point x="231" y="788"/>
      <point x="181" y="772"/>
      <point x="133" y="726" type="curve"/>
      <point x="134" y="719"/>
      <point x="137" y="711"/>
      <point x="143" y="704" type="curve"/>
      <point x="175" y="723"/>
      <point x="213" y="735"/>
      <point x="243" y="735" type="curve" smooth="yes"/>
      <point x="285" y="735"/>
      <point x="312" y="712"/>
      <point x="312" y="679" type="curve" smooth="yes"/>
      <point x="312" y="630"/>
      <point x="257" y="587"/>
      <point x="155" y="565" type="curve"/>
    </contour>
  </outline>
</glyph>
<glyph name="micro" format="2">
  <advance width="569"/>
  <unicode hex="00B5"/>
  <outline>
    <contour>
      <point x="187" y="-12" type="curve" smooth="yes"/>
      <point x="263" y="-12"/>
      <point x="319" y="87"/>
      <point x="359" y="153" type="curve"/>
      <point x="412" y="199"/>
      <point x="497" y="401"/>
      <point x="497" y="427" type="curve" smooth="yes"/>
      <point x="497" y="448"/>
      <point x="439" y="471"/>
      <point x="426" y="471" type="curve" smooth="yes"/>
      <point x="392" y="471"/>
      <point x="357" y="289"/>
      <point x="348" y="212" type="curve"/>
      <point x="306" y="143"/>
      <point x="256" y="85"/>
      <point x="192" y="85" type="curve" smooth="yes"/>
      <point x="139" y="85"/>
      <point x="131" y="125"/>
      <point x="131" y="166" type="curve" smooth="yes"/>
      <point x="131" y="185"/>
      <point x="132" y="212"/>
      <point x="142" y="254" type="curve"/>
      <point x="66" y="94" type="line"/>
      <point x="96" y="104" type="line"/>
      <point x="102" y="49"/>
      <point x="127" y="-12"/>
    </contour>
    <contour>
      <point x="66" y="-254" type="curve" smooth="yes"/>
      <point x="87" y="-254"/>
      <point x="109" y="-245"/>
      <point x="131" y="-228" type="curve"/>
      <point x="93" y="-168"/>
      <point x="76" y="-106"/>
      <point x="76" y="-45" type="curve" smooth="yes"/>
      <point x="76" y="4"/>
      <point x="87" y="73"/>
      <point x="96" y="116" type="curve"/>
      <point x="125" y="194" type="line"/>
      <point x="173" y="275"/>
      <point x="223" y="409"/>
      <point x="223" y="434" type="curve" smooth="yes"/>
      <point x="223" y="458"/>
      <point x="154" y="474"/>
      <point x="145" y="474" type="curve" smooth="yes"/>
      <point x="116" y="474"/>
      <point x="90" y="279"/>
      <point x="90" y="225" type="curve"/>
      <point x="53" y="130"/>
      <point x="-2" y="-30"/>
      <point x="-2" y="-140" type="curve" smooth="yes"/>
      <point x="-2" y="-196"/>
      <point x="13" y="-254"/>
    </contour>
    <contour>
      <point x="426" y="-9" type="curve" smooth="yes"/>
      <point x="484" y="-9"/>
      <point x="525" y="43"/>
      <point x="525" y="104" type="curve" smooth="yes"/>
      <point x="525" y="110"/>
      <point x="525" y="115"/>
      <point x="524" y="121" type="curve"/>
      <point x="518" y="123" type="line"/>
      <point x="499" y="94"/>
      <point x="469" y="81"/>
      <point x="441" y="81" type="curve" smooth="yes"/>
      <point x="399" y="81"/>
      <point x="375" y="112"/>
      <point x="375" y="147" type="curve" smooth="yes"/>
      <point x="375" y="162"/>
      <point x="379" y="180"/>
      <point x="391" y="208" type="curve"/>
      <point x="338" y="165" type="line"/>
      <point x="333" y="36"/>
      <point x="370" y="-9"/>
    </contour>
  </outline>
</glyph>
<glyph name="paragraph" format="2">
  <advance width="569"/>
  <unicode hex="00B6"/>
  <outline>
    <contour>
      <point x="367" y="658" type="line"/>
      <point x="461" y="655" type="line"/>
      <point x="300" y="-173" type="line"/>
      <point x="351" y="-162" type="line"/>
      <point x="496" y="588" type="line" smooth="yes"/>
      <point x="510" y="661"/>
      <point x="516" y="661"/>
      <point x="614" y="670" type="curve"/>
      <point x="617" y="680"/>
      <point x="619" y="691"/>
      <point x="620" y="701" type="curve"/>
      <point x="578" y="701"/>
      <point x="507" y="699"/>
      <point x="469" y="699" type="curve" smooth="yes"/>
      <point x="434" y="699"/>
      <point x="340" y="701"/>
      <point x="316" y="701" type="curve" smooth="yes"/>
      <point x="156" y="701"/>
      <point x="62" y="627"/>
      <point x="62" y="502" type="curve" smooth="yes"/>
      <point x="62" y="371"/>
      <point x="165" y="304"/>
      <point x="295" y="309" type="curve"/>
    </contour>
    <contour>
      <point x="348" y="674" type="line"/>
      <point x="177" y="-200" type="line"/>
      <point x="228" y="-189" type="line"/>
      <point x="396" y="673" type="line"/>
    </contour>
  </outline>
</glyph>
<glyph name="onesuperior" format="2">
  <advance width="301"/>
  <unicode hex="00B9"/>
  <outline>
    <contour>
      <point x="52" y="333" type="curve"/>
      <point x="86" y="333"/>
      <point x="114" y="336"/>
      <point x="177" y="336" type="curve" smooth="yes"/>
      <point x="244" y="336"/>
      <point x="265" y="333"/>
      <point x="294" y="333" type="curve"/>
      <point x="298" y="342"/>
      <point x="300" y="351"/>
      <point x="301" y="361" type="curve"/>
      <point x="244" y="367"/>
      <point x="228" y="368"/>
      <point x="228" y="396" type="curve" smooth="yes"/>
      <point x="228" y="407"/>
      <point x="231" y="422"/>
      <point x="235" y="444" type="curve" smooth="yes"/>
      <point x="278" y="665" type="line" smooth="yes"/>
      <point x="288" y="714"/>
      <point x="302" y="750"/>
      <point x="320" y="768" type="curve"/>
      <point x="319" y="776"/>
      <point x="315" y="782"/>
      <point x="311" y="788" type="curve"/>
      <point x="234" y="758"/>
      <point x="181" y="739"/>
      <point x="96" y="715" type="curve"/>
      <point x="96" y="705"/>
      <point x="97" y="697"/>
      <point x="99" y="687" type="curve"/>
      <point x="137" y="694"/>
      <point x="164" y="697"/>
      <point x="176" y="697" type="curve" smooth="yes"/>
      <point x="191" y="697"/>
      <point x="197" y="693"/>
      <point x="197" y="681" type="curve" smooth="yes"/>
      <point x="197" y="676"/>
      <point x="196" y="667"/>
      <point x="194" y="658" type="curve" smooth="yes"/>
      <point x="150" y="435" type="line" smooth="yes"/>
      <point x="138" y="372"/>
      <point x="136" y="369"/>
      <point x="58" y="361" type="curve"/>
      <point x="54" y="351"/>
      <point x="52" y="342"/>
    </contour>
  </outline>
</glyph>
<glyph name="ordmasculine" format="2">
  <advance width="414"/>
  <unicode hex="00BA"/>
  <outline>
    <contour>
      <point x="351" y="200" type="line"/>
      <point x="354" y="212"/>
      <point x="357" y="224"/>
      <point x="358" y="237" type="curve"/>
      <point x="57" y="237" type="line"/>
      <point x="54" y="224"/>
      <point x="51" y="212"/>
      <point x="50" y="200" type="curve"/>
    </contour>
    <contour>
      <point x="415" y="497" type="curve" smooth="yes"/>
      <point x="415" y="570"/>
      <point x="370" y="630"/>
      <point x="270" y="630" type="curve" smooth="yes"/>
      <point x="132" y="630"/>
      <point x="72" y="511"/>
      <point x="72" y="434" type="curve" smooth="yes"/>
      <point x="72" y="375"/>
      <point x="108" y="298"/>
      <point x="220" y="298" type="curve" smooth="yes"/>
      <point x="347" y="298"/>
      <point x="415" y="407"/>
    </contour>
    <contour>
      <point x="329" y="506" type="curve" smooth="yes"/>
      <point x="329" y="426"/>
      <point x="291" y="328"/>
      <point x="223" y="328" type="curve" smooth="yes"/>
      <point x="178" y="328"/>
      <point x="159" y="369"/>
      <point x="159" y="423" type="curve" smooth="yes"/>
      <point x="159" y="506"/>
      <point x="201" y="600"/>
      <point x="266" y="600" type="curve" smooth="yes"/>
      <point x="310" y="600"/>
      <point x="329" y="561"/>
    </contour>
  </outline>
</glyph>
<glyph name="guillemotright" format="2">
  <advance width="470"/>
  <unicode hex="00BB"/>
  <outline>
    <contour>
      <point x="194" y="59" type="curve"/>
      <point x="252" y="115"/>
      <point x="342" y="175"/>
      <point x="422" y="224" type="curve"/>
      <point x="426" y="236"/>
      <point x="428" y="249"/>
      <point x="429" y="261" type="curve"/>
      <point x="371" y="308"/>
      <point x="303" y="368"/>
      <point x="254" y="425" type="curve"/>
      <point x="245" y="420"/>
      <point x="237" y="414"/>
      <point x="230" y="407" type="curve"/>
      <point x="263" y="352"/>
      <point x="313" y="280"/>
      <point x="345" y="241" type="curve"/>
      <point x="346" y="254" type="line"/>
      <point x="296" y="214"/>
      <point x="220" y="144"/>
      <point x="173" y="80" type="curve"/>
      <point x="176" y="74"/>
      <point x="186" y="64"/>
    </contour>
    <contour>
      <point x="22" y="59" type="curve"/>
      <point x="80" y="115"/>
      <point x="170" y="175"/>
      <point x="250" y="224" type="curve"/>
      <point x="254" y="236"/>
      <point x="256" y="249"/>
      <point x="257" y="261" type="curve"/>
      <point x="199" y="308"/>
      <point x="131" y="368"/>
      <point x="82" y="425" type="curve"/>
      <point x="73" y="420"/>
      <point x="65" y="414"/>
      <point x="58" y="407" type="curve"/>
      <point x="91" y="352"/>
      <point x="141" y="280"/>
      <point x="173" y="241" type="curve"/>
      <point x="174" y="254" type="line"/>
      <point x="124" y="214"/>
      <point x="48" y="144"/>
      <point x="1" y="80" type="curve"/>
      <point x="4" y="74"/>
      <point x="14" y="64"/>
    </contour>
  </outline>
</glyph>
